<?xml version="1.0" encoding="UTF-8" standalone="no"?>
<!-- Created with Inkscape (http://www.inkscape.org/) -->

<svg
   width="512"
   height="512"
   viewBox="0 0 135.46666 135.46667"
   version="1.1"
   id="svg64"
   inkscape:version="1.1.2 (b8e25be833, 2022-02-05)"
   sodipodi:docname="bonsai_color.svg"
   xmlns:inkscape="http://www.inkscape.org/namespaces/inkscape"
   xmlns:sodipodi="http://sodipodi.sourceforge.net/DTD/sodipodi-0.dtd"
   xmlns="http://www.w3.org/2000/svg"
   xmlns:svg="http://www.w3.org/2000/svg">
  <sodipodi:namedview
     id="namedview66"
     pagecolor="#ffffff"
     bordercolor="#666666"
     borderopacity="1.0"
     inkscape:pageshadow="2"
     inkscape:pageopacity="0.0"
     inkscape:pagecheckerboard="true"
     inkscape:document-units="px"
     showgrid="false"
     units="px"
     inkscape:zoom="1.3289991"
     inkscape:cx="308.87907"
     inkscape:cy="228.36735"
     inkscape:window-width="1920"
     inkscape:window-height="1001"
     inkscape:window-x="-9"
     inkscape:window-y="-9"
     inkscape:window-maximized="1"
     inkscape:current-layer="g388" />
  <defs
     id="defs61" />
  <g
     inkscape:label="Layer 1"
     inkscape:groupmode="layer"
     id="layer1" />
  <g
     inkscape:groupmode="layer"
     id="g330"
     inkscape:label="Stem"
     style="display:inline">
    <g
       id="g328"
       transform="scale(0.26458333)">
      <g
         id="g278">
	<g
   id="g276">
		<path
   d="m 381.684,251.307 c 0.774,-4.192 4.102,-7.566 8.283,-8.393 4.434,-0.878 7.76,-4.568 8.175,-9.07 0.551,-5.976 5.5,-10.482 11.513,-10.482 3.369,0 6.566,1.471 8.773,4.037 2.541,2.954 6.54,4.202 10.312,3.217 0.872,-0.228 1.775,-0.344 2.681,-0.344 4.243,0 8.053,2.525 9.707,6.434 1.807,4.272 6.272,6.784 10.864,6.118 6.435,-0.942 12.071,4.104 12.071,10.416 0,5.803 -4.719,10.527 -10.523,10.531 l -63.269,-0.16 c -5.033,-0.841 -8.768,-5.215 -8.768,-10.371 0.001,-0.636 0.061,-1.285 0.181,-1.933 z M 258.212,92.398 c -11.744,0 -21.3,-9.555 -21.3,-21.3 0,-11.745 9.556,-21.3 21.3,-21.3 1.02,0 2.066,0.076 3.111,0.229 4.595,0.668 9.052,-1.848 10.859,-6.12 3.343,-7.902 11.049,-13.009 19.629,-13.009 1.833,0 3.653,0.234 5.411,0.694 3.773,0.988 7.775,-0.261 10.315,-3.216 4.36,-5.07 10.684,-7.978 17.348,-7.978 11.892,0 21.681,8.916 22.771,20.74 0.414,4.5 3.741,8.191 8.175,9.07 9.926,1.966 17.13,10.751 17.13,20.889 0,11.745 -9.556,21.3 -21.3,21.3 H 258.212 Z M 96.637,149.894 v 0.002 c -9.513,0 -17.253,-7.739 -17.253,-17.252 0,-8.212 5.834,-15.327 13.872,-16.919 4.434,-0.878 7.76,-4.568 8.175,-9.07 0.886,-9.626 8.857,-16.886 18.54,-16.886 5.426,0 10.573,2.367 14.124,6.496 2.542,2.956 6.545,4.205 10.318,3.217 1.426,-0.373 2.901,-0.563 4.384,-0.563 6.95,0 13.192,4.137 15.9,10.539 1.807,4.271 6.27,6.787 10.859,6.118 10.646,-1.547 19.776,6.729 19.775,17.066 0,9.513 -7.739,17.252 -17.253,17.252 z m 110.359,149.559 c 1.56,-2.466 1.99,-5.483 1.179,-8.287 -0.811,-2.804 -2.783,-5.126 -5.42,-6.38 -4.085,-1.941 -8.741,-5.81 -13.839,-11.502 -29.729,-33.184 -38.87,-80.468 -41.619,-102.991 h 5.971 c 1.496,13.113 7.094,34.863 26.14,58.67 20.855,26.07 38.676,32.957 49.954,34.145 3.363,0.347 6.694,-0.987 8.873,-3.579 11.692,-13.905 16.167,-18.887 23.935,-26.655 l 2.233,-2.23 c 23.447,-23.381 46.245,-47.896 45.123,-68.091 -0.65,-11.692 -5.101,-27.422 -9.028,-41.298 -0.829,-2.928 -1.641,-5.798 -2.367,-8.462 h 20.049 c 8.025,15.014 24.169,45.84 29.036,59.747 4.827,13.794 5.975,17.071 -38.601,57.687 -11.437,10.421 -18.886,24.986 -22.138,43.292 -0.697,3.919 0.952,7.886 4.22,10.158 3.27,2.273 7.563,2.436 10.993,0.416 20.384,-11.993 42.556,-18.681 60.218,-22.397 0.635,2.264 1.523,4.428 2.631,6.457 -11.604,3.706 -25.491,10.363 -40.251,22.173 -26.566,21.252 -33.273,39.331 -34.221,50.756 -0.085,1.016 -0.016,2.038 0.203,3.033 2.766,12.583 6.047,23.641 8.71,31.736 H 177.266 c 3.318,-16.346 11.547,-47.667 29.73,-76.398 z M 393.508,491.602 H 118.492 c -50.818,0 -92.16,-41.342 -92.16,-92.16 v -2.896 h 459.334 v 2.896 h 10e-4 c 0.001,50.817 -41.342,92.16 -92.159,92.16 z"
   id="path274"
   sodipodi:nodetypes="cccsccsccscccccssccsccsccssccccsccsccscccsccsccccccccccccccscccccccccccsssccccs"
   style="fill:#aa4400" />

	</g>

</g>
      <g
         id="g284">
	<g
   id="g282">
		<path
   d="M 311.448,411.159 H 58.254 c -5.633,0 -10.199,4.567 -10.199,10.199 0,5.632 4.566,10.199 10.199,10.199 h 253.194 c 5.633,0 10.199,-4.567 10.199,-10.199 0,-5.631 -4.566,-10.199 -10.199,-10.199 z"
   id="path280" />

	</g>

</g>
      <g
         id="g290">
	<g
   id="g288">
		<path
   d="m 393.155,411.159 h -33.288 c -5.633,0 -10.199,4.567 -10.199,10.199 0,5.632 4.566,10.199 10.199,10.199 h 33.288 c 5.633,0 10.199,-4.567 10.199,-10.199 0,-5.631 -4.566,-10.199 -10.199,-10.199 z"
   id="path286" />

	</g>

</g>
      <g
         id="g296">
	<g
   id="g294">
		<path
   d="m 234.063,295.65 c -4.8,-2.943 -11.08,-1.44 -14.026,3.362 -15.93,25.973 -23.892,50.621 -24.223,51.657 -1.713,5.364 1.244,11.097 6.607,12.813 1.034,0.33 2.081,0.489 3.111,0.489 4.314,0 8.324,-2.761 9.712,-7.088 0.074,-0.232 7.598,-23.429 22.182,-47.205 2.944,-4.802 1.438,-11.082 -3.363,-14.028 z"
   id="path292" />

	</g>

</g>
      <g
         id="g298">
</g>
      <g
         id="g300">
</g>
      <g
         id="g302">
</g>
      <g
         id="g304">
</g>
      <g
         id="g306">
</g>
      <g
         id="g308">
</g>
      <g
         id="g310">
</g>
      <g
         id="g312">
</g>
      <g
         id="g314">
</g>
      <g
         id="g316">
</g>
      <g
         id="g318">
</g>
      <g
         id="g320">
</g>
      <g
         id="g322">
</g>
      <g
         id="g324">
</g>
      <g
         id="g326">
</g>
    </g>
  </g>
  <g
     inkscape:groupmode="layer"
     id="g272"
     inkscape:label="Pot"
     style="display:inline">
    <g
       id="g270"
       transform="scale(0.26458333)">
      <g
         id="g220">
	<g
   id="g218">
		<path
   d="m 320.65,376.148 c -2.524,-7.084 -6.695,-19.752 -10.087,-34.743 0.924,-5.746 5.511,-18.383 26.467,-35.147 23.121,-18.497 42.836,-21.813 52.528,-22.143 l 63.95,0.056 h 0.026 c 17.054,0 30.929,-13.875 30.929,-30.929 0,-16.115 -12.39,-29.391 -28.144,-30.804 -5.744,-7.799 -14.912,-12.562 -24.897,-12.562 -0.619,0 -1.237,0.019 -1.854,0.056 -5.616,-4.478 -12.616,-6.966 -19.912,-6.966 -14.226,0 -26.3,9.138 -30.439,22.143 -6.773,3.115 -12.265,8.632 -15.355,15.41 -14.058,2.618 -31.588,7.047 -49.443,14.515 2.251,-3.713 4.898,-6.96 7.932,-9.725 44.911,-40.918 53.648,-52.266 44.116,-79.503 -4.375,-12.5 -16.145,-35.772 -25.201,-53.008 h 10.394 c 22.992,0 41.698,-18.706 41.698,-41.698 0,-17.396 -10.844,-32.758 -26.619,-38.881 C 361.857,13.429 344.953,0 324.885,0 c -10.57,0 -20.682,3.858 -28.529,10.747 -1.507,-0.164 -3.024,-0.247 -4.545,-0.247 -14.289,0 -27.337,7.235 -34.941,18.921 -22.374,0.711 -40.356,19.134 -40.356,41.677 0,22.992 18.705,41.698 41.698,41.698 h 18.83 c 1.035,4.148 2.376,8.889 3.828,14.017 3.46,12.223 7.765,27.434 8.289,36.874 0.124,2.242 -0.843,9.042 -12.494,23.738 -8.278,10.442 -18.905,21.039 -26.665,28.777 l -2.254,2.249 c -7.309,7.309 -11.825,12.238 -21.157,23.25 -6.618,-2.21 -17.585,-8.397 -31.252,-25.48 -15.093,-18.866 -20.031,-35.487 -21.548,-45.927 h 4.289 c 20.76,0 37.651,-16.89 37.651,-37.65 0,-20.127 -15.873,-36.616 -35.759,-37.604 -6.916,-10.219 -18.504,-16.518 -31.173,-16.518 -1.18,0 -2.359,0.056 -3.531,0.165 -7.013,-5.976 -15.955,-9.316 -25.293,-9.316 -17.868,0 -32.955,11.808 -37.571,28.413 -13.906,5.687 -23.414,19.383 -23.414,34.86 0,20.76 16.89,37.65 37.651,37.65 h 30.103 c 2.753,25.33 12.527,78.14 46.983,116.602 3.696,4.126 7.288,7.561 10.83,10.348 -17.91,31.651 -25.4,63.844 -28.138,78.903 z m 61.034,-124.841 c 0.774,-4.192 4.102,-7.566 8.283,-8.393 4.434,-0.878 7.76,-4.568 8.175,-9.07 0.551,-5.976 5.5,-10.482 11.513,-10.482 3.369,0 6.566,1.471 8.773,4.037 2.541,2.954 6.54,4.202 10.312,3.217 0.872,-0.228 1.775,-0.344 2.681,-0.344 4.243,0 8.053,2.525 9.707,6.434 1.807,4.272 6.272,6.784 10.864,6.118 6.435,-0.942 12.071,4.104 12.071,10.416 0,5.803 -4.719,10.527 -10.523,10.531 l -63.269,-0.16 c -5.033,-0.841 -8.768,-5.215 -8.768,-10.371 0.001,-0.636 0.061,-1.285 0.181,-1.933 z M 258.212,92.398 c -11.744,0 -21.3,-9.555 -21.3,-21.3 0,-11.745 9.556,-21.3 21.3,-21.3 1.02,0 2.066,0.076 3.111,0.229 4.595,0.668 9.052,-1.848 10.859,-6.12 3.343,-7.902 11.049,-13.009 19.629,-13.009 1.833,0 3.653,0.234 5.411,0.694 3.773,0.988 7.775,-0.261 10.315,-3.216 4.36,-5.07 10.684,-7.978 17.348,-7.978 11.892,0 21.681,8.916 22.771,20.74 0.414,4.5 3.741,8.191 8.175,9.07 9.926,1.966 17.13,10.751 17.13,20.889 0,11.745 -9.556,21.3 -21.3,21.3 H 258.212 Z M 96.637,149.894 v 0.002 c -9.513,0 -17.253,-7.739 -17.253,-17.252 0,-8.212 5.834,-15.327 13.872,-16.919 4.434,-0.878 7.76,-4.568 8.175,-9.07 0.886,-9.626 8.857,-16.886 18.54,-16.886 5.426,0 10.573,2.367 14.124,6.496 2.542,2.956 6.545,4.205 10.318,3.217 1.426,-0.373 2.901,-0.563 4.384,-0.563 6.95,0 13.192,4.137 15.9,10.539 1.807,4.271 6.27,6.787 10.859,6.118 10.646,-1.547 19.776,6.729 19.775,17.066 0,9.513 -7.739,17.252 -17.253,17.252 z m 110.359,149.559 c 1.56,-2.466 1.99,-5.483 1.179,-8.287 -0.811,-2.804 -2.783,-5.126 -5.42,-6.38 -4.085,-1.941 -8.741,-5.81 -13.839,-11.502 -29.729,-33.184 -38.87,-80.468 -41.619,-102.991 h 5.971 c 1.496,13.113 7.094,34.863 26.14,58.67 20.855,26.07 38.676,32.957 49.954,34.145 3.363,0.347 6.694,-0.987 8.873,-3.579 11.692,-13.905 16.167,-18.887 23.935,-26.655 l 2.233,-2.23 c 23.447,-23.381 46.245,-47.896 45.123,-68.091 -0.65,-11.692 -5.101,-27.422 -9.028,-41.298 -0.829,-2.928 -1.641,-5.798 -2.367,-8.462 h 20.049 c 8.025,15.014 24.169,45.84 29.036,59.747 4.827,13.794 5.975,17.071 -38.601,57.687 -11.437,10.421 -18.886,24.986 -22.138,43.292 -0.697,3.919 0.952,7.886 4.22,10.158 3.27,2.273 7.563,2.436 10.993,0.416 20.384,-11.993 42.556,-18.681 60.218,-22.397 0.635,2.264 1.523,4.428 2.631,6.457 -11.604,3.706 -25.491,10.363 -40.251,22.173 -26.566,21.252 -33.273,39.331 -34.221,50.756 -0.085,1.016 -0.016,2.038 0.203,3.033 2.766,12.583 6.047,23.641 8.71,31.736 H 177.266 c 3.318,-16.346 11.547,-47.667 29.73,-76.398 z M 393.508,491.602 H 118.492 c -50.818,0 -92.16,-41.342 -92.16,-92.16 v -2.896 h 459.334 v 2.896 h 10e-4 c 0.001,50.817 -41.342,92.16 -92.159,92.16 z"
   id="path216"
   sodipodi:nodetypes="cccccsscscsccccccsscscscsscccccccccsscscscssccccccccsccsccscccccssccsccsccssccccsccsccscccsccsccccccccccccccscccccccccccsssccccs"
   style="fill:#214478" />

	</g>

</g>
      <g
         id="g226">
	<g
   id="g224">
		<path
   d="M 311.448,411.159 H 58.254 c -5.633,0 -10.199,4.567 -10.199,10.199 0,5.632 4.566,10.199 10.199,10.199 h 253.194 c 5.633,0 10.199,-4.567 10.199,-10.199 0,-5.631 -4.566,-10.199 -10.199,-10.199 z"
   id="path222" />

	</g>

</g>
      <g
         id="g232">
	<g
   id="g230">
		<path
   d="m 393.155,411.159 h -33.288 c -5.633,0 -10.199,4.567 -10.199,10.199 0,5.632 4.566,10.199 10.199,10.199 h 33.288 c 5.633,0 10.199,-4.567 10.199,-10.199 0,-5.631 -4.566,-10.199 -10.199,-10.199 z"
   id="path228" />

	</g>

</g>
      <g
         id="g238">
	<g
   id="g236">
		<path
   d="m 234.063,295.65 c -4.8,-2.943 -11.08,-1.44 -14.026,3.362 -15.93,25.973 -23.892,50.621 -24.223,51.657 -1.713,5.364 1.244,11.097 6.607,12.813 1.034,0.33 2.081,0.489 3.111,0.489 4.314,0 8.324,-2.761 9.712,-7.088 0.074,-0.232 7.598,-23.429 22.182,-47.205 2.944,-4.802 1.438,-11.082 -3.363,-14.028 z"
   id="path234" />

	</g>

</g>
      <g
         id="g240">
</g>
      <g
         id="g242">
</g>
      <g
         id="g244">
</g>
      <g
         id="g246">
</g>
      <g
         id="g248">
</g>
      <g
         id="g250">
</g>
      <g
         id="g252">
</g>
      <g
         id="g254">
</g>
      <g
         id="g256">
</g>
      <g
         id="g258">
</g>
      <g
         id="g260">
</g>
      <g
         id="g262">
</g>
      <g
         id="g264">
</g>
      <g
         id="g266">
</g>
      <g
         id="g268">
</g>
    </g>
  </g>
  <g
     inkscape:groupmode="layer"
     id="g388"
     inkscape:label="Leaves"
     style="display:inline">
    <g
       id="g386"
       transform="scale(0.26458333)">
      <g
         id="g336">
	<g
   id="g334">
		<path
   d="M 495.867,376.148 H 320.65 c -2.524,-7.084 -6.695,-19.752 -10.087,-34.743 0.924,-5.746 5.511,-18.383 26.467,-35.147 23.121,-18.497 42.836,-21.813 52.528,-22.143 l -25.696,-43.596 c -14.058,2.618 -31.588,7.047 -49.443,14.515 2.251,-3.713 4.898,-6.96 7.932,-9.725 44.911,-40.918 53.648,-52.266 44.116,-79.503 -4.375,-12.5 -16.145,-35.772 -25.201,-53.008 l -64.224,-0.002 c 1.035,4.148 2.376,8.889 3.828,14.017 3.46,12.223 7.765,27.434 8.289,36.874 0.124,2.242 -0.843,9.042 -12.494,23.738 -8.278,10.442 -18.905,21.039 -26.665,28.777 l -2.254,2.249 c -7.309,7.309 -11.825,12.238 -21.157,23.25 -6.618,-2.21 -17.585,-8.397 -31.252,-25.48 -15.093,-18.866 -20.031,-35.487 -21.548,-45.927 h -47.047 c 2.753,25.33 12.527,78.14 46.983,116.602 3.696,4.126 7.288,7.561 10.83,10.348 -17.91,31.651 -25.4,63.844 -28.138,78.903 H 16.133 c -5.633,0 -10.199,4.567 -10.199,10.199 v 13.095 C 5.934,461.507 56.427,512 118.492,512 h 275.015 c 62.065,0 112.558,-50.494 112.558,-112.558 v -13.095 c 10e-4,-5.632 -4.565,-10.199 -10.198,-10.199 z M 381.684,251.307 c 0.774,-4.192 4.102,-7.566 8.283,-8.393 4.434,-0.878 7.76,-4.568 8.175,-9.07 0.551,-5.976 5.5,-10.482 11.513,-10.482 3.369,0 6.566,1.471 8.773,4.037 2.541,2.954 6.54,4.202 10.312,3.217 0.872,-0.228 1.775,-0.344 2.681,-0.344 4.243,0 8.053,2.525 9.707,6.434 1.807,4.272 6.272,6.784 10.864,6.118 6.435,-0.942 12.071,4.104 12.071,10.416 0,5.803 -4.719,10.527 -10.523,10.531 l -63.269,-0.16 c -5.033,-0.841 -8.768,-5.215 -8.768,-10.371 0.001,-0.636 0.061,-1.285 0.181,-1.933 z M 258.212,92.398 c -11.744,0 -21.3,-9.555 -21.3,-21.3 0,-11.745 9.556,-21.3 21.3,-21.3 1.02,0 2.066,0.076 3.111,0.229 4.595,0.668 9.052,-1.848 10.859,-6.12 3.343,-7.902 11.049,-13.009 19.629,-13.009 1.833,0 3.653,0.234 5.411,0.694 3.773,0.988 7.775,-0.261 10.315,-3.216 4.36,-5.07 10.684,-7.978 17.348,-7.978 11.892,0 21.681,8.916 22.771,20.74 0.414,4.5 3.741,8.191 8.175,9.07 9.926,1.966 17.13,10.751 17.13,20.889 0,11.745 -9.556,21.3 -21.3,21.3 H 258.212 Z M 96.637,149.894 v 0.002 c -9.513,0 -17.253,-7.739 -17.253,-17.252 0,-8.212 5.834,-15.327 13.872,-16.919 4.434,-0.878 7.76,-4.568 8.175,-9.07 0.886,-9.626 8.857,-16.886 18.54,-16.886 5.426,0 10.573,2.367 14.124,6.496 2.542,2.956 6.545,4.205 10.318,3.217 1.426,-0.373 2.901,-0.563 4.384,-0.563 6.95,0 13.192,4.137 15.9,10.539 1.807,4.271 6.27,6.787 10.859,6.118 10.646,-1.547 19.776,6.729 19.775,17.066 0,9.513 -7.739,17.252 -17.253,17.252 z m 110.359,149.559 c 1.56,-2.466 1.99,-5.483 1.179,-8.287 -0.811,-2.804 -2.783,-5.126 -5.42,-6.38 -4.085,-1.941 -8.741,-5.81 -13.839,-11.502 -29.729,-33.184 -38.87,-80.468 -41.619,-102.991 h 5.971 c 1.496,13.113 7.094,34.863 26.14,58.67 20.855,26.07 38.676,32.957 49.954,34.145 3.363,0.347 6.694,-0.987 8.873,-3.579 11.692,-13.905 16.167,-18.887 23.935,-26.655 l 2.233,-2.23 c 23.447,-23.381 46.245,-47.896 45.123,-68.091 -0.65,-11.692 -5.101,-27.422 -9.028,-41.298 -0.829,-2.928 -1.641,-5.798 -2.367,-8.462 h 20.049 c 8.025,15.014 24.169,45.84 29.036,59.747 4.827,13.794 5.975,17.071 -38.601,57.687 -11.437,10.421 -18.886,24.986 -22.138,43.292 -0.697,3.919 0.952,7.886 4.22,10.158 3.27,2.273 7.563,2.436 10.993,0.416 20.384,-11.993 42.556,-18.681 60.218,-22.397 0.635,2.264 1.523,4.428 2.631,6.457 -11.604,3.706 -25.491,10.363 -40.251,22.173 -26.566,21.252 -33.273,39.331 -34.221,50.756 -0.085,1.016 -0.016,2.038 0.203,3.033 2.766,12.583 6.047,23.641 8.71,31.736 H 177.266 c 3.318,-16.346 11.547,-47.667 29.73,-76.398 z M 393.508,491.602 H 118.492 c -50.818,0 -92.16,-41.342 -92.16,-92.16 v -2.896 h 459.334 v 2.896 h 10e-4 c 0.001,50.817 -41.342,92.16 -92.159,92.16 z"
   id="path332"
   sodipodi:nodetypes="sccccccccccccccccccccccsssssscscccsccsccscccccssccsccsccssccccsccsccscccsccsccccccccccccccscccccccccccsssccccs"
   style="fill:#008000;fill-opacity:1" />

	</g>

</g>
      <g
         id="g342">
	<g
   id="g340">
		<path
   d="M 311.448,411.159 H 58.254 c -5.633,0 -10.199,4.567 -10.199,10.199 0,5.632 4.566,10.199 10.199,10.199 h 253.194 c 5.633,0 10.199,-4.567 10.199,-10.199 0,-5.631 -4.566,-10.199 -10.199,-10.199 z"
   id="path338" />

	</g>

</g>
      <g
         id="g348">
	<g
   id="g346">
		<path
   d="m 393.155,411.159 h -33.288 c -5.633,0 -10.199,4.567 -10.199,10.199 0,5.632 4.566,10.199 10.199,10.199 h 33.288 c 5.633,0 10.199,-4.567 10.199,-10.199 0,-5.631 -4.566,-10.199 -10.199,-10.199 z"
   id="path344" />

	</g>

</g>
      <g
         id="g354">
	<g
   id="g352">
		<path
   d="m 234.063,295.65 c -4.8,-2.943 -11.08,-1.44 -14.026,3.362 -15.93,25.973 -23.892,50.621 -24.223,51.657 -1.713,5.364 1.244,11.097 6.607,12.813 1.034,0.33 2.081,0.489 3.111,0.489 4.314,0 8.324,-2.761 9.712,-7.088 0.074,-0.232 7.598,-23.429 22.182,-47.205 2.944,-4.802 1.438,-11.082 -3.363,-14.028 z"
   id="path350" />

	</g>

</g>
      <g
         id="g356">
</g>
      <g
         id="g358">
</g>
      <g
         id="g360">
</g>
      <g
         id="g362">
</g>
      <g
         id="g364">
</g>
      <g
         id="g366">
</g>
      <g
         id="g368">
</g>
      <g
         id="g370">
</g>
      <g
         id="g372">
</g>
      <g
         id="g374">
</g>
      <g
         id="g376">
</g>
      <g
         id="g378">
</g>
      <g
         id="g380">
</g>
      <g
         id="g382">
</g>
      <g
         id="g384">
</g>
    </g>
  </g>
  <g
     inkscape:groupmode="layer"
     id="layer2"
     inkscape:label="Bonsai"
     style="display:inline">
    <g
       id="g214"
       transform="scale(0.26458333)">
      <g
         id="g132">
	<g
   id="g130">
		<path
   d="M 495.867,376.148 H 320.65 c -2.524,-7.084 -6.695,-19.752 -10.087,-34.743 0.924,-5.746 5.511,-18.383 26.467,-35.147 23.121,-18.497 42.836,-21.813 52.528,-22.143 l 63.95,0.056 c 0.008,0 0.017,0 0.026,0 17.054,0 30.929,-13.875 30.929,-30.929 0,-16.115 -12.39,-29.391 -28.144,-30.804 -5.744,-7.799 -14.912,-12.562 -24.897,-12.562 -0.619,0 -1.237,0.019 -1.854,0.056 -5.616,-4.478 -12.616,-6.966 -19.912,-6.966 -14.226,0 -26.3,9.138 -30.439,22.143 -6.773,3.115 -12.265,8.632 -15.355,15.41 -14.058,2.618 -31.588,7.047 -49.443,14.515 2.251,-3.713 4.898,-6.96 7.932,-9.725 44.911,-40.918 53.648,-52.266 44.116,-79.503 -4.375,-12.5 -16.145,-35.772 -25.201,-53.008 h 10.394 c 22.992,0 41.698,-18.706 41.698,-41.698 0,-17.396 -10.844,-32.758 -26.619,-38.881 C 361.857,13.429 344.953,0 324.885,0 c -10.57,0 -20.682,3.858 -28.529,10.747 -1.507,-0.164 -3.024,-0.247 -4.545,-0.247 -14.289,0 -27.337,7.235 -34.941,18.921 -22.374,0.711 -40.356,19.134 -40.356,41.677 0,22.992 18.705,41.698 41.698,41.698 h 18.83 c 1.035,4.148 2.376,8.889 3.828,14.017 3.46,12.223 7.765,27.434 8.289,36.874 0.124,2.242 -0.843,9.042 -12.494,23.738 -8.278,10.442 -18.905,21.039 -26.665,28.777 l -2.254,2.249 c -7.309,7.309 -11.825,12.238 -21.157,23.25 -6.618,-2.21 -17.585,-8.397 -31.252,-25.48 -15.093,-18.866 -20.031,-35.487 -21.548,-45.927 h 4.289 c 20.76,0 37.651,-16.89 37.651,-37.65 0,-20.127 -15.873,-36.616 -35.759,-37.604 -6.916,-10.219 -18.504,-16.518 -31.173,-16.518 -1.18,0 -2.359,0.056 -3.531,0.165 -7.013,-5.976 -15.955,-9.316 -25.293,-9.316 -17.868,0 -32.955,11.808 -37.571,28.413 -13.906,5.687 -23.414,19.383 -23.414,34.86 0,20.76 16.89,37.65 37.651,37.65 h 30.103 c 2.753,25.33 12.527,78.14 46.983,116.602 3.696,4.126 7.288,7.561 10.83,10.348 -17.91,31.651 -25.4,63.844 -28.138,78.903 H 16.133 c -5.633,0 -10.199,4.567 -10.199,10.199 v 13.095 C 5.934,461.507 56.427,512 118.492,512 h 275.015 c 62.065,0 112.558,-50.494 112.558,-112.558 v -13.095 c 10e-4,-5.632 -4.565,-10.199 -10.198,-10.199 z M 381.684,251.307 c 0.774,-4.192 4.102,-7.566 8.283,-8.393 4.434,-0.878 7.76,-4.568 8.175,-9.07 0.551,-5.976 5.5,-10.482 11.513,-10.482 3.369,0 6.566,1.471 8.773,4.037 2.541,2.954 6.54,4.202 10.312,3.217 0.872,-0.228 1.775,-0.344 2.681,-0.344 4.243,0 8.053,2.525 9.707,6.434 1.807,4.272 6.272,6.784 10.864,6.118 6.435,-0.942 12.071,4.104 12.071,10.416 0,5.803 -4.719,10.527 -10.523,10.531 l -63.269,-0.16 c -5.033,-0.841 -8.768,-5.215 -8.768,-10.371 0.001,-0.636 0.061,-1.285 0.181,-1.933 z M 258.212,92.398 c -11.744,0 -21.3,-9.555 -21.3,-21.3 0,-11.745 9.556,-21.3 21.3,-21.3 1.02,0 2.066,0.076 3.111,0.229 4.595,0.668 9.052,-1.848 10.859,-6.12 3.343,-7.902 11.049,-13.009 19.629,-13.009 1.833,0 3.653,0.234 5.411,0.694 3.773,0.988 7.775,-0.261 10.315,-3.216 4.36,-5.07 10.684,-7.978 17.348,-7.978 11.892,0 21.681,8.916 22.771,20.74 0.414,4.5 3.741,8.191 8.175,9.07 9.926,1.966 17.13,10.751 17.13,20.889 0,11.745 -9.556,21.3 -21.3,21.3 H 258.212 Z M 96.637,149.894 v 0.002 c -9.513,0 -17.253,-7.739 -17.253,-17.252 0,-8.212 5.834,-15.327 13.872,-16.919 4.434,-0.878 7.76,-4.568 8.175,-9.07 0.886,-9.626 8.857,-16.886 18.54,-16.886 5.426,0 10.573,2.367 14.124,6.496 2.542,2.956 6.545,4.205 10.318,3.217 1.426,-0.373 2.901,-0.563 4.384,-0.563 6.95,0 13.192,4.137 15.9,10.539 1.807,4.271 6.27,6.787 10.859,6.118 10.646,-1.547 19.776,6.729 19.775,17.066 0,9.513 -7.739,17.252 -17.253,17.252 z m 110.359,149.559 c 1.56,-2.466 1.99,-5.483 1.179,-8.287 -0.811,-2.804 -2.783,-5.126 -5.42,-6.38 -4.085,-1.941 -8.741,-5.81 -13.839,-11.502 -29.729,-33.184 -38.87,-80.468 -41.619,-102.991 h 5.971 c 1.496,13.113 7.094,34.863 26.14,58.67 20.855,26.07 38.676,32.957 49.954,34.145 3.363,0.347 6.694,-0.987 8.873,-3.579 11.692,-13.905 16.167,-18.887 23.935,-26.655 l 2.233,-2.23 c 23.447,-23.381 46.245,-47.896 45.123,-68.091 -0.65,-11.692 -5.101,-27.422 -9.028,-41.298 -0.829,-2.928 -1.641,-5.798 -2.367,-8.462 h 20.049 c 8.025,15.014 24.169,45.84 29.036,59.747 4.827,13.794 5.975,17.071 -38.601,57.687 -11.437,10.421 -18.886,24.986 -22.138,43.292 -0.697,3.919 0.952,7.886 4.22,10.158 3.27,2.273 7.563,2.436 10.993,0.416 20.384,-11.993 42.556,-18.681 60.218,-22.397 0.635,2.264 1.523,4.428 2.631,6.457 -11.604,3.706 -25.491,10.363 -40.251,22.173 -26.566,21.252 -33.273,39.331 -34.221,50.756 -0.085,1.016 -0.016,2.038 0.203,3.033 2.766,12.583 6.047,23.641 8.71,31.736 H 177.266 c 3.318,-16.346 11.547,-47.667 29.73,-76.398 z M 393.508,491.602 H 118.492 c -50.818,0 -92.16,-41.342 -92.16,-92.16 v -2.896 h 459.334 v 2.896 h 10e-4 c 0.001,50.817 -41.342,92.16 -92.159,92.16 z"
   id="path128" />

	</g>

</g>
      <g
         id="g138">
	<g
   id="g136">
		<path
   d="M 311.448,411.159 H 58.254 c -5.633,0 -10.199,4.567 -10.199,10.199 0,5.632 4.566,10.199 10.199,10.199 h 253.194 c 5.633,0 10.199,-4.567 10.199,-10.199 0,-5.631 -4.566,-10.199 -10.199,-10.199 z"
   id="path134" />

	</g>

</g>
      <g
         id="g144">
	<g
   id="g142">
		<path
   d="m 393.155,411.159 h -33.288 c -5.633,0 -10.199,4.567 -10.199,10.199 0,5.632 4.566,10.199 10.199,10.199 h 33.288 c 5.633,0 10.199,-4.567 10.199,-10.199 0,-5.631 -4.566,-10.199 -10.199,-10.199 z"
   id="path140" />

	</g>

</g>
      <g
         id="g150">
	<g
   id="g148">
		<path
   d="m 234.063,295.65 c -4.8,-2.943 -11.08,-1.44 -14.026,3.362 -15.93,25.973 -23.892,50.621 -24.223,51.657 -1.713,5.364 1.244,11.097 6.607,12.813 1.034,0.33 2.081,0.489 3.111,0.489 4.314,0 8.324,-2.761 9.712,-7.088 0.074,-0.232 7.598,-23.429 22.182,-47.205 2.944,-4.802 1.438,-11.082 -3.363,-14.028 z"
   id="path146" />

	</g>

</g>
      <g
         id="g152">
</g>
      <g
         id="g154">
</g>
      <g
         id="g156">
</g>
      <g
         id="g158">
</g>
      <g
         id="g160">
</g>
      <g
         id="g162">
</g>
      <g
         id="g164">
</g>
      <g
         id="g166">
</g>
      <g
         id="g168">
</g>
      <g
         id="g170">
</g>
      <g
         id="g172">
</g>
      <g
         id="g174">
</g>
      <g
         id="g176">
</g>
      <g
         id="g178">
</g>
      <g
         id="g180">
</g>
    </g>
  </g>
</svg>
