<?xml version="1.0" encoding="UTF-8" standalone="no"?>
<!-- Created with Inkscape (http://www.inkscape.org/) -->

<svg
   width="485.755"
   height="485.755"
   viewBox="0 0 128.52268 128.52268"
   version="1.1"
   id="svg58"
   inkscape:version="1.1.2 (b8e25be833, 2022-02-05)"
   sodipodi:docname="bush_color.svg"
   xmlns:inkscape="http://www.inkscape.org/namespaces/inkscape"
   xmlns:sodipodi="http://sodipodi.sourceforge.net/DTD/sodipodi-0.dtd"
   xmlns="http://www.w3.org/2000/svg"
   xmlns:svg="http://www.w3.org/2000/svg">
  <sodipodi:namedview
     id="namedview60"
     pagecolor="#ffffff"
     bordercolor="#666666"
     borderopacity="1.0"
     inkscape:pageshadow="2"
     inkscape:pageopacity="0.0"
     inkscape:pagecheckerboard="true"
     inkscape:document-units="px"
     showgrid="false"
     units="px"
     inkscape:zoom="1.1575153"
     inkscape:cx="325.26567"
     inkscape:cy="228.50669"
     inkscape:window-width="1920"
     inkscape:window-height="1001"
     inkscape:window-x="-9"
     inkscape:window-y="-9"
     inkscape:window-maximized="1"
     inkscape:current-layer="g348" />
  <defs
     id="defs55" />
  <g
     inkscape:label="Layer 1"
     inkscape:groupmode="layer"
     id="layer1" />
  <g
     inkscape:groupmode="layer"
     id="g296"
     inkscape:label="Bush copy">
    <g
       id="g294"
       transform="scale(0.26458334)">
      <g
         id="g262">
	<g
   id="g260">
		<g
   id="g258">
			<rect
   x="187.87801"
   y="435.75601"
   width="20"
   height="20"
   id="rect246" />

			<rect
   x="207.87801"
   y="405.75601"
   width="20"
   height="20"
   id="rect248" />

			<rect
   x="237.87801"
   y="435.75601"
   width="20"
   height="20"
   id="rect250" />

			<rect
   x="257.87799"
   y="405.75601"
   width="20"
   height="20"
   id="rect252" />

			<rect
   x="277.87799"
   y="435.75601"
   width="20"
   height="20"
   id="rect254" />

			<path
   d="m 252.878,293.161 c 10.998,10.161 26.852,19.624 47.764,19.624 25.112,0 51.795,-13.95 79.308,-41.462 3.905,-3.905 3.905,-10.237 0,-14.143 -27.513,-27.512 -54.195,-41.462 -79.308,-41.462 -20.91,0 -36.765,9.465 -47.764,19.627 V 90.83 c 13.956,14.61 35.703,29.921 65.568,29.925 h 0.011 c 31.989,0 66.138,-17.943 101.495,-53.331 3.902,-3.906 3.901,-10.235 -0.003,-14.14 C 384.592,17.927 350.441,0 318.448,0 280.109,0 255.149,25.202 242.878,41.779 230.606,25.202 205.647,0 167.307,0 135.314,0 101.163,17.927 65.806,53.284 c -3.904,3.904 -3.905,10.233 -0.003,14.14 35.357,35.388 69.509,53.331 101.504,53.331 29.866,0 51.614,-15.312 65.57,-29.922 v 94.534 c -10.998,-10.15 -26.852,-19.605 -47.764,-19.605 -25.11,0 -51.792,13.934 -79.304,41.414 -1.877,1.875 -2.932,4.419 -2.933,7.072 -0.001,2.653 1.053,5.198 2.929,7.074 27.513,27.512 54.195,41.462 79.308,41.462 20.91,0 36.765,-9.465 47.764,-19.627 z m 9.472,-38.909 c 8.193,-8.873 21.063,-18.533 38.292,-18.533 17.551,0 36.951,9.591 57.764,28.533 -20.813,18.942 -40.213,28.533 -57.764,28.533 -17.234,0 -30.107,-9.664 -38.296,-18.533 h 72.036 v -20 z M 261.64,50.355 C 272.266,37.249 291.385,20 318.448,20 c 24.433,0 51.33,13.57 80.047,40.358 -28.719,26.815 -55.609,40.397 -80.038,40.396 h -0.008 C 291.378,100.75 272.251,83.468 261.63,70.355 h 100.848 v -20 H 261.64 Z m -94.333,50.4 C 142.874,100.755 115.978,87.174 87.26,60.359 115.978,33.57 142.875,20 167.307,20 c 27.068,0 46.189,17.254 56.811,30.355 h -100.84 v 20 h 100.925 c -10.563,13.116 -29.647,30.4 -56.896,30.4 z m 17.807,142.03 c -17.55,0 -36.948,-9.589 -57.76,-28.529 20.811,-18.916 40.209,-28.493 57.76,-28.493 17.223,0 30.088,9.637 38.278,18.489 h -72.018 v 20 h 72.032 c -8.192,8.873 -21.063,18.533 -38.292,18.533 z m -31.677,222.971 c 4.99,-44.937 43.195,-80 89.441,-80 46.246,0 84.451,35.063 89.441,80 z"
   id="path256"
   sodipodi:nodetypes="csccsccssccscsscsccscscscccscsccccsscssccccsscsccccsscsccccscscc"
   style="fill:#803300" />

		</g>

	</g>

</g>
      <g
         id="g264">
</g>
      <g
         id="g266">
</g>
      <g
         id="g268">
</g>
      <g
         id="g270">
</g>
      <g
         id="g272">
</g>
      <g
         id="g274">
</g>
      <g
         id="g276">
</g>
      <g
         id="g278">
</g>
      <g
         id="g280">
</g>
      <g
         id="g282">
</g>
      <g
         id="g284">
</g>
      <g
         id="g286">
</g>
      <g
         id="g288">
</g>
      <g
         id="g290">
</g>
      <g
         id="g292">
</g>
    </g>
  </g>
  <g
     inkscape:groupmode="layer"
     id="g348"
     inkscape:label="Bush copy copy"
     style="display:inline">
    <g
       id="g346"
       transform="scale(0.26458334)">
      <g
         id="g314">
	<g
   id="g312">
		<g
   id="g310">
			<rect
   x="187.87801"
   y="435.75601"
   width="20"
   height="20"
   id="rect298" />

			<rect
   x="207.87801"
   y="405.75601"
   width="20"
   height="20"
   id="rect300" />

			<rect
   x="237.87801"
   y="435.75601"
   width="20"
   height="20"
   id="rect302" />

			<rect
   x="257.87799"
   y="405.75601"
   width="20"
   height="20"
   id="rect304" />

			<rect
   x="277.87799"
   y="435.75601"
   width="20"
   height="20"
   id="rect306" />

			<path
   d="m 352.419,465.755 v 0 c -4.771,-52.688 -46.852,-94.769 -99.541,-99.54 l -20.001,-10e-4 c -52.689,4.771 -94.77,46.852 -99.541,99.541 H 32.877 v 20 h 420 v -20 z M 262.35,254.252 c 8.193,-8.873 21.063,-18.533 38.292,-18.533 17.551,0 36.951,9.591 57.764,28.533 -20.813,18.942 -40.213,28.533 -57.764,28.533 -17.234,0 -30.107,-9.664 -38.296,-18.533 h 72.036 v -20 z M 261.64,50.355 C 272.266,37.249 291.385,20 318.448,20 c 24.433,0 51.33,13.57 80.047,40.358 -28.719,26.815 -55.609,40.397 -80.038,40.396 h -0.008 C 291.378,100.75 272.251,83.468 261.63,70.355 h 100.848 v -20 H 261.64 Z m -94.333,50.4 C 142.874,100.755 115.978,87.174 87.26,60.359 115.978,33.57 142.875,20 167.307,20 c 27.068,0 46.189,17.254 56.811,30.355 h -100.84 v 20 h 100.925 c -10.563,13.116 -29.647,30.4 -56.896,30.4 z m 17.807,142.03 c -17.55,0 -36.948,-9.589 -57.76,-28.529 20.811,-18.916 40.209,-28.493 57.76,-28.493 17.223,0 30.088,9.637 38.278,18.489 h -72.018 v 20 h 72.032 c -8.192,8.873 -21.063,18.533 -38.292,18.533 z m -31.677,222.971 c 4.99,-44.937 43.195,-80 89.441,-80 46.246,0 84.451,35.063 89.441,80 z"
   id="path308"
   style="fill:#5aa02c"
   sodipodi:nodetypes="cscccccccccscsccccsscssccccsscsccccsscsccccscscc" />

		</g>

	</g>

</g>
      <g
         id="g316">
</g>
      <g
         id="g318">
</g>
      <g
         id="g320">
</g>
      <g
         id="g322">
</g>
      <g
         id="g324">
</g>
      <g
         id="g326">
</g>
      <g
         id="g328">
</g>
      <g
         id="g330">
</g>
      <g
         id="g332">
</g>
      <g
         id="g334">
</g>
      <g
         id="g336">
</g>
      <g
         id="g338">
</g>
      <g
         id="g340">
</g>
      <g
         id="g342">
</g>
      <g
         id="g344">
</g>
    </g>
  </g>
  <g
     inkscape:groupmode="layer"
     id="layer2"
     inkscape:label="Bush"
     style="display:inline">
    <g
       id="g244"
       transform="scale(0.26458334)">
      <g
         id="g183">
	<g
   id="g181">
		<g
   id="g179">
			<rect
   x="187.87801"
   y="435.75601"
   width="20"
   height="20"
   id="rect167" />

			<rect
   x="207.87801"
   y="405.75601"
   width="20"
   height="20"
   id="rect169" />

			<rect
   x="237.87801"
   y="435.75601"
   width="20"
   height="20"
   id="rect171" />

			<rect
   x="257.87799"
   y="405.75601"
   width="20"
   height="20"
   id="rect173" />

			<rect
   x="277.87799"
   y="435.75601"
   width="20"
   height="20"
   id="rect175" />

			<path
   d="m 352.419,465.755 v 0 c -4.771,-52.688 -46.852,-94.769 -99.541,-99.54 v -73.054 c 10.998,10.161 26.852,19.624 47.764,19.624 25.112,0 51.795,-13.95 79.308,-41.462 3.905,-3.905 3.905,-10.237 0,-14.143 -27.513,-27.512 -54.195,-41.462 -79.308,-41.462 -20.91,0 -36.765,9.465 -47.764,19.627 V 90.83 c 13.956,14.61 35.703,29.921 65.568,29.925 0.004,0 0.007,0 0.011,0 31.989,0 66.138,-17.943 101.495,-53.331 3.902,-3.906 3.901,-10.235 -0.003,-14.14 C 384.592,17.927 350.441,0 318.448,0 280.109,0 255.149,25.202 242.878,41.779 230.606,25.202 205.647,0 167.307,0 135.314,0 101.163,17.927 65.806,53.284 c -3.904,3.904 -3.905,10.233 -0.003,14.14 35.357,35.388 69.509,53.331 101.504,53.331 29.866,0 51.614,-15.312 65.57,-29.922 v 94.534 c -10.998,-10.15 -26.852,-19.605 -47.764,-19.605 -25.11,0 -51.792,13.934 -79.304,41.414 -1.877,1.875 -2.932,4.419 -2.933,7.072 -0.001,2.653 1.053,5.198 2.929,7.074 27.513,27.512 54.195,41.462 79.308,41.462 20.91,0 36.765,-9.465 47.764,-19.627 v 123.057 c -52.689,4.771 -94.77,46.852 -99.541,99.541 H 32.877 v 20 h 420 v -20 z M 262.35,254.252 c 8.193,-8.873 21.063,-18.533 38.292,-18.533 17.551,0 36.951,9.591 57.764,28.533 -20.813,18.942 -40.213,28.533 -57.764,28.533 -17.234,0 -30.107,-9.664 -38.296,-18.533 h 72.036 v -20 z M 261.64,50.355 C 272.266,37.249 291.385,20 318.448,20 c 24.433,0 51.33,13.57 80.047,40.358 -28.719,26.815 -55.609,40.397 -80.038,40.396 -10e-4,0 -0.006,0 -0.008,0 C 291.378,100.75 272.251,83.468 261.63,70.355 h 100.848 v -20 H 261.64 Z m -94.333,50.4 C 142.874,100.755 115.978,87.174 87.26,60.359 115.978,33.57 142.875,20 167.307,20 c 27.068,0 46.189,17.254 56.811,30.355 h -100.84 v 20 h 100.925 c -10.563,13.116 -29.647,30.4 -56.896,30.4 z m 17.807,142.03 c -17.55,0 -36.948,-9.589 -57.76,-28.529 20.811,-18.916 40.209,-28.493 57.76,-28.493 17.223,0 30.088,9.637 38.278,18.489 h -72.018 v 20 h 72.032 c -8.192,8.873 -21.063,18.533 -38.292,18.533 z m -31.677,222.971 c 4.99,-44.937 43.195,-80 89.441,-80 46.246,0 84.451,35.063 89.441,80 z"
   id="path177" />

		</g>

	</g>

</g>
      <g
         id="g185">
</g>
      <g
         id="g187">
</g>
      <g
         id="g189">
</g>
      <g
         id="g191">
</g>
      <g
         id="g193">
</g>
      <g
         id="g195">
</g>
      <g
         id="g197">
</g>
      <g
         id="g199">
</g>
      <g
         id="g201">
</g>
      <g
         id="g203">
</g>
      <g
         id="g205">
</g>
      <g
         id="g207">
</g>
      <g
         id="g209">
</g>
      <g
         id="g211">
</g>
      <g
         id="g213">
</g>
    </g>
  </g>
</svg>
