<svg width="485.755" height="485.755" viewBox="0 0 128.523 128.523" xmlns="http://www.w3.org/2000/svg"><path d="M49.71 115.294H55v5.291H49.71zM55.001 107.356h5.292v5.292H55zM62.939 115.294h5.291v5.291H62.94zM68.23 107.356h5.292v5.292H68.23zM73.522 115.294h5.292v5.291h-5.292z"/><path d="M66.907 77.566c2.91 2.688 7.105 5.192 12.638 5.192 6.644 0 13.704-3.691 20.983-10.97a2.646 2.646 0 0 0 0-3.742c-7.279-7.28-14.339-10.97-20.983-10.97-5.533 0-9.728 2.504-12.638 5.192V24.032c3.693 3.866 9.447 7.917 17.349 7.918h.002c8.464 0 17.5-4.748 26.854-14.11a2.646 2.646 0 0 0 0-3.742C101.757 4.743 92.72 0 84.256 0 74.112 0 67.508 6.668 64.261 11.054 61.015 6.668 54.411 0 44.267 0 35.802 0 26.766 4.743 17.41 14.098a2.646 2.646 0 0 0 0 3.741c9.354 9.363 18.39 14.11 26.856 14.11 7.902 0 13.656-4.05 17.348-7.916v25.012c-2.91-2.686-7.104-5.187-12.637-5.187-6.644 0-13.703 3.687-20.983 10.957a2.646 2.646 0 0 0 0 3.743c7.279 7.28 14.338 10.97 20.983 10.97 5.532 0 9.727-2.504 12.637-5.193zm2.506-10.295c2.168-2.348 5.573-4.904 10.132-4.904 4.644 0 9.776 2.538 15.283 7.55-5.507 5.011-10.64 7.549-15.283 7.549-4.56 0-7.966-2.557-10.133-4.903h19.06V67.27zm-.187-53.948c2.811-3.468 7.87-8.031 15.03-8.031 6.465 0 13.581 3.59 21.18 10.678-7.6 7.095-14.714 10.688-21.178 10.688h-.002c-7.162-.001-12.223-4.574-15.033-8.043h26.683v-5.292h-26.68Zm-24.96 13.335c-6.464 0-13.58-3.593-21.178-10.688C30.686 8.882 37.802 5.292 44.267 5.292c7.161 0 12.22 4.565 15.03 8.031h-26.68v5.292H59.32c-2.794 3.47-7.844 8.043-15.053 8.043zm4.712 37.579c-4.643 0-9.776-2.537-15.282-7.548 5.506-5.005 10.638-7.54 15.282-7.54 4.557 0 7.96 2.55 10.128 4.893H40.05v5.291H59.11c-2.168 2.348-5.573 4.904-10.132 4.904zm-8.381 58.994c1.32-11.89 11.429-21.166 23.664-21.166 12.236 0 22.345 9.277 23.665 21.166z" fill="#803300"/><g><path d="M49.71 115.294H55v5.291H49.71zM55.001 107.356h5.292v5.292H55zM62.939 115.294h5.291v5.291H62.94zM68.23 107.356h5.292v5.292H68.23zM73.522 115.294h5.292v5.291h-5.292z"/><path d="M93.244 123.231c-1.262-13.94-12.396-25.074-26.337-26.337h-5.292c-13.94 1.262-25.074 12.396-26.337 26.337H8.698v5.292h111.126v-5.292zm-23.83-55.96c2.167-2.348 5.572-4.904 10.13-4.904 4.645 0 9.777 2.538 15.284 7.55-5.507 5.011-10.64 7.549-15.283 7.549-4.56 0-7.966-2.557-10.133-4.903h19.06V67.27zm-.188-53.948c2.811-3.468 7.87-8.031 15.03-8.031 6.465 0 13.581 3.59 21.18 10.678-7.6 7.095-14.714 10.688-21.178 10.688h-.002c-7.162-.001-12.223-4.574-15.033-8.043h26.683v-5.292h-26.68Zm-24.96 13.335c-6.464 0-13.58-3.593-21.178-10.688C30.686 8.882 37.802 5.292 44.267 5.292c7.161 0 12.22 4.565 15.03 8.031h-26.68v5.292H59.32c-2.794 3.47-7.844 8.043-15.053 8.043zm4.712 37.579c-4.643 0-9.776-2.537-15.282-7.548 5.506-5.005 10.638-7.54 15.282-7.54 4.557 0 7.96 2.55 10.128 4.893H40.05v5.291H59.11c-2.168 2.348-5.573 4.904-10.132 4.904zm-8.381 58.994c1.32-11.89 11.429-21.166 23.664-21.166 12.236 0 22.345 9.277 23.665 21.166z" fill="#5aa02c"/></g><g><path d="M49.71 115.294H55v5.291H49.71zM55.001 107.356h5.292v5.292H55zM62.939 115.294h5.291v5.291H62.94zM68.23 107.356h5.292v5.292H68.23zM73.522 115.294h5.292v5.291h-5.292z"/><path d="M93.244 123.231c-1.262-13.94-12.396-25.074-26.337-26.337V77.566c2.91 2.688 7.105 5.192 12.638 5.192 6.644 0 13.704-3.691 20.983-10.97a2.646 2.646 0 0 0 0-3.742c-7.279-7.28-14.339-10.97-20.983-10.97-5.533 0-9.728 2.504-12.638 5.192V24.032c3.693 3.866 9.447 7.917 17.349 7.918h.002c8.464 0 17.5-4.748 26.854-14.11a2.646 2.646 0 0 0 0-3.742C101.757 4.743 92.72 0 84.256 0 74.112 0 67.508 6.668 64.261 11.054 61.015 6.668 54.411 0 44.267 0 35.802 0 26.766 4.743 17.41 14.098a2.646 2.646 0 0 0 0 3.741c9.354 9.363 18.39 14.11 26.856 14.11 7.902 0 13.656-4.05 17.348-7.916v25.012c-2.91-2.686-7.104-5.187-12.637-5.187-6.644 0-13.703 3.687-20.983 10.957a2.646 2.646 0 0 0 0 3.743c7.279 7.28 14.338 10.97 20.983 10.97 5.532 0 9.727-2.504 12.637-5.193v32.56c-13.94 1.261-25.074 12.395-26.337 26.336H8.698v5.292h111.126v-5.292zm-23.83-55.96c2.167-2.348 5.572-4.904 10.13-4.904 4.645 0 9.777 2.538 15.284 7.55-5.507 5.011-10.64 7.549-15.283 7.549-4.56 0-7.966-2.557-10.133-4.903h19.06V67.27zm-.188-53.948c2.811-3.468 7.87-8.031 15.03-8.031 6.465 0 13.581 3.59 21.18 10.678-7.6 7.095-14.714 10.688-21.178 10.688h-.002c-7.162-.001-12.223-4.574-15.033-8.043h26.683v-5.292h-26.68Zm-24.96 13.335c-6.464 0-13.58-3.593-21.178-10.688C30.686 8.882 37.802 5.292 44.267 5.292c7.161 0 12.22 4.565 15.03 8.031h-26.68v5.292H59.32c-2.794 3.47-7.844 8.043-15.053 8.043zm4.712 37.579c-4.643 0-9.776-2.537-15.282-7.548 5.506-5.005 10.638-7.54 15.282-7.54 4.557 0 7.96 2.55 10.128 4.893H40.05v5.291H59.11c-2.168 2.348-5.573 4.904-10.132 4.904zm-8.381 58.994c1.32-11.89 11.429-21.166 23.664-21.166 12.236 0 22.345 9.277 23.665 21.166z"/></g></svg>