<svg width="500" height="500" viewBox="0 0 132.292 132.292" xmlns="http://www.w3.org/2000/svg"><g fill="#996632"><path d="M9.769 98.69v-8.467h114.3v8.467H16.119zM18.236 102.923h10.583v8.467H18.236zM105.019 102.923h10.583v8.467H105.02z"/></g><path d="M28.819 111.39v-8.467H18.236v8.467zm86.783 0v-8.467H105.02v8.467zm8.467-12.7v-8.467H9.769v8.467H117.719zm2.117-12.7c1.058 0 2.116 1.058 2.116 2.116v12.7c0 1.059-1.058 2.117-2.116 2.117h-6.35v10.583c0 1.059-1.059 2.117-2.117 2.117h-14.817c-1.058 0-2.116-1.058-2.116-2.117v-10.583H33.052v10.583c0 1.059-.846 2.117-2.116 2.117H16.119c-1.27 0-2.117-1.058-2.117-2.117v-10.583h-6.35c-1.058 0-2.116-1.058-2.116-2.117v-12.7c0-1.058 1.058-2.116 2.116-2.116h118.534z" fill="#28170b"/><path d="M11.886 90.223v2.328c0 2.117 1.905 4.022 4.021 4.022H117.72c2.328 0 4.022-1.905 4.022-4.022v-2.328h2.116v8.467H9.77v-8.467z" fill="#875426"/><g><path d="M49.248 53.658c.096-.52.508-.939 1.027-1.041.55-.11.962-.567 1.014-1.125a1.434 1.434 0 0 1 2.516-.8c.315.367.81.522 1.279.4a1.305 1.305 0 0 1 1.536.755c.224.53.778.841 1.347.758a1.31 1.31 0 0 1 1.498 1.292c0 .72-.586 1.306-1.306 1.306l-7.846-.02a1.304 1.304 0 0 1-1.065-1.525zM33.934 33.949a2.645 2.645 0 0 1-2.641-2.642 2.645 2.645 0 0 1 3.027-2.613c.57.083 1.123-.23 1.347-.759a2.639 2.639 0 0 1 3.105-1.527c.468.122.965-.033 1.28-.4a2.836 2.836 0 0 1 2.151-.989 2.821 2.821 0 0 1 2.824 2.573 1.265 1.265 0 0 0 1.014 1.125 2.646 2.646 0 0 1 2.125 2.59 2.645 2.645 0 0 1-2.642 2.642h-11.59ZM13.895 41.08c-1.18 0-2.14-.96-2.14-2.14 0-1.018.724-1.9 1.72-2.098.55-.109.963-.566 1.015-1.125a2.297 2.297 0 0 1 2.3-2.094c.672 0 1.31.294 1.75.806.316.366.813.521 1.28.399a2.137 2.137 0 0 1 2.516 1.237c.224.53.778.842 1.347.759a2.139 2.139 0 1 1 .313 4.256zm13.687 18.549a1.265 1.265 0 0 0-.526-1.82c-.506-.24-1.084-.72-1.716-1.426-3.687-4.115-4.82-9.98-5.162-12.773h.74c.186 1.626.88 4.324 3.243 7.276 2.586 3.234 4.796 4.088 6.195 4.235.417.043.83-.122 1.1-.444 1.45-1.724 2.006-2.342 2.97-3.306l.276-.276c2.908-2.9 5.736-5.94 5.596-8.445-.08-1.45-.632-3.401-1.12-5.122-.102-.363-.203-.719-.293-1.05h2.487c.995 1.863 2.997 5.686 3.6 7.41.6 1.711.742 2.118-4.787 7.155-1.418 1.293-2.342 3.099-2.745 5.37a1.265 1.265 0 0 0 1.887 1.31c2.528-1.487 5.277-2.316 7.468-2.777.079.28.189.55.326.8-1.439.46-3.161 1.286-4.992 2.75-3.295 2.637-4.126 4.879-4.244 6.296a1.26 1.26 0 0 0 .025.376c.343 1.56.75 2.932 1.08 3.936H23.895c.412-2.027 1.432-5.912 3.687-9.475zm23.132 23.83H16.606c-6.303 0-11.43-5.127-11.43-11.43v-.358h56.968v.359c0 6.302-5.127 11.43-11.43 11.43z" fill="#a40"/><path d="M40.537 73.483H9.135a1.265 1.265 0 0 0 0 2.53h31.402a1.265 1.265 0 0 0 0-2.53zM50.67 73.483h-4.128a1.265 1.265 0 0 0 0 2.53h4.128a1.265 1.265 0 0 0 0-2.53zM30.94 59.157a1.265 1.265 0 0 0-1.74.417c-1.976 3.221-2.964 6.278-3.005 6.407a1.264 1.264 0 0 0 2.41.77c.01-.028.943-2.905 2.751-5.854a1.265 1.265 0 0 0-.417-1.74z"/><g><path d="M41.678 69.14c-.313-.878-.83-2.449-1.251-4.308.115-.713.683-2.28 3.282-4.36 2.868-2.293 5.313-2.705 6.515-2.745l7.932.006h.003a3.84 3.84 0 0 0 3.836-3.835 3.841 3.841 0 0 0-3.49-3.82 3.83 3.83 0 0 0-3.319-1.552 3.959 3.959 0 0 0-2.47-.864 3.943 3.943 0 0 0-3.774 2.746 3.887 3.887 0 0 0-1.905 1.912c-1.743.324-3.917.874-6.132 1.8.28-.46.608-.863.984-1.206 5.57-5.075 6.654-6.483 5.471-9.86-.542-1.55-2.002-4.437-3.125-6.575h1.289a5.177 5.177 0 0 0 5.171-5.171 5.186 5.186 0 0 0-3.3-4.823 5.337 5.337 0 0 0-5.192-3.995 5.36 5.36 0 0 0-3.538 1.332 5.162 5.162 0 0 0-4.897 2.316 5.178 5.178 0 0 0-5.005 5.17 5.177 5.177 0 0 0 5.171 5.17h2.336a60.4 60.4 0 0 0 .474 1.74c.43 1.515.963 3.402 1.028 4.573.016.278-.104 1.121-1.55 2.944-1.026 1.295-2.344 2.609-3.306 3.569l-.28.279c-.906.906-1.466 1.517-2.624 2.883-.82-.274-2.18-1.041-3.876-3.16-1.872-2.34-2.484-4.401-2.672-5.696h.532a4.675 4.675 0 0 0 4.67-4.67 4.675 4.675 0 0 0-4.436-4.663 4.661 4.661 0 0 0-4.304-2.028 4.834 4.834 0 0 0-3.137-1.156 4.813 4.813 0 0 0-4.66 3.524 4.683 4.683 0 0 0-2.903 4.324 4.675 4.675 0 0 0 4.67 4.669h3.733c.341 3.142 1.553 9.691 5.827 14.461.458.512.904.938 1.343 1.284-2.221 3.925-3.15 7.918-3.49 9.786zm7.57-15.482c.096-.52.508-.939 1.027-1.041.55-.11.962-.567 1.014-1.125a1.434 1.434 0 0 1 2.516-.8c.315.367.81.522 1.279.4a1.305 1.305 0 0 1 1.536.755c.224.53.778.841 1.347.758a1.31 1.31 0 0 1 1.498 1.292c0 .72-.586 1.306-1.306 1.306l-7.846-.02a1.304 1.304 0 0 1-1.065-1.525zM33.934 33.949a2.645 2.645 0 0 1-2.641-2.642 2.645 2.645 0 0 1 3.027-2.613c.57.083 1.123-.23 1.347-.759a2.639 2.639 0 0 1 3.105-1.527c.468.122.965-.033 1.28-.4a2.836 2.836 0 0 1 2.151-.989 2.821 2.821 0 0 1 2.824 2.573 1.265 1.265 0 0 0 1.014 1.125 2.646 2.646 0 0 1 2.125 2.59 2.645 2.645 0 0 1-2.642 2.642h-11.59ZM13.895 41.08c-1.18 0-2.14-.96-2.14-2.14 0-1.018.724-1.9 1.72-2.098.55-.109.963-.566 1.015-1.125a2.297 2.297 0 0 1 2.3-2.094c.672 0 1.31.294 1.75.806.316.366.813.521 1.28.399a2.137 2.137 0 0 1 2.516 1.237c.224.53.778.842 1.347.759a2.139 2.139 0 1 1 .313 4.256zm13.687 18.549a1.265 1.265 0 0 0-.526-1.82c-.506-.24-1.084-.72-1.716-1.426-3.687-4.115-4.82-9.98-5.162-12.773h.74c.186 1.626.88 4.324 3.243 7.276 2.586 3.234 4.796 4.088 6.195 4.235.417.043.83-.122 1.1-.444 1.45-1.724 2.006-2.342 2.97-3.306l.276-.276c2.908-2.9 5.736-5.94 5.596-8.445-.08-1.45-.632-3.401-1.12-5.122-.102-.363-.203-.719-.293-1.05h2.487c.995 1.863 2.997 5.686 3.6 7.41.6 1.711.742 2.118-4.787 7.155-1.418 1.293-2.342 3.099-2.745 5.37a1.265 1.265 0 0 0 1.887 1.31c2.528-1.487 5.277-2.316 7.468-2.777.079.28.189.55.326.8-1.439.46-3.161 1.286-4.992 2.75-3.295 2.637-4.126 4.879-4.244 6.296a1.26 1.26 0 0 0 .025.376c.343 1.56.75 2.932 1.08 3.936H23.895c.412-2.027 1.432-5.912 3.687-9.475zm23.132 23.83H16.606c-6.303 0-11.43-5.127-11.43-11.43v-.358h56.968v.359c0 6.302-5.127 11.43-11.43 11.43z" fill="#214478"/><path d="M40.537 73.483H9.135a1.265 1.265 0 0 0 0 2.53h31.402a1.265 1.265 0 0 0 0-2.53zM50.67 73.483h-4.128a1.265 1.265 0 0 0 0 2.53h4.128a1.265 1.265 0 0 0 0-2.53zM30.94 59.157a1.265 1.265 0 0 0-1.74.417c-1.976 3.221-2.964 6.278-3.005 6.407a1.264 1.264 0 0 0 2.41.77c.01-.028.943-2.905 2.751-5.854a1.265 1.265 0 0 0-.417-1.74z"/></g><g><path d="M63.409 69.14H41.678c-.313-.878-.83-2.449-1.251-4.308.115-.713.683-2.28 3.282-4.36 2.868-2.293 5.313-2.705 6.515-2.745l-3.187-5.407c-1.743.324-3.917.874-6.132 1.8.28-.46.608-.863.984-1.206 5.57-5.075 6.654-6.483 5.471-9.86-.542-1.55-2.002-4.437-3.125-6.575H36.27a60.4 60.4 0 0 0 .474 1.738c.43 1.516.963 3.403 1.028 4.574.016.278-.104 1.121-1.55 2.944-1.026 1.295-2.344 2.609-3.306 3.569l-.28.279c-.906.906-1.466 1.517-2.624 2.883-.82-.274-2.18-1.041-3.876-3.16-1.872-2.34-2.484-4.401-2.672-5.696h-5.835c.341 3.142 1.553 9.691 5.827 14.461.458.512.904.938 1.343 1.284-2.221 3.925-3.15 7.918-3.49 9.786H3.911c-.699 0-1.265.566-1.265 1.265v1.624c0 7.697 6.262 13.96 13.96 13.96h34.108c7.697 0 13.96-6.263 13.96-13.96v-1.624c0-.699-.566-1.265-1.265-1.265zM49.248 53.659c.096-.52.508-.939 1.027-1.041.55-.11.962-.567 1.014-1.125a1.434 1.434 0 0 1 2.516-.8c.315.367.81.522 1.279.4a1.305 1.305 0 0 1 1.536.755c.224.53.778.841 1.347.758a1.31 1.31 0 0 1 1.498 1.292c0 .72-.586 1.306-1.306 1.306l-7.846-.02a1.304 1.304 0 0 1-1.065-1.525zM33.934 33.949a2.645 2.645 0 0 1-2.641-2.642 2.645 2.645 0 0 1 3.027-2.613c.57.083 1.123-.23 1.347-.759a2.639 2.639 0 0 1 3.105-1.527c.468.122.965-.033 1.28-.4a2.836 2.836 0 0 1 2.151-.989 2.821 2.821 0 0 1 2.824 2.573 1.265 1.265 0 0 0 1.014 1.125 2.646 2.646 0 0 1 2.125 2.59 2.645 2.645 0 0 1-2.642 2.642h-11.59ZM13.895 41.08c-1.18 0-2.14-.96-2.14-2.14 0-1.018.724-1.9 1.72-2.098.55-.109.963-.566 1.015-1.125a2.297 2.297 0 0 1 2.3-2.094c.672 0 1.31.294 1.75.806.316.366.813.521 1.28.399a2.137 2.137 0 0 1 2.516 1.237c.224.53.778.842 1.347.759a2.139 2.139 0 1 1 .313 4.256zm13.687 18.549a1.265 1.265 0 0 0-.526-1.82c-.506-.24-1.084-.72-1.716-1.426-3.687-4.115-4.82-9.98-5.162-12.773h.74c.186 1.626.88 4.324 3.243 7.276 2.586 3.234 4.796 4.088 6.195 4.235.417.043.83-.122 1.1-.444 1.45-1.724 2.006-2.342 2.97-3.306l.276-.276c2.908-2.9 5.736-5.94 5.596-8.445-.08-1.45-.632-3.401-1.12-5.122-.102-.363-.203-.719-.293-1.05h2.487c.995 1.863 2.997 5.686 3.6 7.41.6 1.711.742 2.118-4.787 7.155-1.418 1.293-2.342 3.099-2.745 5.37a1.265 1.265 0 0 0 1.887 1.31c2.528-1.487 5.277-2.316 7.468-2.777.079.28.189.55.326.8-1.439.46-3.161 1.286-4.992 2.75-3.295 2.637-4.126 4.879-4.244 6.296a1.26 1.26 0 0 0 .025.376c.343 1.56.75 2.932 1.08 3.936H23.895c.412-2.027 1.432-5.912 3.687-9.475zm23.132 23.83H16.606c-6.303 0-11.43-5.127-11.43-11.43v-.358h56.968v.359c0 6.302-5.127 11.43-11.43 11.43z" fill="green"/><path d="M40.537 73.483H9.135a1.265 1.265 0 0 0 0 2.53h31.402a1.265 1.265 0 0 0 0-2.53zM50.67 73.483h-4.128a1.265 1.265 0 0 0 0 2.53h4.128a1.265 1.265 0 0 0 0-2.53zM30.94 59.157a1.265 1.265 0 0 0-1.74.417c-1.976 3.221-2.964 6.278-3.005 6.407a1.264 1.264 0 0 0 2.41.77c.01-.028.943-2.905 2.751-5.854a1.265 1.265 0 0 0-.417-1.74z"/></g><g><path d="M63.409 69.14H41.678c-.313-.878-.83-2.449-1.251-4.308.115-.713.683-2.28 3.282-4.36 2.868-2.293 5.313-2.705 6.515-2.745l7.932.006h.003a3.84 3.84 0 0 0 3.836-3.835 3.841 3.841 0 0 0-3.49-3.82 3.83 3.83 0 0 0-3.319-1.552 3.959 3.959 0 0 0-2.47-.864 3.943 3.943 0 0 0-3.774 2.746 3.887 3.887 0 0 0-1.905 1.912c-1.743.324-3.917.874-6.132 1.8.28-.46.608-.863.984-1.206 5.57-5.075 6.654-6.483 5.471-9.86-.542-1.55-2.002-4.437-3.125-6.575h1.289a5.177 5.177 0 0 0 5.171-5.171 5.186 5.186 0 0 0-3.3-4.823 5.337 5.337 0 0 0-5.192-3.995 5.36 5.36 0 0 0-3.538 1.332 5.162 5.162 0 0 0-4.897 2.316 5.178 5.178 0 0 0-5.005 5.17 5.177 5.177 0 0 0 5.171 5.17h2.336a60.4 60.4 0 0 0 .474 1.74c.43 1.515.963 3.402 1.028 4.573.016.278-.104 1.121-1.55 2.944-1.026 1.295-2.344 2.609-3.306 3.569l-.28.279c-.906.906-1.466 1.517-2.624 2.883-.82-.274-2.18-1.041-3.876-3.16-1.872-2.34-2.484-4.401-2.672-5.696h.532a4.675 4.675 0 0 0 4.67-4.67 4.675 4.675 0 0 0-4.436-4.663 4.661 4.661 0 0 0-4.304-2.028 4.834 4.834 0 0 0-3.137-1.156 4.813 4.813 0 0 0-4.66 3.524 4.683 4.683 0 0 0-2.903 4.324 4.675 4.675 0 0 0 4.67 4.669h3.733c.341 3.142 1.553 9.691 5.827 14.461.458.512.904.938 1.343 1.284-2.221 3.925-3.15 7.918-3.49 9.786H3.911c-.699 0-1.265.566-1.265 1.265v1.624c0 7.697 6.262 13.96 13.96 13.96h34.108c7.697 0 13.96-6.263 13.96-13.96v-1.624c0-.699-.566-1.265-1.265-1.265zM49.248 53.659c.096-.52.508-.939 1.027-1.041.55-.11.962-.567 1.014-1.125a1.434 1.434 0 0 1 2.516-.8c.315.367.81.522 1.279.4a1.305 1.305 0 0 1 1.536.755c.224.53.778.841 1.347.758a1.31 1.31 0 0 1 1.498 1.292c0 .72-.586 1.306-1.306 1.306l-7.846-.02a1.304 1.304 0 0 1-1.065-1.525zM33.934 33.949a2.645 2.645 0 0 1-2.641-2.642 2.645 2.645 0 0 1 3.027-2.613c.57.083 1.123-.23 1.347-.759a2.639 2.639 0 0 1 3.105-1.527c.468.122.965-.033 1.28-.4a2.836 2.836 0 0 1 2.151-.989 2.821 2.821 0 0 1 2.824 2.573 1.265 1.265 0 0 0 1.014 1.125 2.646 2.646 0 0 1 2.125 2.59 2.645 2.645 0 0 1-2.642 2.642h-11.59ZM13.895 41.08c-1.18 0-2.14-.96-2.14-2.14 0-1.018.724-1.9 1.72-2.098.55-.109.963-.566 1.015-1.125a2.297 2.297 0 0 1 2.3-2.094c.672 0 1.31.294 1.75.806.316.366.813.521 1.28.399a2.137 2.137 0 0 1 2.516 1.237c.224.53.778.842 1.347.759a2.139 2.139 0 1 1 .313 4.256zm13.687 18.549a1.265 1.265 0 0 0-.526-1.82c-.506-.24-1.084-.72-1.716-1.426-3.687-4.115-4.82-9.98-5.162-12.773h.74c.186 1.626.88 4.324 3.243 7.276 2.586 3.234 4.796 4.088 6.195 4.235.417.043.83-.122 1.1-.444 1.45-1.724 2.006-2.342 2.97-3.306l.276-.276c2.908-2.9 5.736-5.94 5.596-8.445-.08-1.45-.632-3.401-1.12-5.122-.102-.363-.203-.719-.293-1.05h2.487c.995 1.863 2.997 5.686 3.6 7.41.6 1.711.742 2.118-4.787 7.155-1.418 1.293-2.342 3.099-2.745 5.37a1.265 1.265 0 0 0 1.887 1.31c2.528-1.487 5.277-2.316 7.468-2.777.079.28.189.55.326.8-1.439.46-3.161 1.286-4.992 2.75-3.295 2.637-4.126 4.879-4.244 6.296a1.26 1.26 0 0 0 .025.376c.343 1.56.75 2.932 1.08 3.936H23.895c.412-2.027 1.432-5.912 3.687-9.475zm23.132 23.83H16.606c-6.303 0-11.43-5.127-11.43-11.43v-.358h56.968v.359c0 6.302-5.127 11.43-11.43 11.43z"/><path d="M40.537 73.483H9.135a1.265 1.265 0 0 0 0 2.53h31.402a1.265 1.265 0 0 0 0-2.53zM50.67 73.483h-4.128a1.265 1.265 0 0 0 0 2.53h4.128a1.265 1.265 0 0 0 0-2.53zM30.94 59.157a1.265 1.265 0 0 0-1.74.417c-1.976 3.221-2.964 6.278-3.005 6.407a1.264 1.264 0 0 0 2.41.77c.01-.028.943-2.905 2.751-5.854a1.265 1.265 0 0 0-.417-1.74z"/></g><g><path d="M114.22 53.658c.096-.52.509-.939 1.027-1.041.55-.11.962-.567 1.014-1.125a1.434 1.434 0 0 1 2.516-.8c.315.367.811.522 1.279.4a1.305 1.305 0 0 1 1.536.755c.224.53.778.841 1.348.758a1.31 1.31 0 0 1 1.497 1.292c0 .72-.586 1.306-1.305 1.306l-7.847-.02a1.304 1.304 0 0 1-1.065-1.525zM98.906 33.949a2.645 2.645 0 0 1-2.641-2.642 2.645 2.645 0 0 1 3.027-2.613c.57.083 1.123-.23 1.347-.759a2.639 2.639 0 0 1 3.106-1.527c.467.122.964-.033 1.279-.4a2.836 2.836 0 0 1 2.151-.989A2.821 2.821 0 0 1 110 27.592a1.265 1.265 0 0 0 1.013 1.125 2.646 2.646 0 0 1 2.125 2.59 2.645 2.645 0 0 1-2.642 2.642h-11.59ZM78.867 41.08c-1.18 0-2.14-.96-2.14-2.14 0-1.018.724-1.9 1.721-2.098.55-.109.962-.566 1.014-1.125a2.297 2.297 0 0 1 2.3-2.094c.672 0 1.31.294 1.75.806.316.366.813.521 1.28.399a2.137 2.137 0 0 1 2.516 1.237c.224.53.778.842 1.347.759a2.139 2.139 0 1 1 .313 4.256zm13.687 18.549a1.265 1.265 0 0 0-.526-1.82c-.506-.24-1.084-.72-1.716-1.426-3.687-4.115-4.82-9.98-5.162-12.773h.74c.186 1.626.88 4.324 3.243 7.276 2.586 3.234 4.797 4.088 6.195 4.235.417.043.83-.122 1.1-.444 1.45-1.724 2.006-2.342 2.97-3.306l.276-.276c2.908-2.9 5.736-5.94 5.597-8.445-.081-1.45-.633-3.401-1.12-5.122-.103-.363-.204-.719-.294-1.05h2.487c.995 1.863 2.997 5.686 3.6 7.41.6 1.711.742 2.118-4.786 7.155-1.419 1.293-2.343 3.099-2.746 5.37a1.265 1.265 0 0 0 1.887 1.31c2.528-1.487 5.278-2.316 7.468-2.777.079.28.189.55.326.8-1.439.46-3.161 1.286-4.992 2.75-3.294 2.637-4.126 4.879-4.244 6.296a1.26 1.26 0 0 0 .025.376c.343 1.56.75 2.932 1.08 3.936H88.868c.412-2.027 1.432-5.912 3.687-9.475zm23.132 23.83H81.578c-6.303 0-11.43-5.127-11.43-11.43v-.358h56.968v.359c0 6.302-5.127 11.43-11.43 11.43z" fill="#803300"/><path d="M105.509 73.483H74.107a1.265 1.265 0 0 0 0 2.53h31.402a1.265 1.265 0 0 0 0-2.53zM115.642 73.483h-4.128a1.265 1.265 0 0 0 0 2.53h4.128a1.265 1.265 0 0 0 0-2.53zM95.911 59.157a1.265 1.265 0 0 0-1.74.417c-1.975 3.221-2.962 6.278-3.003 6.407a1.264 1.264 0 0 0 2.41.77c.009-.028.942-2.905 2.75-5.854a1.265 1.265 0 0 0-.417-1.74z"/><g><path d="M106.65 69.14c-.313-.878-.83-2.449-1.25-4.308.114-.713.683-2.28 3.282-4.36 2.867-2.293 5.312-2.705 6.514-2.745l7.932.006h.003a3.84 3.84 0 0 0 3.836-3.835 3.841 3.841 0 0 0-3.49-3.82 3.83 3.83 0 0 0-3.318-1.552 3.959 3.959 0 0 0-2.47-.864 3.943 3.943 0 0 0-3.775 2.746 3.887 3.887 0 0 0-1.905 1.912c-1.743.324-3.917.874-6.132 1.8.28-.46.608-.863.984-1.206 5.57-5.075 6.654-6.483 5.472-9.86-.543-1.55-2.003-4.437-3.126-6.575h1.29a5.177 5.177 0 0 0 5.17-5.171 5.186 5.186 0 0 0-3.3-4.823 5.337 5.337 0 0 0-5.192-3.995 5.36 5.36 0 0 0-3.538 1.332 5.162 5.162 0 0 0-4.897 2.316 5.178 5.178 0 0 0-5.005 5.17 5.177 5.177 0 0 0 5.171 5.17h2.336a60.4 60.4 0 0 0 .474 1.74c.43 1.515.964 3.402 1.029 4.573.015.278-.105 1.121-1.55 2.944-1.027 1.295-2.345 2.609-3.307 3.569l-.28.279c-.906.906-1.466 1.517-2.624 2.883-.82-.274-2.18-1.041-3.876-3.16-1.871-2.34-2.484-4.401-2.672-5.696h.532a4.675 4.675 0 0 0 4.67-4.67 4.675 4.675 0 0 0-4.435-4.663 4.661 4.661 0 0 0-4.305-2.028 4.834 4.834 0 0 0-3.137-1.156 4.813 4.813 0 0 0-4.66 3.524 4.683 4.683 0 0 0-2.903 4.324 4.675 4.675 0 0 0 4.67 4.669H82.6c.341 3.142 1.554 9.691 5.827 14.461.458.512.904.938 1.343 1.284-2.221 3.925-3.15 7.918-3.49 9.786zm7.57-15.482c.096-.52.509-.939 1.027-1.041.55-.11.962-.567 1.014-1.125a1.434 1.434 0 0 1 2.516-.8c.315.367.811.522 1.279.4a1.305 1.305 0 0 1 1.536.755c.224.53.778.841 1.348.758a1.31 1.31 0 0 1 1.497 1.292c0 .72-.586 1.306-1.305 1.306l-7.847-.02a1.304 1.304 0 0 1-1.065-1.525zM98.906 33.949a2.645 2.645 0 0 1-2.641-2.642 2.645 2.645 0 0 1 3.027-2.613c.57.083 1.123-.23 1.347-.759a2.639 2.639 0 0 1 3.106-1.527c.467.122.964-.033 1.279-.4a2.836 2.836 0 0 1 2.151-.989A2.821 2.821 0 0 1 110 27.592a1.265 1.265 0 0 0 1.013 1.125 2.646 2.646 0 0 1 2.125 2.59 2.645 2.645 0 0 1-2.642 2.642h-11.59ZM78.867 41.08c-1.18 0-2.14-.96-2.14-2.14 0-1.018.724-1.9 1.721-2.098.55-.109.962-.566 1.014-1.125a2.297 2.297 0 0 1 2.3-2.094c.672 0 1.31.294 1.75.806.316.366.813.521 1.28.399a2.137 2.137 0 0 1 2.516 1.237c.224.53.778.842 1.347.759a2.139 2.139 0 1 1 .313 4.256zm13.687 18.549a1.265 1.265 0 0 0-.526-1.82c-.506-.24-1.084-.72-1.716-1.426-3.687-4.115-4.82-9.98-5.162-12.773h.74c.186 1.626.88 4.324 3.243 7.276 2.586 3.234 4.797 4.088 6.195 4.235.417.043.83-.122 1.1-.444 1.45-1.724 2.006-2.342 2.97-3.306l.276-.276c2.908-2.9 5.736-5.94 5.597-8.445-.081-1.45-.633-3.401-1.12-5.122-.103-.363-.204-.719-.294-1.05h2.487c.995 1.863 2.997 5.686 3.6 7.41.6 1.711.742 2.118-4.786 7.155-1.419 1.293-2.343 3.099-2.746 5.37a1.265 1.265 0 0 0 1.887 1.31c2.528-1.487 5.278-2.316 7.468-2.777.079.28.189.55.326.8-1.439.46-3.161 1.286-4.992 2.75-3.294 2.637-4.126 4.879-4.244 6.296a1.26 1.26 0 0 0 .025.376c.343 1.56.75 2.932 1.08 3.936H88.868c.412-2.027 1.432-5.912 3.687-9.475zm23.132 23.83H81.578c-6.303 0-11.43-5.127-11.43-11.43v-.358h56.968v.359c0 6.302-5.127 11.43-11.43 11.43z" fill="#500"/><path d="M105.509 73.483H74.107a1.265 1.265 0 0 0 0 2.53h31.402a1.265 1.265 0 0 0 0-2.53zM115.642 73.483h-4.128a1.265 1.265 0 0 0 0 2.53h4.128a1.265 1.265 0 0 0 0-2.53zM95.911 59.157a1.265 1.265 0 0 0-1.74.417c-1.975 3.221-2.962 6.278-3.003 6.407a1.264 1.264 0 0 0 2.41.77c.009-.028.942-2.905 2.75-5.854a1.265 1.265 0 0 0-.417-1.74z"/></g><g><path d="M128.381 69.14h-21.73c-.314-.878-.831-2.449-1.252-4.308.115-.713.684-2.28 3.283-4.36 2.867-2.293 5.312-2.705 6.514-2.745l-3.187-5.407c-1.743.324-3.917.874-6.132 1.8.28-.46.608-.863.984-1.206 5.57-5.075 6.654-6.483 5.472-9.86-.543-1.55-2.003-4.437-3.126-6.575h-7.965a60.4 60.4 0 0 0 .474 1.738c.43 1.516.964 3.403 1.029 4.574.015.278-.105 1.121-1.55 2.944-1.027 1.295-2.345 2.609-3.307 3.569l-.28.279c-.906.906-1.466 1.517-2.624 2.883-.82-.274-2.18-1.041-3.876-3.16-1.871-2.34-2.484-4.401-2.672-5.696H82.6c.341 3.142 1.554 9.691 5.827 14.461.458.512.904.938 1.343 1.284-2.221 3.925-3.15 7.918-3.49 9.786H68.883c-.699 0-1.265.566-1.265 1.265v1.624c0 7.697 6.262 13.96 13.96 13.96h34.108c7.698 0 13.96-6.263 13.96-13.96v-1.624c0-.699-.566-1.265-1.265-1.265zM114.22 53.659c.096-.52.509-.939 1.027-1.041.55-.11.962-.567 1.014-1.125a1.434 1.434 0 0 1 2.516-.8c.315.367.811.522 1.279.4a1.305 1.305 0 0 1 1.536.755c.224.53.778.841 1.348.758a1.31 1.31 0 0 1 1.497 1.292c0 .72-.586 1.306-1.305 1.306l-7.847-.02a1.304 1.304 0 0 1-1.065-1.525zM98.906 33.949a2.645 2.645 0 0 1-2.641-2.642 2.645 2.645 0 0 1 3.027-2.613c.57.083 1.123-.23 1.347-.759a2.639 2.639 0 0 1 3.106-1.527c.467.122.964-.033 1.279-.4a2.836 2.836 0 0 1 2.151-.989A2.821 2.821 0 0 1 110 27.592a1.265 1.265 0 0 0 1.013 1.125 2.646 2.646 0 0 1 2.125 2.59 2.645 2.645 0 0 1-2.642 2.642h-11.59ZM78.867 41.08c-1.18 0-2.14-.96-2.14-2.14 0-1.018.724-1.9 1.721-2.098.55-.109.962-.566 1.014-1.125a2.297 2.297 0 0 1 2.3-2.094c.672 0 1.31.294 1.75.806.316.366.813.521 1.28.399a2.137 2.137 0 0 1 2.516 1.237c.224.53.778.842 1.347.759a2.139 2.139 0 1 1 .313 4.256zm13.687 18.549a1.265 1.265 0 0 0-.526-1.82c-.506-.24-1.084-.72-1.716-1.426-3.687-4.115-4.82-9.98-5.162-12.773h.74c.186 1.626.88 4.324 3.243 7.276 2.586 3.234 4.797 4.088 6.195 4.235.417.043.83-.122 1.1-.444 1.45-1.724 2.006-2.342 2.97-3.306l.276-.276c2.908-2.9 5.736-5.94 5.597-8.445-.081-1.45-.633-3.401-1.12-5.122-.103-.363-.204-.719-.294-1.05h2.487c.995 1.863 2.997 5.686 3.6 7.41.6 1.711.742 2.118-4.786 7.155-1.419 1.293-2.343 3.099-2.746 5.37a1.265 1.265 0 0 0 1.887 1.31c2.528-1.487 5.278-2.316 7.468-2.777.079.28.189.55.326.8-1.439.46-3.161 1.286-4.992 2.75-3.294 2.637-4.126 4.879-4.244 6.296a1.26 1.26 0 0 0 .025.376c.343 1.56.75 2.932 1.08 3.936H88.868c.412-2.027 1.432-5.912 3.687-9.475zm23.132 23.83H81.578c-6.303 0-11.43-5.127-11.43-11.43v-.358h56.968v.359c0 6.302-5.127 11.43-11.43 11.43z" fill="#4a0"/><path d="M105.509 73.483H74.107a1.265 1.265 0 0 0 0 2.53h31.402a1.265 1.265 0 0 0 0-2.53zM115.642 73.483h-4.128a1.265 1.265 0 0 0 0 2.53h4.128a1.265 1.265 0 0 0 0-2.53zM95.911 59.157a1.265 1.265 0 0 0-1.74.417c-1.975 3.221-2.962 6.278-3.003 6.407a1.264 1.264 0 0 0 2.41.77c.009-.028.942-2.905 2.75-5.854a1.265 1.265 0 0 0-.417-1.74z"/></g><g><path d="M128.381 69.14h-21.73c-.314-.878-.831-2.449-1.252-4.308.115-.713.684-2.28 3.283-4.36 2.867-2.293 5.312-2.705 6.514-2.745l7.932.006h.003a3.84 3.84 0 0 0 3.836-3.835 3.841 3.841 0 0 0-3.49-3.82 3.83 3.83 0 0 0-3.318-1.552 3.959 3.959 0 0 0-2.47-.864 3.943 3.943 0 0 0-3.775 2.746 3.887 3.887 0 0 0-1.905 1.912c-1.743.324-3.917.874-6.132 1.8.28-.46.608-.863.984-1.206 5.57-5.075 6.654-6.483 5.472-9.86-.543-1.55-2.003-4.437-3.126-6.575h1.29a5.177 5.177 0 0 0 5.17-5.171 5.186 5.186 0 0 0-3.3-4.823 5.337 5.337 0 0 0-5.192-3.995 5.36 5.36 0 0 0-3.538 1.332 5.162 5.162 0 0 0-4.897 2.316 5.178 5.178 0 0 0-5.005 5.17 5.177 5.177 0 0 0 5.171 5.17h2.336a60.4 60.4 0 0 0 .474 1.74c.43 1.515.964 3.402 1.029 4.573.015.278-.105 1.121-1.55 2.944-1.027 1.295-2.345 2.609-3.307 3.569l-.28.279c-.906.906-1.466 1.517-2.624 2.883-.82-.274-2.18-1.041-3.876-3.16-1.871-2.34-2.484-4.401-2.672-5.696h.532a4.675 4.675 0 0 0 4.67-4.67 4.675 4.675 0 0 0-4.435-4.663 4.661 4.661 0 0 0-4.305-2.028 4.834 4.834 0 0 0-3.137-1.156 4.813 4.813 0 0 0-4.66 3.524 4.683 4.683 0 0 0-2.903 4.324 4.675 4.675 0 0 0 4.67 4.669H82.6c.341 3.142 1.554 9.691 5.827 14.461.458.512.904.938 1.343 1.284-2.221 3.925-3.15 7.918-3.49 9.786H68.883c-.699 0-1.265.566-1.265 1.265v1.624c0 7.697 6.262 13.96 13.96 13.96h34.108c7.698 0 13.96-6.263 13.96-13.96v-1.624c0-.699-.566-1.265-1.265-1.265zM114.22 53.659c.096-.52.509-.939 1.027-1.041.55-.11.962-.567 1.014-1.125a1.434 1.434 0 0 1 2.516-.8c.315.367.811.522 1.279.4a1.305 1.305 0 0 1 1.536.755c.224.53.778.841 1.348.758a1.31 1.31 0 0 1 1.497 1.292c0 .72-.586 1.306-1.305 1.306l-7.847-.02a1.304 1.304 0 0 1-1.065-1.525zM98.906 33.949a2.645 2.645 0 0 1-2.641-2.642 2.645 2.645 0 0 1 3.027-2.613c.57.083 1.123-.23 1.347-.759a2.639 2.639 0 0 1 3.106-1.527c.467.122.964-.033 1.279-.4a2.836 2.836 0 0 1 2.151-.989A2.821 2.821 0 0 1 110 27.592a1.265 1.265 0 0 0 1.013 1.125 2.646 2.646 0 0 1 2.125 2.59 2.645 2.645 0 0 1-2.642 2.642h-11.59ZM78.867 41.08c-1.18 0-2.14-.96-2.14-2.14 0-1.018.724-1.9 1.721-2.098.55-.109.962-.566 1.014-1.125a2.297 2.297 0 0 1 2.3-2.094c.672 0 1.31.294 1.75.806.316.366.813.521 1.28.399a2.137 2.137 0 0 1 2.516 1.237c.224.53.778.842 1.347.759a2.139 2.139 0 1 1 .313 4.256zm13.687 18.549a1.265 1.265 0 0 0-.526-1.82c-.506-.24-1.084-.72-1.716-1.426-3.687-4.115-4.82-9.98-5.162-12.773h.74c.186 1.626.88 4.324 3.243 7.276 2.586 3.234 4.797 4.088 6.195 4.235.417.043.83-.122 1.1-.444 1.45-1.724 2.006-2.342 2.97-3.306l.276-.276c2.908-2.9 5.736-5.94 5.597-8.445-.081-1.45-.633-3.401-1.12-5.122-.103-.363-.204-.719-.294-1.05h2.487c.995 1.863 2.997 5.686 3.6 7.41.6 1.711.742 2.118-4.786 7.155-1.419 1.293-2.343 3.099-2.746 5.37a1.265 1.265 0 0 0 1.887 1.31c2.528-1.487 5.278-2.316 7.468-2.777.079.28.189.55.326.8-1.439.46-3.161 1.286-4.992 2.75-3.294 2.637-4.126 4.879-4.244 6.296a1.26 1.26 0 0 0 .025.376c.343 1.56.75 2.932 1.08 3.936H88.868c.412-2.027 1.432-5.912 3.687-9.475zm23.132 23.83H81.578c-6.303 0-11.43-5.127-11.43-11.43v-.358h56.968v.359c0 6.302-5.127 11.43-11.43 11.43z"/><path d="M105.509 73.483H74.107a1.265 1.265 0 0 0 0 2.53h31.402a1.265 1.265 0 0 0 0-2.53zM115.642 73.483h-4.128a1.265 1.265 0 0 0 0 2.53h4.128a1.265 1.265 0 0 0 0-2.53zM95.911 59.157a1.265 1.265 0 0 0-1.74.417c-1.975 3.221-2.962 6.278-3.003 6.407a1.264 1.264 0 0 0 2.41.77c.009-.028.942-2.905 2.75-5.854a1.265 1.265 0 0 0-.417-1.74z"/></g></g></g></svg>