<?xml version="1.0" encoding="UTF-8" standalone="no"?>
<!-- Created with Inkscape (http://www.inkscape.org/) -->

<svg
   width="327.88"
   height="327.88"
   viewBox="0 0 86.751583 86.751587"
   version="1.1"
   id="svg52"
   inkscape:version="1.1.2 (b8e25be833, 2022-02-05)"
   sodipodi:docname="money_color.svg"
   xmlns:inkscape="http://www.inkscape.org/namespaces/inkscape"
   xmlns:sodipodi="http://sodipodi.sourceforge.net/DTD/sodipodi-0.dtd"
   xmlns="http://www.w3.org/2000/svg"
   xmlns:svg="http://www.w3.org/2000/svg">
  <sodipodi:namedview
     id="namedview54"
     pagecolor="#ffffff"
     bordercolor="#666666"
     borderopacity="1.0"
     inkscape:pageshadow="2"
     inkscape:pageopacity="0.0"
     inkscape:pagecheckerboard="true"
     inkscape:document-units="mm"
     showgrid="false"
     units="px"
     inkscape:zoom="1.8756036"
     inkscape:cx="131.42436"
     inkscape:cy="117.56216"
     inkscape:window-width="1920"
     inkscape:window-height="1001"
     inkscape:window-x="-9"
     inkscape:window-y="-9"
     inkscape:window-maximized="1"
     inkscape:current-layer="g264" />
  <defs
     id="defs49" />
  <g
     inkscape:label="Layer 1"
     inkscape:groupmode="layer"
     id="layer1" />
  <g
     inkscape:groupmode="layer"
     id="g218"
     inkscape:label="Money outline">
    <g
       id="g216"
       transform="matrix(0.26458333,0,0,0.26458333,-6.6145832e-5,0)">
      <g
         id="g184">
	<g
   id="g182">
		<g
   id="g180">
			<path
   d="M 118.864,309.773 18.107,209.015 209.016,18.107 309.773,118.864 Z"
   id="path174"
   sodipodi:nodetypes="ccccc"
   style="fill:#ffcc00" />

			<path
   d="m 163.94,130.44 c -8.948,0 -17.361,3.484 -23.689,9.812 -13.06,13.062 -13.06,34.314 0,47.376 6.327,6.328 14.74,9.812 23.689,9.812 8.949,0 17.361,-3.484 23.688,-9.812 13.061,-13.061 13.061,-34.314 0,-47.376 -6.327,-6.328 -14.74,-9.812 -23.688,-9.812 z m 13.081,46.581 c -3.494,3.494 -8.14,5.418 -13.081,5.418 -4.941,0 -9.587,-1.924 -13.081,-5.418 -7.213,-7.213 -7.213,-18.95 0,-26.163 3.494,-3.494 8.14,-5.419 13.081,-5.419 4.941,0 9.587,1.924 13.081,5.419 7.213,7.214 7.213,18.95 0,26.163 z"
   id="path176" />

			<path
   d="m 190.631,53.74 c -1.989,0 -3.896,0.79 -5.304,2.197 L 55.937,185.328 c -2.929,2.929 -2.929,7.678 0,10.606 7.214,7.213 7.213,18.95 0,26.163 -2.929,2.929 -2.929,7.678 0,10.606 l 39.238,39.239 c 1.407,1.407 3.314,2.197 5.304,2.197 1.989,0 3.896,-0.79 5.304,-2.197 3.494,-3.494 8.14,-5.418 13.081,-5.418 4.941,0 9.587,1.924 13.081,5.418 1.407,1.407 3.314,2.197 5.304,2.197 1.99,0 3.896,-0.79 5.304,-2.197 L 271.944,142.551 c 2.929,-2.929 2.929,-7.678 0,-10.606 -7.214,-7.213 -7.213,-18.95 0,-26.163 2.929,-2.929 2.929,-7.678 0,-10.606 L 232.706,55.937 c -1.407,-1.407 -3.314,-2.197 -5.304,-2.197 -1.989,0 -3.896,0.79 -5.304,2.197 -3.494,3.494 -8.14,5.418 -13.081,5.418 -4.942,0 -9.588,-1.924 -13.082,-5.418 -1.407,-1.407 -3.314,-2.197 -5.304,-2.197 z m 36.177,17.514 29.823,29.823 c -6.789,10.835 -6.789,24.738 0,35.572 L 136.656,256.625 c -5.28,-3.323 -11.399,-5.101 -17.792,-5.101 -6.393,0 -12.512,1.778 -17.792,5.101 L 71.249,226.802 c 6.789,-10.835 6.789,-24.738 0,-35.572 L 191.224,71.254 c 5.28,3.323 11.399,5.101 17.792,5.101 6.393,0 12.512,-1.778 17.792,-5.101 z"
   id="path178" />

		</g>

	</g>

</g>
      <g
         id="g186">
</g>
      <g
         id="g188">
</g>
      <g
         id="g190">
</g>
      <g
         id="g192">
</g>
      <g
         id="g194">
</g>
      <g
         id="g196">
</g>
      <g
         id="g198">
</g>
      <g
         id="g200">
</g>
      <g
         id="g202">
</g>
      <g
         id="g204">
</g>
      <g
         id="g206">
</g>
      <g
         id="g208">
</g>
      <g
         id="g210">
</g>
      <g
         id="g212">
</g>
      <g
         id="g214">
</g>
    </g>
  </g>
  <g
     inkscape:groupmode="layer"
     id="g264"
     inkscape:label="Money inline">
    <g
       id="g262"
       transform="matrix(0.26458333,0,0,0.26458333,-6.6145832e-5,0)">
      <g
         id="g230">
	<g
   id="g228">
		<g
   id="g226">
			<path
   d="M 325.683,113.561 214.32,2.197 C 212.912,0.79 211.005,0 209.016,0 207.027,0 205.12,0.79 203.712,2.197 L 2.197,203.712 c -2.929,2.929 -2.929,7.678 0,10.606 L 113.56,325.682 c 1.407,1.407 3.315,2.197 5.304,2.197 1.989,0 3.896,-0.79 5.304,-2.197 L 325.684,124.167 c 2.928,-2.928 2.928,-7.677 -0.001,-10.606 z M 118.864,309.773 18.107,209.015 209.016,18.107 309.773,118.864 Z"
   id="path220"
   style="fill:#000000" />

			<path
   d="m 163.94,130.44 c -8.948,0 -17.361,3.484 -23.689,9.812 -13.06,13.062 -13.06,34.314 0,47.376 6.327,6.328 14.74,9.812 23.689,9.812 8.949,0 17.361,-3.484 23.688,-9.812 13.061,-13.061 13.061,-34.314 0,-47.376 -6.327,-6.328 -14.74,-9.812 -23.688,-9.812 z m 13.081,46.581 c -3.494,3.494 -8.14,5.418 -13.081,5.418 -4.941,0 -9.587,-1.924 -13.081,-5.418 -7.213,-7.213 -7.213,-18.95 0,-26.163 3.494,-3.494 8.14,-5.419 13.081,-5.419 4.941,0 9.587,1.924 13.081,5.419 7.213,7.214 7.213,18.95 0,26.163 z"
   id="path222" />

			<path
   d="m 226.808,71.254 29.823,29.823 c -6.789,10.835 -6.789,24.738 0,35.572 L 136.656,256.625 c -5.28,-3.323 -11.399,-5.101 -17.792,-5.101 -6.393,0 -12.512,1.778 -17.792,5.101 L 71.249,226.802 c 6.789,-10.835 6.789,-24.738 0,-35.572 L 191.224,71.254 c 5.28,3.323 11.399,5.101 17.792,5.101 6.393,0 12.512,-1.778 17.792,-5.101 z"
   id="path224"
   style="fill:#d69500;fill-opacity:1"
   sodipodi:nodetypes="ccccsccccsc" />

		</g>

	</g>

</g>
      <g
         id="g232">
</g>
      <g
         id="g234">
</g>
      <g
         id="g236">
</g>
      <g
         id="g238">
</g>
      <g
         id="g240">
</g>
      <g
         id="g242">
</g>
      <g
         id="g244">
</g>
      <g
         id="g246">
</g>
      <g
         id="g248">
</g>
      <g
         id="g250">
</g>
      <g
         id="g252">
</g>
      <g
         id="g254">
</g>
      <g
         id="g256">
</g>
      <g
         id="g258">
</g>
      <g
         id="g260">
</g>
    </g>
  </g>
  <g
     inkscape:groupmode="layer"
     id="layer2"
     inkscape:label="Money">
    <g
       id="g172"
       transform="matrix(0.26458333,0,0,0.26458333,-6.6145832e-5,0)">
      <g
         id="g114">
	<g
   id="g112">
		<g
   id="g110">
			<path
   d="M 325.683,113.561 214.32,2.197 C 212.912,0.79 211.005,0 209.016,0 207.027,0 205.12,0.79 203.712,2.197 L 2.197,203.712 c -2.929,2.929 -2.929,7.678 0,10.606 L 113.56,325.682 c 1.407,1.407 3.315,2.197 5.304,2.197 1.989,0 3.896,-0.79 5.304,-2.197 L 325.684,124.167 c 2.928,-2.928 2.928,-7.677 -0.001,-10.606 z M 118.864,309.773 18.107,209.015 209.016,18.107 309.773,118.864 Z"
   id="path104" />

			<path
   d="m 163.94,130.44 c -8.948,0 -17.361,3.484 -23.689,9.812 -13.06,13.062 -13.06,34.314 0,47.376 6.327,6.328 14.74,9.812 23.689,9.812 8.949,0 17.361,-3.484 23.688,-9.812 13.061,-13.061 13.061,-34.314 0,-47.376 -6.327,-6.328 -14.74,-9.812 -23.688,-9.812 z m 13.081,46.581 c -3.494,3.494 -8.14,5.418 -13.081,5.418 -4.941,0 -9.587,-1.924 -13.081,-5.418 -7.213,-7.213 -7.213,-18.95 0,-26.163 3.494,-3.494 8.14,-5.419 13.081,-5.419 4.941,0 9.587,1.924 13.081,5.419 7.213,7.214 7.213,18.95 0,26.163 z"
   id="path106" />

			<path
   d="m 190.631,53.74 c -1.989,0 -3.896,0.79 -5.304,2.197 L 55.937,185.328 c -2.929,2.929 -2.929,7.678 0,10.606 7.214,7.213 7.213,18.95 0,26.163 -2.929,2.929 -2.929,7.678 0,10.606 l 39.238,39.239 c 1.407,1.407 3.314,2.197 5.304,2.197 1.989,0 3.896,-0.79 5.304,-2.197 3.494,-3.494 8.14,-5.418 13.081,-5.418 4.941,0 9.587,1.924 13.081,5.418 1.407,1.407 3.314,2.197 5.304,2.197 1.99,0 3.896,-0.79 5.304,-2.197 L 271.944,142.551 c 2.929,-2.929 2.929,-7.678 0,-10.606 -7.214,-7.213 -7.213,-18.95 0,-26.163 2.929,-2.929 2.929,-7.678 0,-10.606 L 232.706,55.937 c -1.407,-1.407 -3.314,-2.197 -5.304,-2.197 -1.989,0 -3.896,0.79 -5.304,2.197 -3.494,3.494 -8.14,5.418 -13.081,5.418 -4.942,0 -9.588,-1.924 -13.082,-5.418 -1.407,-1.407 -3.314,-2.197 -5.304,-2.197 z m 36.177,17.514 29.823,29.823 c -6.789,10.835 -6.789,24.738 0,35.572 L 136.656,256.625 c -5.28,-3.323 -11.399,-5.101 -17.792,-5.101 -6.393,0 -12.512,1.778 -17.792,5.101 L 71.249,226.802 c 6.789,-10.835 6.789,-24.738 0,-35.572 L 191.224,71.254 c 5.28,3.323 11.399,5.101 17.792,5.101 6.393,0 12.512,-1.778 17.792,-5.101 z"
   id="path108" />

		</g>

	</g>

</g>
      <g
         id="g116">
</g>
      <g
         id="g118">
</g>
      <g
         id="g120">
</g>
      <g
         id="g122">
</g>
      <g
         id="g124">
</g>
      <g
         id="g126">
</g>
      <g
         id="g128">
</g>
      <g
         id="g130">
</g>
      <g
         id="g132">
</g>
      <g
         id="g134">
</g>
      <g
         id="g136">
</g>
      <g
         id="g138">
</g>
      <g
         id="g140">
</g>
      <g
         id="g142">
</g>
      <g
         id="g144">
</g>
    </g>
  </g>
  <g
     inkscape:groupmode="layer"
     id="g310"
     inkscape:label="Money round">
    <g
       id="g308"
       transform="matrix(0.26458333,0,0,0.26458333,-6.6145832e-5,0)">
      <g
         id="g276">
	<g
   id="g274">
		<g
   id="g272">
			<path
   d="M 325.683,113.561 214.32,2.197 C 212.912,0.79 211.005,0 209.016,0 207.027,0 205.12,0.79 203.712,2.197 L 2.197,203.712 c -2.929,2.929 -2.929,7.678 0,10.606 L 113.56,325.682 c 1.407,1.407 3.315,2.197 5.304,2.197 1.989,0 3.896,-0.79 5.304,-2.197 L 325.684,124.167 c 2.928,-2.928 2.928,-7.677 -0.001,-10.606 z M 118.864,309.773 18.107,209.015 209.016,18.107 309.773,118.864 Z"
   id="path266" />

			<path
   d="m 177.021,177.021 c -3.494,3.494 -8.14,5.418 -13.081,5.418 -4.941,0 -9.587,-1.924 -13.081,-5.418 -7.213,-7.213 -7.213,-18.95 0,-26.163 3.494,-3.494 8.14,-5.419 13.081,-5.419 4.941,0 9.587,1.924 13.081,5.419 7.213,7.214 7.213,18.95 0,26.163 z"
   id="path268"
   style="fill:#ffcc00"
   sodipodi:nodetypes="ssssscs" />

			<path
   d="m 190.631,53.74 c -1.989,0 -3.896,0.79 -5.304,2.197 L 55.937,185.328 c -2.929,2.929 -2.929,7.678 0,10.606 7.214,7.213 7.213,18.95 0,26.163 -2.929,2.929 -2.929,7.678 0,10.606 l 39.238,39.239 c 1.407,1.407 3.314,2.197 5.304,2.197 1.989,0 3.896,-0.79 5.304,-2.197 3.494,-3.494 8.14,-5.418 13.081,-5.418 4.941,0 9.587,1.924 13.081,5.418 1.407,1.407 3.314,2.197 5.304,2.197 1.99,0 3.896,-0.79 5.304,-2.197 L 271.944,142.551 c 2.929,-2.929 2.929,-7.678 0,-10.606 -7.214,-7.213 -7.213,-18.95 0,-26.163 2.929,-2.929 2.929,-7.678 0,-10.606 L 232.706,55.937 c -1.407,-1.407 -3.314,-2.197 -5.304,-2.197 -1.989,0 -3.896,0.79 -5.304,2.197 -3.494,3.494 -8.14,5.418 -13.081,5.418 -4.942,0 -9.588,-1.924 -13.082,-5.418 -1.407,-1.407 -3.314,-2.197 -5.304,-2.197 z m 36.177,17.514 29.823,29.823 c -6.789,10.835 -6.789,24.738 0,35.572 L 136.656,256.625 c -5.28,-3.323 -11.399,-5.101 -17.792,-5.101 -6.393,0 -12.512,1.778 -17.792,5.101 L 71.249,226.802 c 6.789,-10.835 6.789,-24.738 0,-35.572 L 191.224,71.254 c 5.28,3.323 11.399,5.101 17.792,5.101 6.393,0 12.512,-1.778 17.792,-5.101 z"
   id="path270" />

		</g>

	</g>

</g>
      <g
         id="g278">
</g>
      <g
         id="g280">
</g>
      <g
         id="g282">
</g>
      <g
         id="g284">
</g>
      <g
         id="g286">
</g>
      <g
         id="g288">
</g>
      <g
         id="g290">
</g>
      <g
         id="g292">
</g>
      <g
         id="g294">
</g>
      <g
         id="g296">
</g>
      <g
         id="g298">
</g>
      <g
         id="g300">
</g>
      <g
         id="g302">
</g>
      <g
         id="g304">
</g>
      <g
         id="g306">
</g>
    </g>
  </g>
</svg>
