<svg width="327.88" height="327.88" viewBox="0 0 86.752 86.752" xmlns="http://www.w3.org/2000/svg"><path d="M31.45 81.96 4.79 55.303 55.303 4.79l26.659 26.658Z" fill="#fc0"/><path d="M43.376 34.512a8.806 8.806 0 0 0-6.268 2.596c-3.455 3.456-3.455 9.08 0 12.535a8.805 8.805 0 0 0 6.268 2.596 8.804 8.804 0 0 0 6.267-2.596c3.456-3.455 3.456-9.079 0-12.535a8.805 8.805 0 0 0-6.267-2.596zm3.46 12.325a4.863 4.863 0 0 1-3.46 1.433 4.863 4.863 0 0 1-3.461-1.433 4.9 4.9 0 0 1 0-6.922 4.863 4.863 0 0 1 3.46-1.434c1.308 0 2.537.509 3.462 1.434a4.9 4.9 0 0 1 0 6.922z"/><path d="M50.438 14.219c-.527 0-1.031.209-1.404.581L14.8 49.035a1.984 1.984 0 0 0 0 2.806 4.9 4.9 0 0 1 0 6.922 1.984 1.984 0 0 0 0 2.806l10.382 10.382a1.984 1.984 0 0 0 2.806 0 4.863 4.863 0 0 1 3.461-1.433c1.308 0 2.537.509 3.461 1.433a1.984 1.984 0 0 0 2.807 0l34.235-34.234a1.984 1.984 0 0 0 0-2.807 4.9 4.9 0 0 1 0-6.922 1.984 1.984 0 0 0 0-2.806L61.57 14.8a1.984 1.984 0 0 0-2.807 0 4.863 4.863 0 0 1-3.46 1.434A4.863 4.863 0 0 1 51.84 14.8a1.984 1.984 0 0 0-1.403-.581zm9.572 4.634 7.89 7.89a8.893 8.893 0 0 0 0 9.412L36.157 67.899a8.803 8.803 0 0 0-4.708-1.35c-1.691 0-3.31.47-4.707 1.35l-7.89-7.891a8.893 8.893 0 0 0 0-9.412l31.743-31.743a8.803 8.803 0 0 0 4.707 1.35c1.692 0 3.31-.471 4.708-1.35z"/><g><path d="M86.17 30.046 56.705.581a1.985 1.985 0 0 0-2.806 0L.58 53.9a1.984 1.984 0 0 0 0 2.806L30.046 86.17a1.985 1.985 0 0 0 2.807 0L86.17 32.853a1.984 1.984 0 0 0 0-2.807zM31.45 81.961 4.79 55.3l50.512-50.51 26.659 26.658Z"/><path d="M43.376 34.512a8.806 8.806 0 0 0-6.268 2.596c-3.455 3.456-3.455 9.08 0 12.535a8.805 8.805 0 0 0 6.268 2.596 8.804 8.804 0 0 0 6.267-2.596c3.456-3.455 3.456-9.079 0-12.535a8.805 8.805 0 0 0-6.267-2.596zm3.46 12.325a4.863 4.863 0 0 1-3.46 1.433 4.863 4.863 0 0 1-3.461-1.433 4.9 4.9 0 0 1 0-6.922 4.863 4.863 0 0 1 3.46-1.434c1.308 0 2.537.509 3.462 1.434a4.9 4.9 0 0 1 0 6.922z"/><path d="m60.01 18.853 7.89 7.89a8.893 8.893 0 0 0 0 9.412L36.157 67.899a8.803 8.803 0 0 0-4.708-1.35c-1.691 0-3.31.47-4.707 1.35l-7.89-7.891a8.893 8.893 0 0 0 0-9.412l31.743-31.743a8.803 8.803 0 0 0 4.707 1.35c1.692 0 3.31-.471 4.708-1.35z" fill="#d69500"/></g><g><path d="M86.17 30.046 56.705.581a1.985 1.985 0 0 0-2.806 0L.58 53.9a1.984 1.984 0 0 0 0 2.806L30.046 86.17a1.985 1.985 0 0 0 2.807 0L86.17 32.853a1.984 1.984 0 0 0 0-2.807zM31.45 81.961 4.79 55.3l50.512-50.51 26.659 26.658Z"/><path d="M43.376 34.512a8.806 8.806 0 0 0-6.268 2.596c-3.455 3.456-3.455 9.08 0 12.535a8.805 8.805 0 0 0 6.268 2.596 8.804 8.804 0 0 0 6.267-2.596c3.456-3.455 3.456-9.079 0-12.535a8.805 8.805 0 0 0-6.267-2.596zm3.46 12.325a4.863 4.863 0 0 1-3.46 1.433 4.863 4.863 0 0 1-3.461-1.433 4.9 4.9 0 0 1 0-6.922 4.863 4.863 0 0 1 3.46-1.434c1.308 0 2.537.509 3.462 1.434a4.9 4.9 0 0 1 0 6.922z"/><path d="M50.438 14.219c-.527 0-1.031.209-1.404.581L14.8 49.035a1.984 1.984 0 0 0 0 2.806 4.9 4.9 0 0 1 0 6.922 1.984 1.984 0 0 0 0 2.806l10.382 10.382a1.984 1.984 0 0 0 2.806 0 4.863 4.863 0 0 1 3.461-1.433c1.308 0 2.537.509 3.461 1.433a1.984 1.984 0 0 0 2.807 0l34.235-34.234a1.984 1.984 0 0 0 0-2.807 4.9 4.9 0 0 1 0-6.922 1.984 1.984 0 0 0 0-2.806L61.57 14.8a1.984 1.984 0 0 0-2.807 0 4.863 4.863 0 0 1-3.46 1.434A4.863 4.863 0 0 1 51.84 14.8a1.984 1.984 0 0 0-1.403-.581zm9.572 4.634 7.89 7.89a8.893 8.893 0 0 0 0 9.412L36.157 67.899a8.803 8.803 0 0 0-4.708-1.35c-1.691 0-3.31.47-4.707 1.35l-7.89-7.891a8.893 8.893 0 0 0 0-9.412l31.743-31.743a8.803 8.803 0 0 0 4.707 1.35c1.692 0 3.31-.471 4.708-1.35z"/></g><g><path d="M86.17 30.046 56.705.581a1.985 1.985 0 0 0-2.806 0L.58 53.9a1.984 1.984 0 0 0 0 2.806L30.046 86.17a1.985 1.985 0 0 0 2.807 0L86.17 32.853a1.984 1.984 0 0 0 0-2.807zM31.45 81.961 4.79 55.3l50.512-50.51 26.659 26.658Z"/><path d="M46.837 46.837a4.863 4.863 0 0 1-3.461 1.433 4.863 4.863 0 0 1-3.461-1.433 4.9 4.9 0 0 1 0-6.922 4.863 4.863 0 0 1 3.46-1.434c1.308 0 2.537.509 3.462 1.434a4.9 4.9 0 0 1 0 6.922z" fill="#fc0"/><path d="M50.438 14.219c-.527 0-1.031.209-1.404.581L14.8 49.035a1.984 1.984 0 0 0 0 2.806 4.9 4.9 0 0 1 0 6.922 1.984 1.984 0 0 0 0 2.806l10.382 10.382a1.984 1.984 0 0 0 2.806 0 4.863 4.863 0 0 1 3.461-1.433c1.308 0 2.537.509 3.461 1.433a1.984 1.984 0 0 0 2.807 0l34.235-34.234a1.984 1.984 0 0 0 0-2.807 4.9 4.9 0 0 1 0-6.922 1.984 1.984 0 0 0 0-2.806L61.57 14.8a1.984 1.984 0 0 0-2.807 0 4.863 4.863 0 0 1-3.46 1.434A4.863 4.863 0 0 1 51.84 14.8a1.984 1.984 0 0 0-1.403-.581zm9.572 4.634 7.89 7.89a8.893 8.893 0 0 0 0 9.412L36.157 67.899a8.803 8.803 0 0 0-4.708-1.35c-1.691 0-3.31.47-4.707 1.35l-7.89-7.891a8.893 8.893 0 0 0 0-9.412l31.743-31.743a8.803 8.803 0 0 0 4.707 1.35c1.692 0 3.31-.471 4.708-1.35z"/></g></svg>