<?xml version="1.0" encoding="UTF-8" standalone="no"?>
<!-- Created with Inkscape (http://www.inkscape.org/) -->

<svg
   width="485"
   height="485"
   viewBox="0 0 484.99999 484.99999"
   version="1.1"
   id="svg47"
   inkscape:version="1.1.2 (b8e25be833, 2022-02-05)"
   sodipodi:docname="peanut_color.svg"
   xmlns:inkscape="http://www.inkscape.org/namespaces/inkscape"
   xmlns:sodipodi="http://sodipodi.sourceforge.net/DTD/sodipodi-0.dtd"
   xmlns="http://www.w3.org/2000/svg"
   xmlns:svg="http://www.w3.org/2000/svg"
   xmlns:rdf="http://www.w3.org/1999/02/22-rdf-syntax-ns#"
   xmlns:cc="http://creativecommons.org/ns#"
   xmlns:dc="http://purl.org/dc/elements/1.1/">
  <defs
     id="defs41" />
  <sodipodi:namedview
     id="base"
     pagecolor="#ffffff"
     bordercolor="#666666"
     borderopacity="1.0"
     inkscape:pageopacity="0.0"
     inkscape:pageshadow="2"
     inkscape:zoom="1.01"
     inkscape:cx="155.94059"
     inkscape:cy="164.85149"
     inkscape:document-units="px"
     inkscape:current-layer="g183"
     inkscape:pagecheckerboard="true"
     showgrid="false"
     units="px"
     inkscape:window-width="1920"
     inkscape:window-height="1001"
     inkscape:window-x="-9"
     inkscape:window-y="-9"
     inkscape:window-maximized="1" />
  <metadata
     id="metadata44">
    <rdf:RDF>
      <cc:Work
         rdf:about="">
        <dc:format>image/svg+xml</dc:format>
        <dc:type
           rdf:resource="http://purl.org/dc/dcmitype/StillImage" />
      </cc:Work>
    </rdf:RDF>
  </metadata>
  <g
     inkscape:label="Layer 1"
     inkscape:groupmode="layer"
     id="layer1" />
  <g
     inkscape:groupmode="layer"
     id="layer2"
     inkscape:label="Peanut">
    <g
       id="g145"
       transform="translate(-0.0695)">
      <g
         id="g91">
	<path
   d="M 441.609,43.39 C 413.629,15.41 376.427,0 336.855,0 297.283,0 260.082,15.41 232.101,43.39 c -27.252,27.252 -36.836,50.282 -45.292,70.601 -6.817,16.382 -12.705,30.53 -27.494,45.319 -14.789,14.789 -28.938,20.677 -45.32,27.496 -20.32,8.457 -43.351,18.042 -70.604,45.295 -57.762,57.762 -57.762,151.747 0,209.508 27.98,27.981 65.183,43.391 104.754,43.391 39.571,0 76.773,-15.41 104.754,-43.39 27.254,-27.254 36.839,-50.285 45.296,-70.605 6.818,-16.383 12.706,-30.531 27.495,-45.32 14.789,-14.789 28.938,-20.677 45.319,-27.494 20.318,-8.456 43.349,-18.04 70.601,-45.292 57.761,-57.762 57.761,-151.747 -0.001,-209.509 z m -29.407,53.665 c -9.679,19.358 -25.562,41.139 -45.301,62.27 -6.015,-7.426 -12.545,-14.685 -19.543,-21.683 -6.998,-6.999 -14.256,-13.529 -21.682,-19.543 21.131,-19.739 42.912,-35.622 62.27,-45.301 22.385,-11.193 31.568,-9.075 32.451,-8.194 0.88,0.88 2.999,10.064 -8.195,32.451 z M 261.394,379.859 c -0.852,0.046 -1.72,0.074 -2.613,0.074 -13.889,-10e-4 -32.635,-5.642 -52.998,-17.334 16.198,-17.507 26.406,-30.965 35.653,-43.158 7.754,-10.225 15.19,-20.022 25.494,-31.3 l 27.526,27.526 c -11.97,15.018 -18.048,29.607 -23.959,43.809 -2.773,6.666 -5.585,13.412 -9.103,20.383 z M 158.855,326.145 c -7.224,-7.224 -13.672,-14.538 -19.398,-21.814 17.983,-16.955 31.29,-27.05 44.228,-36.862 11.148,-8.454 21.819,-16.556 34.409,-28.163 l 27.601,27.601 c -11.606,12.59 -19.708,23.261 -28.162,34.408 -9.812,12.938 -19.907,26.245 -36.864,44.229 -7.278,-5.725 -14.593,-12.178 -21.814,-19.399 z m 64.75,-220.999 c 14.115,-0.775 33.944,4.789 55.623,17.242 -16.203,17.512 -26.412,30.971 -35.66,43.166 -7.755,10.226 -15.192,20.024 -25.498,31.304 l -27.526,-27.526 c 11.973,-15.019 18.051,-29.611 23.962,-43.814 2.773,-6.661 5.583,-13.404 9.099,-20.372 z m 15.701,112.947 c 11.608,-12.591 19.711,-23.263 28.165,-34.412 9.811,-12.937 19.905,-26.242 36.859,-44.224 7.276,5.726 14.59,12.174 21.814,19.398 7.223,7.223 13.67,14.538 19.397,21.816 -17.981,16.953 -31.286,27.046 -44.223,36.857 -11.148,8.454 -21.82,16.557 -34.412,28.165 z M 336.855,30 c 17.284,0 33.999,3.695 49.252,10.696 -27.189,10.907 -58.265,33.678 -85.29,59.632 -7.797,-4.861 -15.669,-9.125 -23.528,-12.707 -12.174,-5.547 -23.882,-9.267 -34.852,-11.147 3.214,-3.85 6.807,-7.8 10.877,-11.87 C 275.629,42.289 305.298,30 336.855,30 Z M 125.522,214.503 c 14.202,-5.911 28.792,-11.988 43.809,-23.959 l 27.526,27.526 c -11.278,10.304 -21.075,17.74 -31.301,25.495 -12.195,9.248 -25.656,19.459 -43.168,35.663 -12.454,-21.681 -18.017,-41.51 -17.243,-55.625 6.97,-3.517 13.715,-6.327 20.377,-9.1 z m -60.918,38.812 c 4.07,-4.07 8.02,-7.663 11.87,-10.877 1.88,10.971 5.6,22.679 11.147,34.852 3.581,7.859 7.846,15.732 12.707,23.529 C 74.396,327.821 51.642,358.868 40.725,386.041 20.82,342.445 28.775,289.143 64.604,253.315 Z m 8.194,134.63 c 9.679,-19.358 25.562,-41.139 45.301,-62.27 6.015,7.426 12.545,14.684 19.543,21.682 6.998,6.998 14.257,13.528 21.683,19.543 -21.131,19.74 -42.912,35.622 -62.27,45.301 -22.388,11.194 -31.57,9.075 -32.451,8.194 -0.881,-0.879 -3,-10.063 8.194,-32.45 z M 148.145,455 c -17.291,0 -34.012,-3.698 -49.27,-10.704 27.195,-10.904 58.272,-33.667 85.303,-59.626 7.758,4.837 15.59,9.083 23.409,12.653 12.214,5.577 23.964,9.321 34.971,11.208 -3.213,3.849 -6.804,7.797 -10.873,11.866 C 209.371,442.711 179.702,455 148.145,455 Z M 359.482,270.493 c -14.203,5.911 -28.794,11.989 -43.814,23.962 l -27.526,-27.526 c 11.28,-10.306 21.077,-17.742 31.303,-25.497 12.193,-9.246 25.651,-19.454 43.159,-35.654 12.45,21.68 18.017,41.513 17.246,55.619 -6.966,3.515 -13.708,6.325 -20.368,9.096 z m 60.914,-38.808 c -4.07,4.07 -8.019,7.662 -11.869,10.875 -1.887,-11.008 -5.628,-22.76 -11.206,-34.975 -3.569,-7.818 -7.814,-15.648 -12.65,-23.404 25.932,-27.002 48.685,-58.048 59.603,-85.221 19.906,43.595 11.951,96.897 -23.878,132.725 z"
   id="path89" />

</g>
      <g
         id="g93">
</g>
      <g
         id="g95">
</g>
      <g
         id="g97">
</g>
      <g
         id="g99">
</g>
      <g
         id="g101">
</g>
      <g
         id="g103">
</g>
      <g
         id="g105">
</g>
      <g
         id="g107">
</g>
      <g
         id="g109">
</g>
      <g
         id="g111">
</g>
      <g
         id="g113">
</g>
      <g
         id="g115">
</g>
      <g
         id="g117">
</g>
      <g
         id="g119">
</g>
      <g
         id="g121">
</g>
    </g>
  </g>
  <g
     inkscape:groupmode="layer"
     id="g183"
     inkscape:label="Peanut copy">
    <g
       id="g181"
       transform="translate(-0.0695)">
      <g
         id="g149">
	<path
   d="m 412.202,97.055 c -9.679,19.358 -25.562,41.139 -45.301,62.27 -6.015,-7.426 -12.545,-14.685 -19.543,-21.683 -6.998,-6.999 -14.256,-13.529 -21.682,-19.543 21.131,-19.739 42.912,-35.622 62.27,-45.301 22.385,-11.193 31.568,-9.075 32.451,-8.194 0.88,0.88 2.999,10.064 -8.195,32.451 z M 261.394,379.859 c -0.852,0.046 -1.72,0.074 -2.613,0.074 -13.889,-10e-4 -32.635,-5.642 -52.998,-17.334 16.198,-17.507 26.406,-30.965 35.653,-43.158 7.754,-10.225 15.19,-20.022 25.494,-31.3 l 27.526,27.526 c -11.97,15.018 -18.048,29.607 -23.959,43.809 -2.773,6.666 -5.585,13.412 -9.103,20.383 z M 158.855,326.145 c -7.224,-7.224 -13.672,-14.538 -19.398,-21.814 17.983,-16.955 31.29,-27.05 44.228,-36.862 11.148,-8.454 21.819,-16.556 34.409,-28.163 l 27.601,27.601 c -11.606,12.59 -19.708,23.261 -28.162,34.408 -9.812,12.938 -19.907,26.245 -36.864,44.229 -7.278,-5.725 -14.593,-12.178 -21.814,-19.399 z m 64.75,-220.999 c 14.115,-0.775 33.944,4.789 55.623,17.242 -16.203,17.512 -26.412,30.971 -35.66,43.166 -7.755,10.226 -15.192,20.024 -25.498,31.304 l -27.526,-27.526 c 11.973,-15.019 18.051,-29.611 23.962,-43.814 2.773,-6.661 5.583,-13.404 9.099,-20.372 z m 15.701,112.947 c 11.608,-12.591 19.711,-23.263 28.165,-34.412 9.811,-12.937 19.905,-26.242 36.859,-44.224 7.276,5.726 14.59,12.174 21.814,19.398 7.223,7.223 13.67,14.538 19.397,21.816 -17.981,16.953 -31.286,27.046 -44.223,36.857 -11.148,8.454 -21.82,16.557 -34.412,28.165 z M 336.855,30 c 17.284,0 33.999,3.695 49.252,10.696 -27.189,10.907 -58.265,33.678 -85.29,59.632 -7.797,-4.861 -15.669,-9.125 -23.528,-12.707 -12.174,-5.547 -23.882,-9.267 -34.852,-11.147 3.214,-3.85 6.807,-7.8 10.877,-11.87 C 275.629,42.289 305.298,30 336.855,30 Z M 125.522,214.503 c 14.202,-5.911 28.792,-11.988 43.809,-23.959 l 27.526,27.526 c -11.278,10.304 -21.075,17.74 -31.301,25.495 -12.195,9.248 -25.656,19.459 -43.168,35.663 -12.454,-21.681 -18.017,-41.51 -17.243,-55.625 6.97,-3.517 13.715,-6.327 20.377,-9.1 z m -60.918,38.812 c 4.07,-4.07 8.02,-7.663 11.87,-10.877 1.88,10.971 5.6,22.679 11.147,34.852 3.581,7.859 7.846,15.732 12.707,23.529 C 74.396,327.821 51.642,358.868 40.725,386.041 20.82,342.445 28.775,289.143 64.604,253.315 Z m 8.194,134.63 c 9.679,-19.358 25.562,-41.139 45.301,-62.27 6.015,7.426 12.545,14.684 19.543,21.682 6.998,6.998 14.257,13.528 21.683,19.543 -21.131,19.74 -42.912,35.622 -62.27,45.301 -22.388,11.194 -31.57,9.075 -32.451,8.194 -0.881,-0.879 -3,-10.063 8.194,-32.45 z M 148.145,455 c -17.291,0 -34.012,-3.698 -49.27,-10.704 27.195,-10.904 58.272,-33.667 85.303,-59.626 7.758,4.837 15.59,9.083 23.409,12.653 12.214,5.577 23.964,9.321 34.971,11.208 -3.213,3.849 -6.804,7.797 -10.873,11.866 C 209.371,442.711 179.702,455 148.145,455 Z M 359.482,270.493 c -14.203,5.911 -28.794,11.989 -43.814,23.962 l -27.526,-27.526 c 11.28,-10.306 21.077,-17.742 31.303,-25.497 12.193,-9.246 25.651,-19.454 43.159,-35.654 12.45,21.68 18.017,41.513 17.246,55.619 -6.966,3.515 -13.708,6.325 -20.368,9.096 z m 60.914,-38.808 c -4.07,4.07 -8.019,7.662 -11.869,10.875 -1.887,-11.008 -5.628,-22.76 -11.206,-34.975 -3.569,-7.818 -7.814,-15.648 -12.65,-23.404 25.932,-27.002 48.685,-58.048 59.603,-85.221 19.906,43.595 11.951,96.897 -23.878,132.725 z"
   id="path147"
   sodipodi:nodetypes="cccccccccccccccsccccccsccccccccccsccccsccccsscccccccccccccccscsccsccccsscccccccsccccs"
   style="fill:#a64f16;fill-opacity:1" />

</g>
      <g
         id="g151">
</g>
      <g
         id="g153">
</g>
      <g
         id="g155">
</g>
      <g
         id="g157">
</g>
      <g
         id="g159">
</g>
      <g
         id="g161">
</g>
      <g
         id="g163">
</g>
      <g
         id="g165">
</g>
      <g
         id="g167">
</g>
      <g
         id="g169">
</g>
      <g
         id="g171">
</g>
      <g
         id="g173">
</g>
      <g
         id="g175">
</g>
      <g
         id="g177">
</g>
      <g
         id="g179">
</g>
    </g>
  </g>
</svg>
