<svg width="485" height="485" xmlns="http://www.w3.org/2000/svg"><path d="M441.54 43.39C413.56 15.41 376.356 0 336.784 0c-39.572 0-76.773 15.41-104.754 43.39-27.252 27.252-36.836 50.282-45.292 70.601-6.817 16.382-12.705 30.53-27.494 45.319-14.789 14.789-28.938 20.677-45.32 27.496-20.32 8.457-43.35 18.042-70.603 45.295-57.763 57.762-57.763 151.747 0 209.508C71.302 469.59 108.505 485 148.076 485c39.57 0 76.773-15.41 104.754-43.39 27.253-27.254 36.838-50.285 45.295-70.605 6.818-16.383 12.706-30.531 27.495-45.32 14.79-14.789 28.938-20.677 45.32-27.494 20.318-8.456 43.349-18.04 70.6-45.292 57.761-57.762 57.761-151.747 0-209.509zm-29.408 53.665c-9.679 19.358-25.562 41.139-45.3 62.27a279.523 279.523 0 0 0-19.543-21.683 279.103 279.103 0 0 0-21.682-19.543c21.13-19.739 42.911-35.622 62.27-45.301 22.384-11.193 31.567-9.075 32.45-8.194.88.88 3 10.064-8.195 32.451zM261.325 379.859a48.32 48.32 0 0 1-2.613.074c-13.889-.001-32.635-5.642-52.998-17.334 16.199-17.507 26.407-30.965 35.654-43.158 7.754-10.225 15.19-20.022 25.494-31.3l27.526 27.526c-11.97 15.018-18.048 29.607-23.96 43.809-2.773 6.666-5.585 13.412-9.103 20.383zm-102.539-53.714a246.212 246.212 0 0 1-19.398-21.814c17.983-16.955 31.29-27.05 44.228-36.862 11.148-8.454 21.82-16.556 34.41-28.163l27.6 27.601c-11.606 12.59-19.708 23.261-28.162 34.408-9.812 12.938-19.907 26.245-36.864 44.229a245.841 245.841 0 0 1-21.814-19.399zm64.75-220.999c14.115-.775 33.944 4.789 55.623 17.242-16.203 17.512-26.412 30.971-35.66 43.166-7.754 10.226-15.191 20.024-25.497 31.304l-27.526-27.526c11.973-15.019 18.05-29.611 23.962-43.814 2.772-6.661 5.582-13.404 9.098-20.372zm15.701 112.947c11.608-12.591 19.711-23.263 28.165-34.412 9.811-12.937 19.905-26.242 36.86-44.224a246.212 246.212 0 0 1 21.813 19.398 246.107 246.107 0 0 1 19.397 21.816c-17.98 16.953-31.286 27.046-44.223 36.857-11.148 8.454-21.82 16.557-34.412 28.165zM336.786 30c17.284 0 33.999 3.695 49.252 10.696-27.19 10.907-58.265 33.678-85.29 59.632-7.797-4.861-15.67-9.125-23.528-12.707-12.175-5.547-23.883-9.267-34.853-11.147 3.214-3.85 6.807-7.8 10.877-11.87C275.56 42.289 305.228 30 336.786 30ZM125.452 214.503c14.202-5.911 28.792-11.988 43.81-23.959l27.525 27.526c-11.278 10.304-21.075 17.74-31.3 25.495-12.195 9.248-25.656 19.459-43.168 35.663-12.455-21.681-18.018-41.51-17.244-55.625 6.97-3.517 13.716-6.327 20.378-9.1zm-60.918 38.812c4.07-4.07 8.02-7.663 11.87-10.877 1.88 10.971 5.6 22.679 11.147 34.852 3.581 7.859 7.846 15.732 12.707 23.529-25.931 27.002-48.685 58.049-59.602 85.222-19.905-43.596-11.95-96.898 23.878-132.726Zm8.194 134.63c9.68-19.358 25.562-41.139 45.301-62.27a279.51 279.51 0 0 0 19.543 21.682 279.523 279.523 0 0 0 21.683 19.543c-21.13 19.74-42.912 35.622-62.27 45.301-22.388 11.194-31.57 9.075-32.45 8.194-.882-.879-3-10.063 8.193-32.45zM148.076 455c-17.291 0-34.012-3.698-49.27-10.704 27.194-10.904 58.271-33.667 85.302-59.626 7.758 4.837 15.59 9.083 23.41 12.653 12.213 5.577 23.963 9.321 34.97 11.208a178.829 178.829 0 0 1-10.873 11.866C209.302 442.711 179.632 455 148.075 455Zm211.337-184.507c-14.203 5.911-28.794 11.989-43.814 23.962l-27.526-27.526c11.28-10.306 21.077-17.742 31.303-25.497 12.193-9.246 25.65-19.454 43.159-35.654 12.45 21.68 18.016 41.513 17.245 55.619-6.966 3.515-13.708 6.325-20.368 9.096zm60.914-38.808a178.625 178.625 0 0 1-11.87 10.875c-1.887-11.008-5.628-22.76-11.206-34.975-3.569-7.818-7.814-15.648-12.65-23.404 25.932-27.002 48.685-58.048 59.603-85.221 19.906 43.595 11.951 96.897-23.878 132.725z"/><g><path d="M412.132 97.055c-9.679 19.358-25.562 41.139-45.3 62.27a279.523 279.523 0 0 0-19.543-21.683 279.103 279.103 0 0 0-21.682-19.543c21.13-19.739 42.911-35.622 62.27-45.301 22.384-11.193 31.567-9.075 32.45-8.194.88.88 3 10.064-8.195 32.451zM261.325 379.859a48.32 48.32 0 0 1-2.613.074c-13.889-.001-32.635-5.642-52.998-17.334 16.199-17.507 26.407-30.965 35.654-43.158 7.754-10.225 15.19-20.022 25.494-31.3l27.526 27.526c-11.97 15.018-18.048 29.607-23.96 43.809-2.773 6.666-5.585 13.412-9.103 20.383zm-102.539-53.714a246.212 246.212 0 0 1-19.398-21.814c17.983-16.955 31.29-27.05 44.228-36.862 11.148-8.454 21.82-16.556 34.41-28.163l27.6 27.601c-11.606 12.59-19.708 23.261-28.162 34.408-9.812 12.938-19.907 26.245-36.864 44.229a245.841 245.841 0 0 1-21.814-19.399zm64.75-220.999c14.115-.775 33.944 4.789 55.623 17.242-16.203 17.512-26.412 30.971-35.66 43.166-7.754 10.226-15.191 20.024-25.497 31.304l-27.526-27.526c11.973-15.019 18.05-29.611 23.962-43.814 2.772-6.661 5.582-13.404 9.098-20.372zm15.701 112.947c11.608-12.591 19.711-23.263 28.165-34.412 9.811-12.937 19.905-26.242 36.86-44.224a246.212 246.212 0 0 1 21.813 19.398 246.107 246.107 0 0 1 19.397 21.816c-17.98 16.953-31.286 27.046-44.223 36.857-11.148 8.454-21.82 16.557-34.412 28.165zM336.786 30c17.284 0 33.999 3.695 49.252 10.696-27.19 10.907-58.265 33.678-85.29 59.632-7.797-4.861-15.67-9.125-23.528-12.707-12.175-5.547-23.883-9.267-34.853-11.147 3.214-3.85 6.807-7.8 10.877-11.87C275.56 42.289 305.228 30 336.786 30ZM125.452 214.503c14.202-5.911 28.792-11.988 43.81-23.959l27.525 27.526c-11.278 10.304-21.075 17.74-31.3 25.495-12.195 9.248-25.656 19.459-43.168 35.663-12.455-21.681-18.018-41.51-17.244-55.625 6.97-3.517 13.716-6.327 20.378-9.1zm-60.918 38.812c4.07-4.07 8.02-7.663 11.87-10.877 1.88 10.971 5.6 22.679 11.147 34.852 3.581 7.859 7.846 15.732 12.707 23.529-25.931 27.002-48.685 58.049-59.602 85.222-19.905-43.596-11.95-96.898 23.878-132.726Zm8.194 134.63c9.68-19.358 25.562-41.139 45.301-62.27a279.51 279.51 0 0 0 19.543 21.682 279.523 279.523 0 0 0 21.683 19.543c-21.13 19.74-42.912 35.622-62.27 45.301-22.388 11.194-31.57 9.075-32.45 8.194-.882-.879-3-10.063 8.193-32.45zM148.076 455c-17.291 0-34.012-3.698-49.27-10.704 27.194-10.904 58.271-33.667 85.302-59.626 7.758 4.837 15.59 9.083 23.41 12.653 12.213 5.577 23.963 9.321 34.97 11.208a178.829 178.829 0 0 1-10.873 11.866C209.302 442.711 179.632 455 148.075 455Zm211.337-184.507c-14.203 5.911-28.794 11.989-43.814 23.962l-27.526-27.526c11.28-10.306 21.077-17.742 31.303-25.497 12.193-9.246 25.65-19.454 43.159-35.654 12.45 21.68 18.016 41.513 17.245 55.619-6.966 3.515-13.708 6.325-20.368 9.096zm60.914-38.808a178.625 178.625 0 0 1-11.87 10.875c-1.887-11.008-5.628-22.76-11.206-34.975-3.569-7.818-7.814-15.648-12.65-23.404 25.932-27.002 48.685-58.048 59.603-85.221 19.906 43.595 11.951 96.897-23.878 132.725z" fill="#a64f16"/></g></svg>