<svg width="441.302" height="441.302" viewBox="0 0 116.761 116.761" xmlns="http://www.w3.org/2000/svg"><path d="m88.11 96.172 1.873.26-.26 1.872-1.872-.26zM90.372 93.624l1.872.26-.26 1.872-1.871-.26zM92.79 96.822l1.873.26-.26 1.871-1.872-.26zM95.052 94.273l1.872.26-.26 1.872-1.872-.26zM96.535 97.341l1.872.26-.26 1.872-1.872-.26z"/><path d="M96.046 83.67c.898 1.094 2.259 2.185 4.216 2.457 2.35.326 5.029-.633 7.961-2.851a.945.945 0 0 0 .184-1.324c-2.218-2.932-4.534-4.584-6.885-4.91-1.957-.272-3.564.408-4.725 1.216l1.876-13.526c1.117 1.549 2.954 3.264 5.749 3.652 2.995.416 6.424-.82 10.193-3.673a.945.945 0 0 0 .183-1.324c-2.85-3.768-5.813-5.89-8.808-6.305-3.588-.498-6.252 1.537-7.616 2.93-.933-1.712-2.942-4.395-6.53-4.892-2.995-.416-6.424.819-10.193 3.669a.945.945 0 0 0-.183 1.323c2.85 3.772 5.813 5.894 8.808 6.31 2.795.388 5.03-.763 6.525-1.95l-1.227 8.849c-.898-1.093-2.259-2.184-4.216-2.455-2.35-.326-5.029.631-7.96 2.846a.945.945 0 0 0-.185 1.324c2.218 2.932 4.534 4.585 6.885 4.91 1.957.272 3.564-.408 4.725-1.216zm1.392-3.519c.882-.724 2.212-1.461 3.825-1.237 1.642.228 3.334 1.377 5.036 3.42-2.194 1.503-4.135 2.149-5.777 1.92-1.613-.223-2.693-1.295-3.344-2.231l6.742.935.26-1.872zm2.581-19.093c1.165-1.09 3.178-2.455 5.711-2.104 2.287.317 4.628 1.937 6.969 4.817-3.037 2.137-5.73 3.059-8.016 2.742h-.001c-2.534-.352-4.1-2.218-4.924-3.584l9.44 1.31.26-1.872-9.439-1.31Zm-9.484 3.492c-2.287-.317-4.628-1.938-6.967-4.82 3.035-2.135 5.73-3.056 8.016-2.738 2.533.351 4.099 2.214 4.923 3.578l-9.438-1.309-.26 1.872 9.446 1.31c-1.159 1.09-3.17 2.46-5.72 2.107zm-.177 13.525c-1.643-.228-3.334-1.377-5.036-3.42 2.193-1.5 4.133-2.145 5.776-1.917 1.612.223 2.691 1.292 3.343 2.227l-6.74-.935-.26 1.872 6.741.935c-.882.725-2.212 1.462-3.824 1.238zm-5.86 20.458c1.05-4.141 5.081-6.927 9.41-6.326 4.328.6 7.449 4.378 7.333 8.649z" fill="#803300"/><g><path d="m88.11 96.172 1.873.26-.26 1.872-1.872-.26zM90.372 93.624l1.872.26-.26 1.872-1.871-.26zM92.79 96.822l1.873.26-.26 1.871-1.872-.26zM95.052 94.273l1.872.26-.26 1.872-1.872-.26zM96.535 97.341l1.872.26-.26 1.872-1.872-.26z"/><path d="M103.122 101.117c.237-4.994-3.155-9.479-8.024-10.61l-1.872-.26c-4.994-.237-9.479 3.155-10.61 8.025zM97.438 80.15c.882-.724 2.212-1.461 3.825-1.237 1.642.228 3.334 1.377 5.036 3.42-2.194 1.503-4.135 2.149-5.777 1.92-1.613-.223-2.693-1.295-3.344-2.231l6.742.935.26-1.872zm2.581-19.093c1.165-1.09 3.178-2.455 5.711-2.104 2.287.317 4.628 1.937 6.969 4.817-3.037 2.137-5.73 3.059-8.016 2.742h-.001c-2.534-.352-4.1-2.218-4.924-3.584l9.44 1.31.26-1.872zm-9.484 3.492c-2.287-.317-4.628-1.938-6.967-4.82 3.035-2.135 5.73-3.056 8.016-2.738 2.533.351 4.099 2.214 4.923 3.578l-9.438-1.309-.26 1.872 9.446 1.31c-1.159 1.09-3.17 2.46-5.72 2.107zm-.177 13.525c-1.643-.228-3.334-1.377-5.036-3.42 2.193-1.5 4.133-2.145 5.776-1.917 1.612.223 2.691 1.292 3.343 2.227l-6.74-.935-.26 1.872 6.741.935c-.882.725-2.212 1.462-3.824 1.238zm-5.86 20.458c1.05-4.141 5.081-6.927 9.41-6.326 4.328.6 7.449 4.378 7.333 8.649z" fill="#5aa02c"/></g><g><path d="m88.11 96.172 1.873.26-.26 1.872-1.872-.26zM90.372 93.624l1.872.26-.26 1.872-1.871-.26zM92.79 96.822l1.873.26-.26 1.871-1.872-.26zM95.052 94.273l1.872.26-.26 1.872-1.872-.26zM96.535 97.341l1.872.26-.26 1.872-1.872-.26z"/><path d="M103.122 101.117c.237-4.994-3.155-9.479-8.024-10.61l.948-6.837c.898 1.094 2.259 2.185 4.216 2.457 2.35.326 5.029-.633 7.961-2.851a.945.945 0 0 0 .184-1.324c-2.218-2.932-4.534-4.584-6.885-4.91-1.957-.272-3.564.408-4.725 1.216l1.876-13.526c1.117 1.549 2.954 3.264 5.749 3.652 2.995.416 6.424-.82 10.193-3.673a.945.945 0 0 0 .183-1.324c-2.85-3.768-5.813-5.89-8.808-6.305-3.588-.498-6.252 1.537-7.616 2.93-.933-1.712-2.942-4.395-6.53-4.892-2.995-.416-6.424.819-10.193 3.669a.945.945 0 0 0-.183 1.323c2.85 3.772 5.813 5.894 8.808 6.31 2.795.388 5.03-.763 6.525-1.95l-1.227 8.849c-.898-1.093-2.259-2.184-4.216-2.455-2.35-.326-5.029.631-7.96 2.846a.945.945 0 0 0-.185 1.324c2.218 2.932 4.534 4.585 6.885 4.91 1.957.272 3.564-.408 4.725-1.216l-1.597 11.518c-4.994-.238-9.479 3.154-10.61 8.024-.407 2.047 20.251 5 20.506 2.845zM97.438 80.15c.882-.724 2.212-1.461 3.825-1.237 1.642.228 3.334 1.377 5.036 3.42-2.194 1.503-4.135 2.149-5.777 1.92-1.613-.223-2.693-1.295-3.344-2.231l6.742.935.26-1.872zm2.581-19.093c1.165-1.09 3.178-2.455 5.711-2.104 2.287.317 4.628 1.937 6.969 4.817-3.037 2.137-5.73 3.059-8.016 2.742h-.001c-2.534-.352-4.1-2.218-4.924-3.584l9.44 1.31.26-1.872zm-9.484 3.492c-2.287-.317-4.628-1.938-6.967-4.82 3.035-2.135 5.73-3.056 8.016-2.738 2.533.351 4.099 2.214 4.923 3.578l-9.438-1.309-.26 1.872 9.446 1.31c-1.159 1.09-3.17 2.46-5.72 2.107zm-.177 13.525c-1.643-.228-3.334-1.377-5.036-3.42 2.193-1.5 4.133-2.145 5.776-1.917 1.612.223 2.691 1.292 3.343 2.227l-6.74-.935-.26 1.872 6.741.935c-.882.725-2.212 1.462-3.824 1.238zm-5.86 20.458c1.05-4.141 5.081-6.927 9.41-6.326 4.328.6 7.449 4.378 7.333 8.649z"/></g><g><path d="m18.261 97.587 1.873-.25.25 1.873-1.873.25zM19.759 94.527l1.873-.25.25 1.873-1.873.25zM22.944 96.961l1.873-.25.25 1.873-1.873.25zM24.442 93.901l1.873-.25.25 1.873-1.873.25zM26.69 96.46l1.874-.25.25 1.873-1.873.25z"/><path d="M22.563 83.418c1.158.814 2.761 1.502 4.72 1.24 2.352-.314 4.676-1.955 6.909-4.876a.945.945 0 0 0-.177-1.325c-2.922-2.232-5.595-3.205-7.948-2.89-1.958.261-3.324 1.346-4.227 2.436l-1.81-13.535c1.49 1.193 3.719 2.355 6.516 1.981h.001c2.996-.4 5.97-2.508 8.838-6.266a.945.945 0 0 0-.177-1.324c-3.754-2.869-7.177-4.12-10.174-3.72-3.59.48-5.613 3.153-6.555 4.86-1.357-1.4-4.01-3.447-7.6-2.967-2.997.4-5.971 2.507-8.84 6.261a.945.945 0 0 0 .176 1.325c3.755 2.871 7.178 4.124 10.175 3.724 2.797-.374 4.643-2.08 5.767-3.624l1.183 8.854c-1.157-.813-2.76-1.5-4.719-1.238-2.351.315-4.676 1.954-6.909 4.872a.945.945 0 0 0 .177 1.325c2.921 2.232 5.595 3.205 7.947 2.89 1.959-.261 3.325-1.346 4.228-2.436zm.4-3.763c.657-.933 1.741-2 3.355-2.215 1.644-.22 3.58.436 5.767 1.95-1.712 2.034-3.409 3.175-5.053 3.395-1.614.216-2.94-.528-3.818-1.257l6.746-.901-.25-1.874zm-2.619-19.088c.831-1.36 2.406-3.216 4.94-3.554 2.289-.306 4.978.628 8.003 2.777-2.354 2.871-4.702 4.48-6.99 4.786h-.001c-2.536.339-4.544-1.04-5.703-2.136l9.446-1.262-.25-1.874-9.445 1.263Zm-8.204 5.902c-2.289.306-4.978-.63-8.003-2.782 2.354-2.868 4.703-4.476 6.992-4.782 2.535-.339 4.542 1.038 5.7 2.132l-9.444 1.262.25 1.874 9.453-1.264c-.825 1.36-2.396 3.218-4.948 3.56zm3.446 13.08c-1.644.219-3.58-.436-5.767-1.95 1.712-2.032 3.41-3.172 5.053-3.391 1.613-.216 2.939.525 3.817 1.252l-6.746.902.25 1.873 6.747-.902c-.656.934-1.74 2-3.354 2.215zm-.175 21.28c-.095-4.272 3.044-8.034 7.375-8.613 4.332-.58 8.349 2.226 9.38 6.373z" fill="#803300"/><g><path d="m18.261 97.587 1.873-.25.25 1.873-1.873.25zM19.759 94.527l1.873-.25.25 1.873-1.873.25zM22.944 96.961l1.873-.25.25 1.873-1.873.25zM24.442 93.901l1.873-.25.25 1.873-1.873.25zM26.69 96.46l1.874-.25.25 1.873-1.873.25z"/><path d="M34.048 98.337c-1.107-4.875-5.575-8.29-10.57-8.077l-1.873.25c-4.875 1.107-8.29 5.576-8.077 10.57zM22.963 79.655c.657-.933 1.741-2 3.355-2.215 1.644-.22 3.58.436 5.767 1.95-1.712 2.034-3.409 3.175-5.053 3.395-1.614.216-2.94-.528-3.818-1.257l6.746-.901-.25-1.874zm-2.619-19.088c.831-1.36 2.406-3.216 4.94-3.554 2.289-.306 4.978.628 8.003 2.777-2.354 2.871-4.702 4.48-6.99 4.786h-.001c-2.536.339-4.544-1.04-5.703-2.136l9.446-1.262-.25-1.874zm-8.204 5.902c-2.289.306-4.978-.63-8.003-2.782 2.354-2.868 4.703-4.476 6.992-4.782 2.535-.339 4.542 1.038 5.7 2.132l-9.444 1.262.25 1.874 9.453-1.264c-.825 1.36-2.396 3.218-4.948 3.56zm3.446 13.08c-1.644.219-3.58-.436-5.767-1.95 1.712-2.032 3.41-3.172 5.053-3.391 1.613-.216 2.939.525 3.817 1.252l-6.746.902.25 1.873 6.747-.902c-.656.934-1.74 2-3.354 2.215zm-.175 21.28c-.095-4.272 3.044-8.034 7.375-8.613 4.332-.58 8.349 2.226 9.38 6.373z" fill="#5aa02c"/></g><g><path d="m18.261 97.587 1.873-.25.25 1.873-1.873.25zM19.759 94.527l1.873-.25.25 1.873-1.873.25zM22.944 96.961l1.873-.25.25 1.873-1.873.25zM24.442 93.901l1.873-.25.25 1.873-1.873.25zM26.69 96.46l1.874-.25.25 1.873-1.873.25z"/><path d="M34.048 98.337c-1.107-4.875-5.575-8.29-10.57-8.077l-.915-6.842c1.158.814 2.761 1.502 4.72 1.24 2.352-.314 4.676-1.955 6.909-4.876a.945.945 0 0 0-.177-1.325c-2.922-2.232-5.595-3.205-7.948-2.89-1.958.261-3.324 1.346-4.227 2.436l-1.81-13.535c1.49 1.193 3.719 2.355 6.516 1.981h.001c2.996-.4 5.97-2.508 8.838-6.266a.945.945 0 0 0-.177-1.324c-3.754-2.869-7.177-4.12-10.174-3.72-3.59.48-5.613 3.153-6.555 4.86-1.357-1.4-4.01-3.447-7.6-2.967-2.997.4-5.971 2.507-8.84 6.261a.945.945 0 0 0 .176 1.325c3.755 2.871 7.178 4.124 10.175 3.724 2.797-.374 4.643-2.08 5.767-3.624l1.183 8.854c-1.157-.813-2.76-1.5-4.719-1.238-2.351.315-4.676 1.954-6.909 4.872a.945.945 0 0 0 .177 1.325c2.921 2.232 5.595 3.205 7.947 2.89 1.959-.261 3.325-1.346 4.228-2.436l1.54 11.526c-4.874 1.106-8.289 5.575-8.076 10.57.156 2.08 20.85-.6 20.52-2.744zM22.963 79.655c.657-.933 1.741-2 3.355-2.215 1.644-.22 3.58.436 5.767 1.95-1.712 2.034-3.409 3.175-5.053 3.395-1.614.216-2.94-.528-3.818-1.257l6.746-.901-.25-1.874zm-2.619-19.088c.831-1.36 2.406-3.216 4.94-3.554 2.289-.306 4.978.628 8.003 2.777-2.354 2.871-4.702 4.48-6.99 4.786h-.001c-2.536.339-4.544-1.04-5.703-2.136l9.446-1.262-.25-1.874zm-8.204 5.902c-2.289.306-4.978-.63-8.003-2.782 2.354-2.868 4.703-4.476 6.992-4.782 2.535-.339 4.542 1.038 5.7 2.132l-9.444 1.262.25 1.874 9.453-1.264c-.825 1.36-2.396 3.218-4.948 3.56zm3.446 13.08c-1.644.219-3.58-.436-5.767-1.95 1.712-2.032 3.41-3.172 5.053-3.391 1.613-.216 2.939.525 3.817 1.252l-6.746.902.25 1.873 6.747-.902c-.656.934-1.74 2-3.354 2.215zm-.175 21.28c-.095-4.272 3.044-8.034 7.375-8.613 4.332-.58 8.349 2.226 9.38 6.373z"/></g></g><g><path d="M53.183 92.455h1.89v1.89h-1.89zM55.073 89.62h1.89v1.89h-1.89zM57.908 92.455h1.89v1.89h-1.89zM59.798 89.62h1.89v1.89h-1.89zM61.688 92.455h1.89v1.89h-1.89z"/><path d="M59.326 78.98c1.039.961 2.537 1.855 4.513 1.855 2.373 0 4.894-1.318 7.494-3.918a.945.945 0 0 0 0-1.336c-2.6-2.6-5.121-3.918-7.494-3.918-1.976 0-3.474.894-4.513 1.855V59.862c1.318 1.38 3.373 2.827 6.195 2.828h.001c3.023 0 6.25-1.696 9.591-5.04a.945.945 0 0 0 0-1.336c-3.341-3.341-6.568-5.035-9.592-5.035-3.622 0-5.98 2.381-7.14 3.948-1.16-1.567-3.519-3.948-7.141-3.948-3.024 0-6.25 1.694-9.592 5.035a.945.945 0 0 0 0 1.336c3.341 3.344 6.568 5.04 9.592 5.04 2.822 0 4.877-1.447 6.196-2.828v8.933c-1.04-.96-2.538-1.853-4.514-1.853-2.373 0-4.894 1.317-7.494 3.914a.945.945 0 0 0 0 1.337c2.6 2.6 5.121 3.917 7.494 3.917 1.976 0 3.474-.894 4.514-1.854zm.895-3.676c.774-.838 1.99-1.751 3.618-1.751 1.658 0 3.492.906 5.458 2.696-1.966 1.79-3.8 2.696-5.458 2.696-1.629 0-2.845-.913-3.619-1.75h6.807v-1.89zm-.068-19.267c1.005-1.238 2.811-2.868 5.368-2.868 2.31 0 4.85 1.282 7.564 3.813-2.713 2.534-5.254 3.818-7.563 3.818-2.558 0-4.366-1.634-5.37-2.873h9.53v-1.89h-9.529ZM51.24 60.8c-2.31 0-4.85-1.284-7.564-3.818 2.713-2.53 5.255-3.813 7.564-3.813 2.557 0 4.364 1.63 5.368 2.868h-9.529v1.89h9.537c-.998 1.24-2.802 2.873-5.376 2.873zm1.682 13.42c-1.658 0-3.491-.905-5.458-2.695 1.967-1.788 3.8-2.693 5.458-2.693 1.628 0 2.843.911 3.617 1.747h-6.805v1.89h6.807c-.775.839-1.99 1.752-3.619 1.752zM49.93 95.29c.471-4.246 4.082-7.56 8.452-7.56s7.98 3.314 8.451 7.56z" fill="#803300"/><g><path d="M53.183 92.455h1.89v1.89h-1.89zM55.073 89.62h1.89v1.89h-1.89zM57.908 92.455h1.89v1.89h-1.89zM59.798 89.62h1.89v1.89h-1.89zM61.688 92.455h1.89v1.89h-1.89z"/><path d="M68.732 95.29c-.451-4.979-4.428-8.955-9.406-9.406h-1.89c-4.98.45-8.956 4.427-9.406 9.406zM60.22 75.304c.774-.838 1.99-1.751 3.618-1.751 1.658 0 3.492.906 5.458 2.696-1.966 1.79-3.8 2.696-5.458 2.696-1.629 0-2.845-.913-3.619-1.75h6.807v-1.89zm-.068-19.267c1.005-1.238 2.811-2.868 5.368-2.868 2.31 0 4.85 1.282 7.564 3.813-2.713 2.534-5.254 3.818-7.563 3.818-2.558 0-4.366-1.634-5.37-2.873h9.53v-1.89zM51.24 60.8c-2.31 0-4.85-1.284-7.564-3.818 2.713-2.53 5.255-3.813 7.564-3.813 2.557 0 4.364 1.63 5.368 2.868h-9.529v1.89h9.537c-.998 1.24-2.802 2.873-5.376 2.873zm1.682 13.42c-1.658 0-3.491-.905-5.458-2.695 1.967-1.788 3.8-2.693 5.458-2.693 1.628 0 2.843.911 3.617 1.747h-6.805v1.89h6.807c-.775.839-1.99 1.752-3.619 1.752zM49.93 95.29c.471-4.246 4.082-7.56 8.452-7.56s7.98 3.314 8.451 7.56z" fill="#5aa02c"/></g><g><path d="M53.183 92.455h1.89v1.89h-1.89zM55.073 89.62h1.89v1.89h-1.89zM57.908 92.455h1.89v1.89h-1.89zM59.798 89.62h1.89v1.89h-1.89zM61.688 92.455h1.89v1.89h-1.89z"/><path d="M68.732 95.29c-.451-4.979-4.428-8.955-9.406-9.406v-6.903c1.039.96 2.537 1.854 4.513 1.854 2.373 0 4.894-1.318 7.494-3.918a.945.945 0 0 0 0-1.336c-2.6-2.6-5.121-3.918-7.494-3.918-1.976 0-3.474.894-4.513 1.855V59.862c1.318 1.38 3.373 2.827 6.195 2.828h.001c3.023 0 6.25-1.696 9.591-5.04a.945.945 0 0 0 0-1.336c-3.341-3.341-6.568-5.035-9.592-5.035-3.622 0-5.98 2.381-7.14 3.948-1.16-1.567-3.519-3.948-7.141-3.948-3.024 0-6.25 1.694-9.592 5.035a.945.945 0 0 0 0 1.336c3.341 3.344 6.568 5.04 9.592 5.04 2.822 0 4.877-1.447 6.196-2.828v8.933c-1.04-.96-2.538-1.853-4.514-1.853-2.373 0-4.894 1.317-7.494 3.914a.945.945 0 0 0 0 1.337c2.6 2.6 5.121 3.917 7.494 3.917 1.976 0 3.474-.894 4.514-1.854v11.628c-4.98.45-8.956 4.427-9.406 9.406-.122 2.084 20.745 2.17 20.702 0zM60.22 75.304c.774-.838 1.99-1.751 3.618-1.751 1.658 0 3.492.906 5.458 2.696-1.966 1.79-3.8 2.696-5.458 2.696-1.629 0-2.845-.913-3.619-1.75h6.807v-1.89zm-.068-19.267c1.005-1.238 2.811-2.868 5.368-2.868 2.31 0 4.85 1.282 7.564 3.813-2.713 2.534-5.254 3.818-7.563 3.818-2.558 0-4.366-1.634-5.37-2.873h9.53v-1.89zM51.24 60.8c-2.31 0-4.85-1.284-7.564-3.818 2.713-2.53 5.255-3.813 7.564-3.813 2.557 0 4.364 1.63 5.368 2.868h-9.529v1.89h9.537c-.998 1.24-2.802 2.873-5.376 2.873zm1.682 13.42c-1.658 0-3.491-.905-5.458-2.695 1.967-1.788 3.8-2.693 5.458-2.693 1.628 0 2.843.911 3.617 1.747h-6.805v1.89h6.807c-.775.839-1.99 1.752-3.619 1.752zM49.93 95.29c.471-4.246 4.082-7.56 8.452-7.56s7.98 3.314 8.451 7.56z"/></g></g><g><path d="M129.853 105.826A246.276 246.276 0 0 0 58.38 95.25a246.28 246.28 0 0 0-71.473 10.576 1.814 1.814 0 0 0 1.052 3.471 242.648 242.648 0 0 1 70.42-10.42 242.65 242.65 0 0 1 70.42 10.42 1.812 1.812 0 0 0 2.263-1.21 1.814 1.814 0 0 0-1.21-2.261z"/><path d="M18.647 21.573a1.814 1.814 0 0 0 1.588-1.157 7.923 7.923 0 0 1 7.346-5.042 7.893 7.893 0 0 1 6.852 3.998 1.814 1.814 0 0 0 2.668.554 6.162 6.162 0 0 1 3.733-1.254 6.231 6.231 0 0 1 6.224 6.224v.041H14.354a4.783 4.783 0 0 1 4.293-3.364zM82.603 34.89c.608 0 1.185.155 1.716.46a1.813 1.813 0 0 0 2.508-.73 4.905 4.905 0 0 1 4.35-2.635c1.83 0 3.497 1.01 4.35 2.635a1.811 1.811 0 0 0 2.508.73 3.407 3.407 0 0 1 1.715-.46 3.467 3.467 0 0 1 3.306 2.437h-23.76a3.469 3.469 0 0 1 3.307-2.436z" fill="#dbe3de"/></g><g><path d="M129.853 105.826A246.276 246.276 0 0 0 58.38 95.25a246.28 246.28 0 0 0-71.473 10.576 1.814 1.814 0 0 0 1.052 3.471 242.648 242.648 0 0 1 70.42-10.42 242.65 242.65 0 0 1 70.42 10.42 1.812 1.812 0 0 0 2.263-1.21 1.814 1.814 0 0 0-1.21-2.261zM10.541 26.864c.06.955.852 1.7 1.81 1.7h36.297c.84 0 1.572-.578 1.765-1.396.18-.764.272-1.528.272-2.272 0-5.432-4.419-9.851-9.85-9.851a9.738 9.738 0 0 0-4.299.99 11.528 11.528 0 0 0-8.954-4.288c-4.347 0-8.348 2.51-10.28 6.348-3.886.76-6.785 4.184-6.785 8.244 0 .148.009.294.019.44zm8.106-5.29a1.814 1.814 0 0 0 1.588-1.158 7.923 7.923 0 0 1 7.346-5.042 7.893 7.893 0 0 1 6.852 3.998 1.814 1.814 0 0 0 2.668.554 6.162 6.162 0 0 1 3.733-1.254 6.231 6.231 0 0 1 6.224 6.224v.041H14.354a4.783 4.783 0 0 1 4.293-3.364zM77.395 40.955h27.565c.898 0 1.66-.657 1.794-1.545a7 7 0 0 0 .085-1.058 7.096 7.096 0 0 0-7.088-7.088c-.654 0-1.304.092-1.93.27a8.513 8.513 0 0 0-6.644-3.176 8.513 8.513 0 0 0-6.643 3.176 7.05 7.05 0 0 0-1.93-.27 7.096 7.096 0 0 0-7.088 7.088c0 .33.028.677.086 1.06a1.813 1.813 0 0 0 1.793 1.543zm5.208-6.064c.608 0 1.185.154 1.716.46a1.813 1.813 0 0 0 2.508-.73 4.905 4.905 0 0 1 4.35-2.636c1.83 0 3.497 1.01 4.35 2.635a1.811 1.811 0 0 0 2.508.73 3.407 3.407 0 0 1 1.715-.46 3.467 3.467 0 0 1 3.306 2.437h-23.76a3.469 3.469 0 0 1 3.307-2.436z"/></g></svg>