<svg width="611.994" height="611.994" viewBox="0 0 161.923 161.923" xmlns="http://www.w3.org/2000/svg"><path d="m119.815 53.996 13.723 13.726c8.22 8.22 8.22 20.37 8.22 20.37l2.184-3.66c3.595-6.027 6.349-13.262 5.89-19.212-.75-9.738-6.89-17.242-10.562-20.912l-4.885-4.883 9.712-9.714-35.16-1.256 1.257 35.159zM42.11 108.449 28.384 94.728c-8.22-8.224-8.22-20.372-8.22-20.372l-2.183 3.658c-3.594 6.026-6.35 13.262-5.891 19.21.75 9.742 6.89 17.246 10.564 20.914l4.884 4.885-9.715 9.713 35.163 1.256-1.258-35.158z"/><g><path d="m95.005 157.556-24.302-24.302 46.047-46.047 24.302 24.302Z" fill="#fc0"/><path d="M105.878 114.301c-2.159 0-4.188.84-5.714 2.367-3.15 3.15-3.15 8.277 0 11.427a8.027 8.027 0 0 0 5.714 2.367c2.158 0 4.187-.84 5.713-2.367 3.15-3.15 3.15-8.276 0-11.427a8.026 8.026 0 0 0-5.713-2.367zm3.155 11.236a4.433 4.433 0 0 1-3.155 1.306 4.433 4.433 0 0 1-3.156-1.306 4.467 4.467 0 0 1 0-6.31 4.433 4.433 0 0 1 3.156-1.308c1.191 0 2.312.464 3.155 1.307a4.467 4.467 0 0 1 0 6.31z"/><path d="M112.315 95.802c-.48 0-.94.19-1.279.53L79.828 127.54a1.809 1.809 0 0 0 0 2.558 4.467 4.467 0 0 1 0 6.31 1.809 1.809 0 0 0 0 2.559l9.464 9.464a1.809 1.809 0 0 0 2.558 0 4.433 4.433 0 0 1 3.155-1.306c1.192 0 2.313.464 3.155 1.306a1.809 1.809 0 0 0 2.56 0l31.208-31.208a1.809 1.809 0 0 0 0-2.559 4.467 4.467 0 0 1 0-6.31 1.809 1.809 0 0 0 0-2.558l-9.464-9.464a1.809 1.809 0 0 0-2.559 0 4.433 4.433 0 0 1-3.155 1.306 4.433 4.433 0 0 1-3.155-1.306c-.34-.34-.8-.53-1.28-.53zm8.726 4.224 7.193 7.193a8.107 8.107 0 0 0 0 8.58l-28.937 28.938a8.025 8.025 0 0 0-4.292-1.23 8.025 8.025 0 0 0-4.291 1.23l-7.193-7.193a8.107 8.107 0 0 0 0-8.58l28.937-28.938a8.025 8.025 0 0 0 4.292 1.23 8.025 8.025 0 0 0 4.291-1.23z"/><g><path d="m144.89 110.23-26.86-26.86a1.81 1.81 0 0 0-2.56 0l-48.604 48.604a1.809 1.809 0 0 0 0 2.559l26.86 26.86a1.81 1.81 0 0 0 2.559 0l48.605-48.605a1.809 1.809 0 0 0 0-2.558zm-49.885 47.326-24.302-24.302 46.047-46.047 24.302 24.302Z"/><path d="M105.878 114.301c-2.159 0-4.188.84-5.714 2.367-3.15 3.15-3.15 8.277 0 11.427a8.027 8.027 0 0 0 5.714 2.367c2.158 0 4.187-.84 5.713-2.367 3.15-3.15 3.15-8.276 0-11.427a8.026 8.026 0 0 0-5.713-2.367zm3.155 11.236a4.433 4.433 0 0 1-3.155 1.306 4.433 4.433 0 0 1-3.156-1.306 4.467 4.467 0 0 1 0-6.31 4.433 4.433 0 0 1 3.156-1.308c1.191 0 2.312.464 3.155 1.307a4.467 4.467 0 0 1 0 6.31z"/><path d="m121.041 100.026 7.193 7.193a8.107 8.107 0 0 0 0 8.58l-28.937 28.938a8.025 8.025 0 0 0-4.292-1.23 8.025 8.025 0 0 0-4.291 1.23l-7.193-7.193a8.107 8.107 0 0 0 0-8.58l28.937-28.938a8.025 8.025 0 0 0 4.292 1.23 8.025 8.025 0 0 0 4.291-1.23z" fill="#d69500"/></g><g><path d="m144.89 110.23-26.86-26.86a1.81 1.81 0 0 0-2.56 0l-48.604 48.604a1.809 1.809 0 0 0 0 2.559l26.86 26.86a1.81 1.81 0 0 0 2.559 0l48.605-48.605a1.809 1.809 0 0 0 0-2.558zm-49.885 47.326-24.302-24.302 46.047-46.047 24.302 24.302Z"/><path d="M105.878 114.301c-2.159 0-4.188.84-5.714 2.367-3.15 3.15-3.15 8.277 0 11.427a8.027 8.027 0 0 0 5.714 2.367c2.158 0 4.187-.84 5.713-2.367 3.15-3.15 3.15-8.276 0-11.427a8.026 8.026 0 0 0-5.713-2.367zm3.155 11.236a4.433 4.433 0 0 1-3.155 1.306 4.433 4.433 0 0 1-3.156-1.306 4.467 4.467 0 0 1 0-6.31 4.433 4.433 0 0 1 3.156-1.308c1.191 0 2.312.464 3.155 1.307a4.467 4.467 0 0 1 0 6.31z"/><path d="M112.315 95.802c-.48 0-.94.19-1.279.53L79.828 127.54a1.809 1.809 0 0 0 0 2.558 4.467 4.467 0 0 1 0 6.31 1.809 1.809 0 0 0 0 2.559l9.464 9.464a1.809 1.809 0 0 0 2.558 0 4.433 4.433 0 0 1 3.155-1.306c1.192 0 2.313.464 3.155 1.306a1.809 1.809 0 0 0 2.56 0l31.208-31.208a1.809 1.809 0 0 0 0-2.559 4.467 4.467 0 0 1 0-6.31 1.809 1.809 0 0 0 0-2.558l-9.464-9.464a1.809 1.809 0 0 0-2.559 0 4.433 4.433 0 0 1-3.155 1.306 4.433 4.433 0 0 1-3.155-1.306c-.34-.34-.8-.53-1.28-.53zm8.726 4.224 7.193 7.193a8.107 8.107 0 0 0 0 8.58l-28.937 28.938a8.025 8.025 0 0 0-4.292-1.23 8.025 8.025 0 0 0-4.291 1.23l-7.193-7.193a8.107 8.107 0 0 0 0-8.58l28.937-28.938a8.025 8.025 0 0 0 4.292 1.23 8.025 8.025 0 0 0 4.291-1.23z"/></g><g><path d="m144.89 110.23-26.86-26.86a1.81 1.81 0 0 0-2.56 0l-48.604 48.604a1.809 1.809 0 0 0 0 2.559l26.86 26.86a1.81 1.81 0 0 0 2.559 0l48.605-48.605a1.809 1.809 0 0 0 0-2.558zm-49.885 47.326-24.302-24.302 46.047-46.047 24.302 24.302Z"/><path d="M109.033 125.537a4.433 4.433 0 0 1-3.155 1.306 4.433 4.433 0 0 1-3.156-1.306 4.467 4.467 0 0 1 0-6.31 4.433 4.433 0 0 1 3.156-1.308c1.191 0 2.312.464 3.155 1.307a4.467 4.467 0 0 1 0 6.31z" fill="#fc0"/><path d="M112.315 95.802c-.48 0-.94.19-1.279.53L79.828 127.54a1.809 1.809 0 0 0 0 2.558 4.467 4.467 0 0 1 0 6.31 1.809 1.809 0 0 0 0 2.559l9.464 9.464a1.809 1.809 0 0 0 2.558 0 4.433 4.433 0 0 1 3.155-1.306c1.192 0 2.313.464 3.155 1.306a1.809 1.809 0 0 0 2.56 0l31.208-31.208a1.809 1.809 0 0 0 0-2.559 4.467 4.467 0 0 1 0-6.31 1.809 1.809 0 0 0 0-2.558l-9.464-9.464a1.809 1.809 0 0 0-2.559 0 4.433 4.433 0 0 1-3.155 1.306 4.433 4.433 0 0 1-3.155-1.306c-.34-.34-.8-.53-1.28-.53zm8.726 4.224 7.193 7.193a8.107 8.107 0 0 0 0 8.58l-28.937 28.938a8.025 8.025 0 0 0-4.292-1.23 8.025 8.025 0 0 0-4.291 1.23l-7.193-7.193a8.107 8.107 0 0 0 0-8.58l28.937-28.938a8.025 8.025 0 0 0 4.292 1.23 8.025 8.025 0 0 0 4.291-1.23z"/></g><g><path d="M76.207 38.817a1.634 1.634 0 0 1 1.28-1.297 1.575 1.575 0 0 0 1.262-1.4 1.776 1.776 0 0 1 1.778-1.62c.52 0 1.015.228 1.355.624.393.456 1.01.649 1.593.497a1.625 1.625 0 0 1 1.913.94c.28.66.97 1.048 1.679.946a1.63 1.63 0 0 1 1.864 1.608c0 .897-.729 1.626-1.625 1.627l-9.773-.025a1.624 1.624 0 0 1-1.326-1.9zM57.135 14.272a3.294 3.294 0 0 1-3.29-3.29 3.294 3.294 0 0 1 3.771-3.255 1.575 1.575 0 0 0 1.677-.945 3.286 3.286 0 0 1 3.868-1.902c.583.152 1.2-.04 1.593-.497a3.532 3.532 0 0 1 2.68-1.232 3.514 3.514 0 0 1 3.517 3.203 1.576 1.576 0 0 0 1.263 1.401 3.295 3.295 0 0 1 2.646 3.227 3.294 3.294 0 0 1-3.29 3.29H57.135Zm-24.956 8.88a2.668 2.668 0 0 1-2.665-2.664c0-1.268.9-2.367 2.142-2.613a1.575 1.575 0 0 0 1.263-1.401 2.86 2.86 0 0 1 2.864-2.608c.838 0 1.633.365 2.181 1.003.393.457 1.011.65 1.594.497a2.662 2.662 0 0 1 3.133 1.54c.28.66.969 1.05 1.677.946a2.664 2.664 0 1 1 .39 5.3zm17.046 23.101a1.576 1.576 0 0 0-.655-2.265c-.631-.3-1.35-.897-2.138-1.777-4.592-5.125-6.004-12.429-6.428-15.908h.922c.23 2.026 1.096 5.385 4.037 9.063 3.222 4.026 5.974 5.09 7.716 5.274a1.58 1.58 0 0 0 1.37-.553c1.807-2.148 2.498-2.917 3.698-4.117l.345-.345c3.621-3.611 7.143-7.398 6.97-10.517-.101-1.806-.788-4.236-1.395-6.379-.128-.452-.253-.896-.366-1.307h3.097c1.24 2.319 3.733 7.08 4.485 9.228.746 2.131.923 2.637-5.962 8.91-1.767 1.61-2.917 3.86-3.42 6.688a1.575 1.575 0 0 0 2.35 1.633c3.149-1.852 6.573-2.886 9.301-3.46.098.35.236.684.407.998-1.793.572-3.938 1.6-6.217 3.425-4.104 3.282-5.14 6.075-5.286 7.84a1.57 1.57 0 0 0 .031.468 50.756 50.756 0 0 0 1.346 4.902h-18.8c.512-2.525 1.783-7.363 4.592-11.8zm28.808 29.68H35.554c-7.849 0-14.235-6.386-14.235-14.235v-.448h70.949v.448c0 7.849-6.386 14.235-14.235 14.235z" fill="#a40"/><path d="M65.358 63.508H26.25a1.575 1.575 0 0 0 0 3.15h39.108a1.575 1.575 0 0 0 0-3.15zM77.979 63.508h-5.142a1.575 1.575 0 0 0 0 3.15h5.142a1.575 1.575 0 0 0 0-3.15zM53.405 45.666a1.576 1.576 0 0 0-2.166.52c-2.46 4.011-3.69 7.818-3.741 7.978a1.575 1.575 0 0 0 3 .96c.012-.036 1.174-3.619 3.427-7.291a1.576 1.576 0 0 0-.52-2.167z"/><g><path d="M66.78 58.1a47.895 47.895 0 0 1-1.558-5.367c.142-.887.85-2.84 4.088-5.428 3.571-2.857 6.616-3.37 8.113-3.42l9.878.008h.004a4.783 4.783 0 0 0 4.777-4.777c0-2.49-1.914-4.54-4.347-4.758a4.77 4.77 0 0 0-4.132-1.932 4.93 4.93 0 0 0-3.075-1.076 4.91 4.91 0 0 0-4.702 3.42 4.841 4.841 0 0 0-2.372 2.38c-2.171.405-4.879 1.089-7.637 2.243a6.757 6.757 0 0 1 1.225-1.503c6.937-6.32 8.287-8.073 6.815-12.28-.676-1.93-2.494-5.525-3.893-8.187h1.605c3.552 0 6.441-2.89 6.441-6.44A6.458 6.458 0 0 0 73.9 4.976 6.646 6.646 0 0 0 67.434 0a6.675 6.675 0 0 0-4.407 1.66 6.43 6.43 0 0 0-6.099 2.884 6.449 6.449 0 0 0-6.233 6.438c0 3.551 2.889 6.44 6.44 6.44h2.909c.16.641.367 1.373.591 2.166.535 1.887 1.2 4.237 1.28 5.695.02.346-.13 1.397-1.93 3.667-1.278 1.613-2.92 3.25-4.118 4.445l-.348.347c-1.129 1.129-1.827 1.89-3.268 3.591-1.022-.341-2.716-1.297-4.827-3.936-2.331-2.914-3.094-5.48-3.328-7.093h.662a5.822 5.822 0 0 0 5.816-5.816 5.823 5.823 0 0 0-5.524-5.808 5.805 5.805 0 0 0-5.36-2.526 6.02 6.02 0 0 0-3.907-1.439 5.994 5.994 0 0 0-5.803 4.389 5.832 5.832 0 0 0-3.617 5.384 5.822 5.822 0 0 0 5.816 5.816h4.65c.425 3.912 1.935 12.07 7.257 18.01.57.637 1.125 1.168 1.672 1.598-2.766 4.89-3.923 9.862-4.346 12.188zm9.427-19.283a1.634 1.634 0 0 1 1.28-1.297 1.575 1.575 0 0 0 1.262-1.4 1.776 1.776 0 0 1 1.778-1.62c.52 0 1.015.228 1.355.624.393.456 1.01.649 1.593.497a1.625 1.625 0 0 1 1.913.94c.28.66.97 1.048 1.679.946a1.63 1.63 0 0 1 1.864 1.608c0 .897-.729 1.626-1.625 1.627l-9.773-.025a1.624 1.624 0 0 1-1.326-1.9zM57.135 14.272a3.294 3.294 0 0 1-3.29-3.29 3.294 3.294 0 0 1 3.771-3.255 1.575 1.575 0 0 0 1.677-.945 3.286 3.286 0 0 1 3.868-1.902c.583.152 1.2-.04 1.593-.497a3.532 3.532 0 0 1 2.68-1.232 3.514 3.514 0 0 1 3.517 3.203 1.576 1.576 0 0 0 1.263 1.401 3.295 3.295 0 0 1 2.646 3.227 3.294 3.294 0 0 1-3.29 3.29H57.135Zm-24.956 8.88a2.668 2.668 0 0 1-2.665-2.664c0-1.268.9-2.367 2.142-2.613a1.575 1.575 0 0 0 1.263-1.401 2.86 2.86 0 0 1 2.864-2.608c.838 0 1.633.365 2.181 1.003.393.457 1.011.65 1.594.497a2.662 2.662 0 0 1 3.133 1.54c.28.66.969 1.05 1.677.946a2.664 2.664 0 1 1 .39 5.3zm17.046 23.101a1.576 1.576 0 0 0-.655-2.265c-.631-.3-1.35-.897-2.138-1.777-4.592-5.125-6.004-12.429-6.428-15.908h.922c.23 2.026 1.096 5.385 4.037 9.063 3.222 4.026 5.974 5.09 7.716 5.274a1.58 1.58 0 0 0 1.37-.553c1.807-2.148 2.498-2.917 3.698-4.117l.345-.345c3.621-3.611 7.143-7.398 6.97-10.517-.101-1.806-.788-4.236-1.395-6.379-.128-.452-.253-.896-.366-1.307h3.097c1.24 2.319 3.733 7.08 4.485 9.228.746 2.131.923 2.637-5.962 8.91-1.767 1.61-2.917 3.86-3.42 6.688a1.575 1.575 0 0 0 2.35 1.633c3.149-1.852 6.573-2.886 9.301-3.46.098.35.236.684.407.998-1.793.572-3.938 1.6-6.217 3.425-4.104 3.282-5.14 6.075-5.286 7.84a1.57 1.57 0 0 0 .031.468 50.756 50.756 0 0 0 1.346 4.902h-18.8c.512-2.525 1.783-7.363 4.592-11.8zm28.808 29.68H35.554c-7.849 0-14.235-6.386-14.235-14.235v-.448h70.949v.448c0 7.849-6.386 14.235-14.235 14.235z" fill="#214478"/><path d="M65.358 63.508H26.25a1.575 1.575 0 0 0 0 3.15h39.108a1.575 1.575 0 0 0 0-3.15zM77.979 63.508h-5.142a1.575 1.575 0 0 0 0 3.15h5.142a1.575 1.575 0 0 0 0-3.15zM53.405 45.666a1.576 1.576 0 0 0-2.166.52c-2.46 4.011-3.69 7.818-3.741 7.978a1.575 1.575 0 0 0 3 .96c.012-.036 1.174-3.619 3.427-7.291a1.576 1.576 0 0 0-.52-2.167z"/></g><g><path d="M93.844 58.1H66.78a47.895 47.895 0 0 1-1.558-5.367c.142-.887.85-2.84 4.088-5.428 3.571-2.857 6.616-3.37 8.113-3.42l-3.969-6.734c-2.171.404-4.879 1.088-7.637 2.242a6.757 6.757 0 0 1 1.225-1.503c6.937-6.32 8.287-8.073 6.815-12.28-.676-1.93-2.494-5.525-3.893-8.187h-9.92c.16.64.367 1.372.591 2.165.535 1.887 1.2 4.237 1.28 5.695.02.346-.13 1.397-1.93 3.667-1.278 1.613-2.92 3.25-4.118 4.445l-.348.347c-1.129 1.129-1.827 1.89-3.268 3.591-1.022-.341-2.716-1.297-4.827-3.936-2.331-2.914-3.094-5.48-3.328-7.093h-7.267c.425 3.912 1.935 12.07 7.257 18.01.57.637 1.125 1.168 1.672 1.598-2.766 4.89-3.923 9.862-4.346 12.188H19.744c-.87 0-1.575.705-1.575 1.575v2.023c0 9.586 7.799 17.385 17.385 17.385h42.48c9.586 0 17.385-7.799 17.385-17.385v-2.023c0-.87-.705-1.575-1.575-1.575zM76.207 38.817a1.634 1.634 0 0 1 1.28-1.297 1.575 1.575 0 0 0 1.262-1.4 1.776 1.776 0 0 1 1.778-1.62c.52 0 1.015.228 1.355.624.393.456 1.01.649 1.593.497a1.625 1.625 0 0 1 1.913.94c.28.66.97 1.048 1.679.946a1.63 1.63 0 0 1 1.864 1.608c0 .897-.729 1.626-1.625 1.627l-9.773-.025a1.624 1.624 0 0 1-1.326-1.9zM57.135 14.272a3.294 3.294 0 0 1-3.29-3.29 3.294 3.294 0 0 1 3.771-3.255 1.575 1.575 0 0 0 1.677-.945 3.286 3.286 0 0 1 3.868-1.902c.583.152 1.2-.04 1.593-.497a3.532 3.532 0 0 1 2.68-1.232 3.514 3.514 0 0 1 3.517 3.203 1.576 1.576 0 0 0 1.263 1.401 3.295 3.295 0 0 1 2.646 3.227 3.294 3.294 0 0 1-3.29 3.29H57.135Zm-24.956 8.88a2.668 2.668 0 0 1-2.665-2.664c0-1.268.9-2.367 2.142-2.613a1.575 1.575 0 0 0 1.263-1.401 2.86 2.86 0 0 1 2.864-2.608c.838 0 1.633.365 2.181 1.003.393.457 1.011.65 1.594.497a2.662 2.662 0 0 1 3.133 1.54c.28.66.969 1.05 1.677.946a2.664 2.664 0 1 1 .39 5.3zm17.046 23.101a1.576 1.576 0 0 0-.655-2.265c-.631-.3-1.35-.897-2.138-1.777-4.592-5.125-6.004-12.429-6.428-15.908h.922c.23 2.026 1.096 5.385 4.037 9.063 3.222 4.026 5.974 5.09 7.716 5.274a1.58 1.58 0 0 0 1.37-.553c1.807-2.148 2.498-2.917 3.698-4.117l.345-.345c3.621-3.611 7.143-7.398 6.97-10.517-.101-1.806-.788-4.236-1.395-6.379-.128-.452-.253-.896-.366-1.307h3.097c1.24 2.319 3.733 7.08 4.485 9.228.746 2.131.923 2.637-5.962 8.91-1.767 1.61-2.917 3.86-3.42 6.688a1.575 1.575 0 0 0 2.35 1.633c3.149-1.852 6.573-2.886 9.301-3.46.098.35.236.684.407.998-1.793.572-3.938 1.6-6.217 3.425-4.104 3.282-5.14 6.075-5.286 7.84a1.57 1.57 0 0 0 .031.468 50.756 50.756 0 0 0 1.346 4.902h-18.8c.512-2.525 1.783-7.363 4.592-11.8zm28.808 29.68H35.554c-7.849 0-14.235-6.386-14.235-14.235v-.448h70.949v.448c0 7.849-6.386 14.235-14.235 14.235z" fill="green"/><path d="M65.358 63.508H26.25a1.575 1.575 0 0 0 0 3.15h39.108a1.575 1.575 0 0 0 0-3.15zM77.979 63.508h-5.142a1.575 1.575 0 0 0 0 3.15h5.142a1.575 1.575 0 0 0 0-3.15zM53.405 45.666a1.576 1.576 0 0 0-2.166.52c-2.46 4.011-3.69 7.818-3.741 7.978a1.575 1.575 0 0 0 3 .96c.012-.036 1.174-3.619 3.427-7.291a1.576 1.576 0 0 0-.52-2.167z"/></g><g><path d="M93.844 58.1H66.78a47.895 47.895 0 0 1-1.558-5.367c.142-.887.85-2.84 4.088-5.428 3.571-2.857 6.616-3.37 8.113-3.42l9.878.008h.004a4.783 4.783 0 0 0 4.777-4.777c0-2.49-1.914-4.54-4.347-4.758a4.77 4.77 0 0 0-4.132-1.932 4.93 4.93 0 0 0-3.075-1.076 4.91 4.91 0 0 0-4.702 3.42 4.841 4.841 0 0 0-2.372 2.38c-2.171.405-4.879 1.089-7.637 2.243a6.757 6.757 0 0 1 1.225-1.503c6.937-6.32 8.287-8.073 6.815-12.28-.676-1.93-2.494-5.525-3.893-8.187h1.605c3.552 0 6.441-2.89 6.441-6.44A6.458 6.458 0 0 0 73.9 4.976 6.646 6.646 0 0 0 67.434 0a6.675 6.675 0 0 0-4.407 1.66 6.43 6.43 0 0 0-6.099 2.884 6.449 6.449 0 0 0-6.233 6.438c0 3.551 2.889 6.44 6.44 6.44h2.909c.16.641.367 1.373.591 2.166.535 1.887 1.2 4.237 1.28 5.695.02.346-.13 1.397-1.93 3.667-1.278 1.613-2.92 3.25-4.118 4.445l-.348.347c-1.129 1.129-1.827 1.89-3.268 3.591-1.022-.341-2.716-1.297-4.827-3.936-2.331-2.914-3.094-5.48-3.328-7.093h.662a5.822 5.822 0 0 0 5.816-5.816 5.823 5.823 0 0 0-5.524-5.808 5.805 5.805 0 0 0-5.36-2.526 6.02 6.02 0 0 0-3.907-1.439 5.994 5.994 0 0 0-5.803 4.389 5.832 5.832 0 0 0-3.617 5.384 5.822 5.822 0 0 0 5.816 5.816h4.65c.425 3.912 1.935 12.07 7.257 18.01.57.637 1.125 1.168 1.672 1.598-2.766 4.89-3.923 9.862-4.346 12.188H19.744c-.87 0-1.575.705-1.575 1.575v2.023c0 9.586 7.799 17.385 17.385 17.385h42.48c9.586 0 17.385-7.799 17.385-17.385v-2.023c0-.87-.705-1.575-1.575-1.575zM76.207 38.817a1.634 1.634 0 0 1 1.28-1.297 1.575 1.575 0 0 0 1.262-1.4 1.776 1.776 0 0 1 1.778-1.62c.52 0 1.015.228 1.355.624.393.456 1.01.649 1.593.497a1.625 1.625 0 0 1 1.913.94c.28.66.97 1.048 1.679.946a1.63 1.63 0 0 1 1.864 1.608c0 .897-.729 1.626-1.625 1.627l-9.773-.025a1.624 1.624 0 0 1-1.326-1.9zM57.135 14.272a3.294 3.294 0 0 1-3.29-3.29 3.294 3.294 0 0 1 3.771-3.255 1.575 1.575 0 0 0 1.677-.945 3.286 3.286 0 0 1 3.868-1.902c.583.152 1.2-.04 1.593-.497a3.532 3.532 0 0 1 2.68-1.232 3.514 3.514 0 0 1 3.517 3.203 1.576 1.576 0 0 0 1.263 1.401 3.295 3.295 0 0 1 2.646 3.227 3.294 3.294 0 0 1-3.29 3.29H57.135Zm-24.956 8.88a2.668 2.668 0 0 1-2.665-2.664c0-1.268.9-2.367 2.142-2.613a1.575 1.575 0 0 0 1.263-1.401 2.86 2.86 0 0 1 2.864-2.608c.838 0 1.633.365 2.181 1.003.393.457 1.011.65 1.594.497a2.662 2.662 0 0 1 3.133 1.54c.28.66.969 1.05 1.677.946a2.664 2.664 0 1 1 .39 5.3zm17.046 23.101a1.576 1.576 0 0 0-.655-2.265c-.631-.3-1.35-.897-2.138-1.777-4.592-5.125-6.004-12.429-6.428-15.908h.922c.23 2.026 1.096 5.385 4.037 9.063 3.222 4.026 5.974 5.09 7.716 5.274a1.58 1.58 0 0 0 1.37-.553c1.807-2.148 2.498-2.917 3.698-4.117l.345-.345c3.621-3.611 7.143-7.398 6.97-10.517-.101-1.806-.788-4.236-1.395-6.379-.128-.452-.253-.896-.366-1.307h3.097c1.24 2.319 3.733 7.08 4.485 9.228.746 2.131.923 2.637-5.962 8.91-1.767 1.61-2.917 3.86-3.42 6.688a1.575 1.575 0 0 0 2.35 1.633c3.149-1.852 6.573-2.886 9.301-3.46.098.35.236.684.407.998-1.793.572-3.938 1.6-6.217 3.425-4.104 3.282-5.14 6.075-5.286 7.84a1.57 1.57 0 0 0 .031.468 50.756 50.756 0 0 0 1.346 4.902h-18.8c.512-2.525 1.783-7.363 4.592-11.8zm28.808 29.68H35.554c-7.849 0-14.235-6.386-14.235-14.235v-.448h70.949v.448c0 7.849-6.386 14.235-14.235 14.235z"/><path d="M65.358 63.508H26.25a1.575 1.575 0 0 0 0 3.15h39.108a1.575 1.575 0 0 0 0-3.15zM77.979 63.508h-5.142a1.575 1.575 0 0 0 0 3.15h5.142a1.575 1.575 0 0 0 0-3.15zM53.405 45.666a1.576 1.576 0 0 0-2.166.52c-2.46 4.011-3.69 7.818-3.741 7.978a1.575 1.575 0 0 0 3 .96c.012-.036 1.174-3.619 3.427-7.291a1.576 1.576 0 0 0-.52-2.167z"/></g></g></g></svg>