<svg width="611.994" height="611.994" viewBox="0 0 161.923 161.923" xmlns="http://www.w3.org/2000/svg"><path d="m119.815 53.996 13.723 13.726c8.22 8.22 8.22 20.37 8.22 20.37l2.184-3.66c3.595-6.027 6.349-13.262 5.89-19.212-.75-9.738-6.89-17.242-10.562-20.912l-4.885-4.883 9.712-9.714-35.16-1.256 1.257 35.159zM42.11 108.449 28.384 94.728c-8.22-8.224-8.22-20.372-8.22-20.372l-2.183 3.658c-3.594 6.026-6.35 13.262-5.891 19.21.75 9.742 6.89 17.246 10.564 20.914l4.884 4.885-9.715 9.713 35.163 1.256-1.258-35.158z"/><g><path d="M89.266 7.075A23.998 23.998 0 0 0 72.185 0a23.998 23.998 0 0 0-17.081 7.075c-4.444 4.444-6.007 8.199-7.385 11.512-1.112 2.671-2.072 4.978-4.484 7.39-2.411 2.411-4.718 3.371-7.39 4.483-3.313 1.38-7.068 2.942-11.512 7.386-9.419 9.419-9.419 24.744 0 34.162a23.998 23.998 0 0 0 17.081 7.075 23.999 23.999 0 0 0 17.081-7.075c4.444-4.444 6.007-8.2 7.386-11.512 1.112-2.672 2.072-4.979 4.483-7.39 2.412-2.412 4.719-3.372 7.39-4.483 3.313-1.38 7.068-2.942 11.512-7.386 9.419-9.418 9.419-24.743 0-34.162zm-4.795 8.75c-1.578 3.157-4.168 6.709-7.387 10.154a45.579 45.579 0 0 0-3.187-3.535 45.51 45.51 0 0 0-3.535-3.187c3.446-3.219 6.997-5.808 10.154-7.387 3.65-1.825 5.147-1.48 5.291-1.336.144.144.49 1.641-1.336 5.292zM59.88 61.94c-.14.008-.281.012-.427.012-2.264 0-5.321-.92-8.642-2.826 2.642-2.855 4.306-5.05 5.814-7.037 1.264-1.668 2.477-3.265 4.157-5.104l4.488 4.488c-1.951 2.449-2.943 4.828-3.906 7.144-.453 1.087-.911 2.187-1.485 3.323zm-16.72-8.758a40.147 40.147 0 0 1-3.164-3.557c2.933-2.765 5.103-4.41 7.212-6.01 1.818-1.38 3.558-2.7 5.61-4.593l4.501 4.5c-1.892 2.053-3.213 3.793-4.592 5.611-1.6 2.11-3.246 4.28-6.01 7.212a40.087 40.087 0 0 1-3.558-3.163zm10.557-36.036c2.302-.126 5.535.78 9.07 2.811-2.642 2.856-4.306 5.05-5.814 7.039-1.265 1.667-2.478 3.265-4.158 5.104l-4.488-4.488c1.952-2.449 2.943-4.828 3.907-7.144.452-1.086.91-2.186 1.483-3.322zm2.56 18.417c1.893-2.053 3.215-3.793 4.593-5.611 1.6-2.11 3.246-4.28 6.01-7.211a40.147 40.147 0 0 1 3.557 3.163 40.13 40.13 0 0 1 3.163 3.557c-2.932 2.764-5.101 4.41-7.21 6.01-1.819 1.378-3.559 2.7-5.612 4.592zm15.907-30.67c2.818 0 5.544.602 8.03 1.744-4.433 1.778-9.5 5.491-13.906 9.723a33.681 33.681 0 0 0-3.837-2.072c-1.985-.904-3.894-1.51-5.683-1.817a29.18 29.18 0 0 1 1.774-1.936 19.138 19.138 0 0 1 13.622-5.642Zm-34.46 30.085c2.316-.964 4.695-1.955 7.144-3.907l4.488 4.488c-1.839 1.68-3.436 2.893-5.104 4.157-1.988 1.508-4.183 3.173-7.039 5.816-2.03-3.536-2.938-6.769-2.811-9.07 1.136-.574 2.236-1.032 3.322-1.484zm-9.933 6.328a29.18 29.18 0 0 1 1.936-1.773c.306 1.789.913 3.698 1.817 5.683a33.657 33.657 0 0 0 2.072 3.836c-4.228 4.403-7.939 9.466-9.719 13.896-3.245-7.108-1.948-15.8 3.894-21.642Zm1.336 21.953c1.578-3.157 4.168-6.708 7.387-10.154A45.577 45.577 0 0 0 39.7 56.64a45.579 45.579 0 0 0 3.536 3.186c-3.446 3.219-6.997 5.809-10.154 7.387-3.65 1.825-5.147 1.48-5.291 1.336-.144-.143-.49-1.64 1.336-5.291zm12.286 10.934c-2.82 0-5.546-.603-8.034-1.746 4.435-1.778 9.502-5.49 13.91-9.722a33.68 33.68 0 0 0 3.817 2.063c1.991.91 3.907 1.52 5.702 1.828a29.16 29.16 0 0 1-1.773 1.934 19.138 19.138 0 0 1-13.622 5.643Zm34.46-30.086c-2.316.964-4.695 1.955-7.144 3.907l-4.488-4.488c1.84-1.68 3.437-2.893 5.104-4.157 1.988-1.508 4.183-3.173 7.037-5.814 2.03 3.535 2.938 6.769 2.813 9.069-1.136.573-2.236 1.031-3.322 1.483zm9.933-6.328a29.126 29.126 0 0 1-1.935 1.773c-.308-1.794-.918-3.71-1.828-5.702a33.652 33.652 0 0 0-2.062-3.817c4.228-4.403 7.938-9.465 9.718-13.896 3.246 7.109 1.95 15.8-3.893 21.642z"/><g><path d="M84.47 15.826c-1.577 3.156-4.167 6.708-7.386 10.153a45.579 45.579 0 0 0-3.187-3.535 45.51 45.51 0 0 0-3.535-3.187c3.446-3.219 6.997-5.808 10.154-7.387 3.65-1.825 5.147-1.48 5.291-1.336.144.144.49 1.641-1.336 5.292zM59.88 61.939c-.139.008-.28.012-.426.012-2.264 0-5.321-.92-8.642-2.826 2.642-2.855 4.306-5.05 5.814-7.037 1.264-1.668 2.477-3.265 4.157-5.104l4.488 4.488c-1.951 2.449-2.943 4.828-3.906 7.144-.453 1.087-.911 2.187-1.485 3.323zm-16.72-8.758a40.147 40.147 0 0 1-3.163-3.557c2.933-2.765 5.103-4.41 7.212-6.01 1.818-1.38 3.558-2.7 5.61-4.593l4.501 4.5c-1.892 2.053-3.213 3.793-4.592 5.611-1.6 2.11-3.246 4.28-6.01 7.212a40.087 40.087 0 0 1-3.558-3.163zm10.558-36.036c2.302-.126 5.535.78 9.07 2.811-2.642 2.856-4.306 5.05-5.814 7.039-1.265 1.667-2.478 3.265-4.158 5.104l-4.488-4.488c1.952-2.449 2.943-4.828 3.907-7.144.452-1.086.91-2.186 1.483-3.322zm2.56 18.417c1.893-2.053 3.215-3.793 4.593-5.611 1.6-2.11 3.246-4.28 6.01-7.211a40.147 40.147 0 0 1 3.557 3.163 40.13 40.13 0 0 1 3.163 3.557c-2.932 2.764-5.101 4.41-7.21 6.01-1.819 1.378-3.559 2.7-5.612 4.592zm15.907-30.67c2.818 0 5.544.602 8.03 1.744-4.433 1.778-9.5 5.491-13.906 9.723a33.681 33.681 0 0 0-3.837-2.072c-1.985-.904-3.894-1.51-5.683-1.817a29.18 29.18 0 0 1 1.774-1.936 19.138 19.138 0 0 1 13.622-5.642Zm-34.46 30.085c2.316-.964 4.695-1.955 7.144-3.907l4.488 4.488c-1.839 1.68-3.436 2.893-5.104 4.157-1.988 1.508-4.183 3.173-7.039 5.816-2.03-3.536-2.938-6.769-2.811-9.07 1.136-.574 2.236-1.032 3.322-1.484zm-9.933 6.328a29.18 29.18 0 0 1 1.936-1.773c.306 1.789.913 3.698 1.817 5.683a33.657 33.657 0 0 0 2.072 3.836c-4.228 4.403-7.939 9.466-9.719 13.896-3.245-7.108-1.948-15.8 3.894-21.642Zm1.336 21.953c1.578-3.157 4.168-6.708 7.387-10.154A45.577 45.577 0 0 0 39.7 56.64a45.579 45.579 0 0 0 3.536 3.186c-3.446 3.219-6.997 5.809-10.154 7.387-3.65 1.825-5.147 1.48-5.291 1.336-.144-.143-.49-1.64 1.336-5.291zm12.286 10.934c-2.82 0-5.546-.603-8.034-1.746 4.435-1.778 9.502-5.49 13.91-9.722a33.68 33.68 0 0 0 3.817 2.063c1.991.91 3.907 1.52 5.702 1.828a29.16 29.16 0 0 1-1.773 1.934 19.138 19.138 0 0 1-13.622 5.643Zm34.46-30.086c-2.316.964-4.695 1.955-7.144 3.907l-4.488-4.488c1.84-1.68 3.437-2.893 5.104-4.157 1.988-1.508 4.183-3.173 7.037-5.814 2.03 3.535 2.938 6.769 2.813 9.069-1.136.573-2.236 1.031-3.322 1.483zm9.933-6.328a29.126 29.126 0 0 1-1.935 1.773c-.308-1.794-.918-3.71-1.828-5.702a33.652 33.652 0 0 0-2.062-3.817c4.228-4.403 7.938-9.465 9.718-13.896 3.246 7.109 1.95 15.8-3.893 21.642z" fill="#a64f16"/></g><g><path d="m95.005 157.556-24.302-24.302 46.047-46.047 24.302 24.302Z" fill="#fc0"/><path d="M105.878 114.301c-2.159 0-4.188.84-5.714 2.367-3.15 3.15-3.15 8.277 0 11.427a8.027 8.027 0 0 0 5.714 2.367c2.158 0 4.187-.84 5.713-2.367 3.15-3.15 3.15-8.276 0-11.427a8.026 8.026 0 0 0-5.713-2.367zm3.155 11.236a4.433 4.433 0 0 1-3.155 1.306 4.433 4.433 0 0 1-3.156-1.306 4.467 4.467 0 0 1 0-6.31 4.433 4.433 0 0 1 3.156-1.308c1.191 0 2.312.464 3.155 1.307a4.467 4.467 0 0 1 0 6.31z"/><path d="M112.315 95.802c-.48 0-.94.19-1.279.53L79.828 127.54a1.809 1.809 0 0 0 0 2.558 4.467 4.467 0 0 1 0 6.31 1.809 1.809 0 0 0 0 2.559l9.464 9.464a1.809 1.809 0 0 0 2.558 0 4.433 4.433 0 0 1 3.155-1.306c1.192 0 2.313.464 3.155 1.306a1.809 1.809 0 0 0 2.56 0l31.208-31.208a1.809 1.809 0 0 0 0-2.559 4.467 4.467 0 0 1 0-6.31 1.809 1.809 0 0 0 0-2.558l-9.464-9.464a1.809 1.809 0 0 0-2.559 0 4.433 4.433 0 0 1-3.155 1.306 4.433 4.433 0 0 1-3.155-1.306c-.34-.34-.8-.53-1.28-.53zm8.726 4.224 7.193 7.193a8.107 8.107 0 0 0 0 8.58l-28.937 28.938a8.025 8.025 0 0 0-4.292-1.23 8.025 8.025 0 0 0-4.291 1.23l-7.193-7.193a8.107 8.107 0 0 0 0-8.58l28.937-28.938a8.025 8.025 0 0 0 4.292 1.23 8.025 8.025 0 0 0 4.291-1.23z"/><g><path d="m144.89 110.23-26.86-26.86a1.81 1.81 0 0 0-2.56 0l-48.604 48.604a1.809 1.809 0 0 0 0 2.559l26.86 26.86a1.81 1.81 0 0 0 2.559 0l48.605-48.605a1.809 1.809 0 0 0 0-2.558zm-49.885 47.326-24.302-24.302 46.047-46.047 24.302 24.302Z"/><path d="M105.878 114.301c-2.159 0-4.188.84-5.714 2.367-3.15 3.15-3.15 8.277 0 11.427a8.027 8.027 0 0 0 5.714 2.367c2.158 0 4.187-.84 5.713-2.367 3.15-3.15 3.15-8.276 0-11.427a8.026 8.026 0 0 0-5.713-2.367zm3.155 11.236a4.433 4.433 0 0 1-3.155 1.306 4.433 4.433 0 0 1-3.156-1.306 4.467 4.467 0 0 1 0-6.31 4.433 4.433 0 0 1 3.156-1.308c1.191 0 2.312.464 3.155 1.307a4.467 4.467 0 0 1 0 6.31z"/><path d="m121.041 100.026 7.193 7.193a8.107 8.107 0 0 0 0 8.58l-28.937 28.938a8.025 8.025 0 0 0-4.292-1.23 8.025 8.025 0 0 0-4.291 1.23l-7.193-7.193a8.107 8.107 0 0 0 0-8.58l28.937-28.938a8.025 8.025 0 0 0 4.292 1.23 8.025 8.025 0 0 0 4.291-1.23z" fill="#d69500"/></g><g><path d="m144.89 110.23-26.86-26.86a1.81 1.81 0 0 0-2.56 0l-48.604 48.604a1.809 1.809 0 0 0 0 2.559l26.86 26.86a1.81 1.81 0 0 0 2.559 0l48.605-48.605a1.809 1.809 0 0 0 0-2.558zm-49.885 47.326-24.302-24.302 46.047-46.047 24.302 24.302Z"/><path d="M105.878 114.301c-2.159 0-4.188.84-5.714 2.367-3.15 3.15-3.15 8.277 0 11.427a8.027 8.027 0 0 0 5.714 2.367c2.158 0 4.187-.84 5.713-2.367 3.15-3.15 3.15-8.276 0-11.427a8.026 8.026 0 0 0-5.713-2.367zm3.155 11.236a4.433 4.433 0 0 1-3.155 1.306 4.433 4.433 0 0 1-3.156-1.306 4.467 4.467 0 0 1 0-6.31 4.433 4.433 0 0 1 3.156-1.308c1.191 0 2.312.464 3.155 1.307a4.467 4.467 0 0 1 0 6.31z"/><path d="M112.315 95.802c-.48 0-.94.19-1.279.53L79.828 127.54a1.809 1.809 0 0 0 0 2.558 4.467 4.467 0 0 1 0 6.31 1.809 1.809 0 0 0 0 2.559l9.464 9.464a1.809 1.809 0 0 0 2.558 0 4.433 4.433 0 0 1 3.155-1.306c1.192 0 2.313.464 3.155 1.306a1.809 1.809 0 0 0 2.56 0l31.208-31.208a1.809 1.809 0 0 0 0-2.559 4.467 4.467 0 0 1 0-6.31 1.809 1.809 0 0 0 0-2.558l-9.464-9.464a1.809 1.809 0 0 0-2.559 0 4.433 4.433 0 0 1-3.155 1.306 4.433 4.433 0 0 1-3.155-1.306c-.34-.34-.8-.53-1.28-.53zm8.726 4.224 7.193 7.193a8.107 8.107 0 0 0 0 8.58l-28.937 28.938a8.025 8.025 0 0 0-4.292-1.23 8.025 8.025 0 0 0-4.291 1.23l-7.193-7.193a8.107 8.107 0 0 0 0-8.58l28.937-28.938a8.025 8.025 0 0 0 4.292 1.23 8.025 8.025 0 0 0 4.291-1.23z"/></g><g><path d="m144.89 110.23-26.86-26.86a1.81 1.81 0 0 0-2.56 0l-48.604 48.604a1.809 1.809 0 0 0 0 2.559l26.86 26.86a1.81 1.81 0 0 0 2.559 0l48.605-48.605a1.809 1.809 0 0 0 0-2.558zm-49.885 47.326-24.302-24.302 46.047-46.047 24.302 24.302Z"/><path d="M109.033 125.537a4.433 4.433 0 0 1-3.155 1.306 4.433 4.433 0 0 1-3.156-1.306 4.467 4.467 0 0 1 0-6.31 4.433 4.433 0 0 1 3.156-1.308c1.191 0 2.312.464 3.155 1.307a4.467 4.467 0 0 1 0 6.31z" fill="#fc0"/><path d="M112.315 95.802c-.48 0-.94.19-1.279.53L79.828 127.54a1.809 1.809 0 0 0 0 2.558 4.467 4.467 0 0 1 0 6.31 1.809 1.809 0 0 0 0 2.559l9.464 9.464a1.809 1.809 0 0 0 2.558 0 4.433 4.433 0 0 1 3.155-1.306c1.192 0 2.313.464 3.155 1.306a1.809 1.809 0 0 0 2.56 0l31.208-31.208a1.809 1.809 0 0 0 0-2.559 4.467 4.467 0 0 1 0-6.31 1.809 1.809 0 0 0 0-2.558l-9.464-9.464a1.809 1.809 0 0 0-2.559 0 4.433 4.433 0 0 1-3.155 1.306 4.433 4.433 0 0 1-3.155-1.306c-.34-.34-.8-.53-1.28-.53zm8.726 4.224 7.193 7.193a8.107 8.107 0 0 0 0 8.58l-28.937 28.938a8.025 8.025 0 0 0-4.292-1.23 8.025 8.025 0 0 0-4.291 1.23l-7.193-7.193a8.107 8.107 0 0 0 0-8.58l28.937-28.938a8.025 8.025 0 0 0 4.292 1.23 8.025 8.025 0 0 0 4.291-1.23z"/></g></g></g></svg>